<svg xmlns="http://www.w3.org/2000/svg" width="48.769" height="46.228" viewBox="0 0 48.769 46.228">
  <g id="featureCat2" transform="translate(-2.584 -380.98)">
    <circle id="Ellipse_184" data-name="Ellipse 184" cx="23" cy="23" r="23" transform="translate(2.584 380.98)" fill="#0a9a73" opacity="0.11"/>
    <g id="Group_1492" data-name="Group 1492" transform="translate(-8.409 -84.792)">
      <g id="Group_1490" data-name="Group 1490">
        <ellipse id="Ellipse_187" data-name="Ellipse 187" cx="13.253" cy="13.009" rx="13.253" ry="13.009" transform="translate(26.125 478.969)" fill="#fabe2c"/>
        <path id="Path_16956" data-name="Path 16956" d="M39.378,478.978V505a13.014,13.014,0,1,0,0-26.024Z" fill="#ff9100"/>
        <path id="Path_16957" data-name="Path 16957" d="M53.792,477.84a20.383,20.383,0,0,0-11.505-5.659l1.27-1.247a1.25,1.25,0,0,0,0-1.791,1.308,1.308,0,0,0-1.824,0l-3.268,3.207a1.251,1.251,0,0,0,0,1.791l3.267,3.207a1.308,1.308,0,0,0,1.825,0,1.249,1.249,0,0,0,0-1.79l-.728-.715A17.515,17.515,0,1,1,21.573,491.99,17.139,17.139,0,0,1,24.9,481.817a17.719,17.719,0,0,1,8.492-6.292,1.26,1.26,0,0,0,.781-1.619,1.3,1.3,0,0,0-1.649-.766,20.282,20.282,0,0,0-9.721,7.2,19.739,19.739,0,0,0,2.162,25.8,20.656,20.656,0,0,0,28.829,0,19.753,19.753,0,0,0,0-28.3Z" fill="#5c7099"/>
      </g>
      <path id="Path_16958" data-name="Path 16958" d="M40.953,490.733a11.077,11.077,0,0,1-2.771-1.26.79.79,0,0,1-.162-.74,1.128,1.128,0,0,1,.747-.886,2.155,2.155,0,0,1,1.924.274,1.306,1.306,0,0,0,1.806-.256,1.251,1.251,0,0,0-.261-1.773,4.708,4.708,0,0,0-1.638-.746v-.34a1.291,1.291,0,0,0-2.581,0v.418a3.652,3.652,0,0,0-2.533,2.84,3.22,3.22,0,0,0,1.106,3.2,12.862,12.862,0,0,0,3.5,1.655,1.288,1.288,0,0,1,.967,1.53A1.764,1.764,0,0,1,39.3,496.12a3.084,3.084,0,0,1-2.21-.567,1.305,1.305,0,0,0-1.786.367,1.252,1.252,0,0,0,.373,1.753,5.31,5.31,0,0,0,2.341.921v.38a1.291,1.291,0,0,0,2.581,0v-.51a4.259,4.259,0,0,0,1.642-.923,4.329,4.329,0,0,0,1.364-2.47,3.826,3.826,0,0,0-2.651-4.338Z" fill="#ffe666"/>
      <path id="Path_16959" data-name="Path 16959" d="M42.286,472.181l1.271-1.247a1.25,1.25,0,0,0,0-1.791,1.309,1.309,0,0,0-1.825,0l-3.267,3.207a1.251,1.251,0,0,0,0,1.791l3.267,3.207a1.308,1.308,0,0,0,1.825,0,1.249,1.249,0,0,0,0-1.79l-.728-.715a17.452,17.452,0,0,1-3.451,34.624V512a20.442,20.442,0,0,0,14.414-5.861,19.753,19.753,0,0,0,0-28.3,20.383,20.383,0,0,0-11.506-5.659Z" fill="#404a80"/>
      <g id="Group_1491" data-name="Group 1491">
        <path id="Path_16960" data-name="Path 16960" d="M40.953,490.733c-.525-.182-1.077-.383-1.575-.6v2.734c.237.088.476.173.715.255a1.288,1.288,0,0,1,.967,1.53,1.763,1.763,0,0,1-1.682,1.465v4.121a1.277,1.277,0,0,0,1.22-1.263v-.51a4.247,4.247,0,0,0,1.642-.923,4.329,4.329,0,0,0,1.364-2.47,3.826,3.826,0,0,0-2.651-4.338Z" fill="#fabe2c"/>
        <path id="Path_16961" data-name="Path 16961" d="M39.378,483.743v4a2.07,2.07,0,0,1,1.313.378,1.306,1.306,0,0,0,1.806-.256,1.251,1.251,0,0,0-.261-1.773,4.708,4.708,0,0,0-1.638-.746v-.34a1.277,1.277,0,0,0-1.22-1.263Z" fill="#fabe2c"/>
      </g>
    </g>
  </g>
</svg>
