<svg xmlns="http://www.w3.org/2000/svg" width="56" height="46" viewBox="0 0 56 46">
  <g id="featureCat1" transform="translate(5.416 -379.98)">
    <circle id="Ellipse_184" data-name="Ellipse 184" cx="23" cy="23" r="23" transform="translate(-5.416 379.98)" fill="#0a9a73" opacity="0.15"/>
    <g id="Group_1477" data-name="Group 1477">
      <path id="Path_16931" data-name="Path 16931" d="M12.387,411.08v8.389H41.46a1.515,1.515,0,0,0,1.5-1.525V411.08l-15.289-2.034Z" fill="#8b9ba9"/>
      <path id="Path_16932" data-name="Path 16932" d="M39.956,410.674v5.745H12.387v3.05H41.46a1.515,1.515,0,0,0,1.5-1.525V411.08Z" fill="#6c7a88"/>
    </g>
    <g id="Group_1480" data-name="Group 1480">
      <g id="Group_1478" data-name="Group 1478">
        <path id="Path_16933" data-name="Path 16933" d="M44.317,390.98H16.9a1.515,1.515,0,0,0-1.5,1.525v4.754H5.365a3.016,3.016,0,0,0-2.934,2.381l-1.139,5.134a18.579,18.579,0,0,0-.44,4.017v10.678H15.4V411.08H44.317a1.515,1.515,0,0,0,1.5-1.525v-17.05A1.515,1.515,0,0,0,44.317,390.98Z" fill="#ff7e40"/>
        <path id="Path_16934" data-name="Path 16934" d="M49.832,404.53H45.821v-2.737h2.006a.763.763,0,0,0,0-1.525H45.821v-2.737h3.008a.763.763,0,0,0,0-1.526H45.821v-2.737h4.011a.763.763,0,0,0,0-1.525H45.618a1.5,1.5,0,0,0-1.3-.763h-1.5v17.05H15.4V397.259H12.387V411.08H10.131a8.182,8.182,0,0,0-5.668,2.288H.852v6.1H15.4V411.08H44.317a1.5,1.5,0,0,0,1.3-.762h3.211a.763.763,0,0,0,0-1.526H45.821v-2.737h4.011a.763.763,0,0,0,0-1.525Z" fill="#ff6344"/>
      </g>
      <path id="Path_16935" data-name="Path 16935" d="M.752,419.469h5.5v-3.05H.752a.757.757,0,0,0-.752.762v1.526A.757.757,0,0,0,.752,419.469Z" fill="#8b9ba9"/>
      <g id="Group_1479" data-name="Group 1479">
        <path id="Path_16936" data-name="Path 16936" d="M12.387,400.309h-7.2l-1.43,6.449h8.631Z" fill="#9dc6fb"/>
        <path id="Path_16937" data-name="Path 16937" d="M9.559,403.707H4.432l-.676,3.051h8.631v-6.449H9.559Z" fill="#80b4fb"/>
      </g>
    </g>
    <g id="Group_1481" data-name="Group 1481">
      <ellipse id="Ellipse_180" data-name="Ellipse 180" cx="5.264" cy="5.338" rx="5.264" ry="5.338" transform="translate(30.43 414.131)" fill="#4d5967"/>
      <path id="Path_16938" data-name="Path 16938" d="M36.771,414.244a3.08,3.08,0,0,0,.519,3.607L34.1,421.087a2.977,2.977,0,0,0-3.558-.526,5.273,5.273,0,1,0,6.23-6.317Z" fill="#35404a"/>
      <ellipse id="Ellipse_181" data-name="Ellipse 181" cx="2.256" cy="2.288" rx="2.256" ry="2.288" transform="translate(33.438 417.181)" fill="#fff9eb"/>
    </g>
    <g id="Group_1482" data-name="Group 1482">
      <ellipse id="Ellipse_182" data-name="Ellipse 182" cx="5.264" cy="5.338" rx="5.264" ry="5.338" transform="translate(4.867 414.131)" fill="#4d5967"/>
      <path id="Path_16939" data-name="Path 16939" d="M11.208,414.244a3.08,3.08,0,0,0,.519,3.607l-3.191,3.236a2.977,2.977,0,0,0-3.558-.526,5.273,5.273,0,1,0,6.23-6.317Z" fill="#35404a"/>
      <ellipse id="Ellipse_183" data-name="Ellipse 183" cx="2.256" cy="2.288" rx="2.256" ry="2.288" transform="translate(7.875 417.181)" fill="#fff9eb"/>
    </g>
    <g id="Group_1483" data-name="Group 1483">
      <path id="Path_16940" data-name="Path 16940" d="M23,399.505v.763h.952a.763.763,0,0,1,0,1.525H23v1.525a.752.752,0,1,1-1.5,0v-4.575a.757.757,0,0,1,.752-.763h2.306a.763.763,0,0,1,0,1.525Z" fill="#fff9eb"/>
      <path id="Path_16941" data-name="Path 16941" d="M30.171,402.781a.77.77,0,0,1,0,1.078.746.746,0,0,1-1.064,0l-1.27-1.3h-.4v.763a.752.752,0,1,1-1.5,0v-4.575a.757.757,0,0,1,.752-.763h1.466a2.268,2.268,0,0,1,2.243,2.288,2.3,2.3,0,0,1-.891,1.824Zm-1.286-2.513a.752.752,0,0,0-.739-.763h-.714v1.525h.714A.751.751,0,0,0,28.885,400.268Z" fill="#fff9eb"/>
      <path id="Path_16942" data-name="Path 16942" d="M35.05,403.318a.757.757,0,0,1-.752.762H31.992a.757.757,0,0,1-.752-.762v-4.576a.757.757,0,0,1,.752-.762H34.3a.763.763,0,0,1,0,1.525H32.744v.763H33.7a.763.763,0,0,1,0,1.525h-.952v.762H34.3a.758.758,0,0,1,.752.763Z" fill="#fff9eb"/>
      <path id="Path_16943" data-name="Path 16943" d="M39.716,403.318a.757.757,0,0,1-.752.762H36.658a.757.757,0,0,1-.752-.762v-4.576a.757.757,0,0,1,.752-.762h2.306a.763.763,0,0,1,0,1.525H37.41v.763h.952a.763.763,0,0,1,0,1.525H37.41v.762h1.554a.758.758,0,0,1,.752.763Z" fill="#fff9eb"/>
    </g>
  </g>
</svg>
