<svg xmlns="http://www.w3.org/2000/svg" width="49.693" height="46.109" viewBox="0 0 49.693 46.109">
  <g id="featureCat4" transform="translate(3.416 -377.98)">
    <circle id="Ellipse_184" data-name="Ellipse 184" cx="23" cy="23" r="23" transform="translate(-3.416 377.98)" fill="#0a9a73" opacity="0.14"/>
    <g id="Group_1483" data-name="Group 1483">
      <path id="Path_16940" data-name="Path 16940" d="M23,399.505v.763h.952a.763.763,0,0,1,0,1.525H23v1.525a.752.752,0,1,1-1.5,0v-4.575a.757.757,0,0,1,.752-.763h2.306a.763.763,0,0,1,0,1.525Z" fill="#fff9eb"/>
      <path id="Path_16941" data-name="Path 16941" d="M30.171,402.781a.77.77,0,0,1,0,1.078.746.746,0,0,1-1.064,0l-1.27-1.3h-.4v.763a.752.752,0,1,1-1.5,0v-4.575a.757.757,0,0,1,.752-.763h1.466a2.268,2.268,0,0,1,2.243,2.288,2.3,2.3,0,0,1-.891,1.824Zm-1.286-2.513a.752.752,0,0,0-.739-.763h-.714v1.525h.714A.751.751,0,0,0,28.885,400.268Z" fill="#fff9eb"/>
      <path id="Path_16942" data-name="Path 16942" d="M35.05,403.318a.757.757,0,0,1-.752.762H31.992a.757.757,0,0,1-.752-.762v-4.576a.757.757,0,0,1,.752-.762H34.3a.763.763,0,0,1,0,1.525H32.744v.763H33.7a.763.763,0,0,1,0,1.525h-.952v.762H34.3a.758.758,0,0,1,.752.763Z" fill="#fff9eb"/>
      <path id="Path_16943" data-name="Path 16943" d="M39.716,403.318a.757.757,0,0,1-.752.762H36.658a.757.757,0,0,1-.752-.762v-4.576a.757.757,0,0,1,.752-.762h2.306a.763.763,0,0,1,0,1.525H37.41v.763h.952a.763.763,0,0,1,0,1.525H37.41v.762h1.554a.758.758,0,0,1,.752.763Z" fill="#fff9eb"/>
    </g>
    <g id="Group_1508" data-name="Group 1508" transform="translate(2.584 -39.644)">
      <g id="Group_1506" data-name="Group 1506">
        <path id="Path_17012" data-name="Path 17012" d="M43.053,449.086c0-6.955-6.042-12.593-13.5-12.593s-13.495,5.638-13.495,12.593,6.042,12.593,13.495,12.593a14.489,14.489,0,0,0,2.825-.277l5.347,1.661-.946-3.339a12.414,12.414,0,0,0,6.27-10.638Z" fill="#b3dafe"/>
        <g id="Group_1503" data-name="Group 1503">
          <path id="Path_17013" data-name="Path 17013" d="M43.053,449.086c0-6.955-6.042-12.593-13.5-12.593q-.673,0-1.33.061c6.829.624,12.165,6,12.165,12.532a12.414,12.414,0,0,1-6.27,10.638l.69,2.433,2.917.906-.946-3.339A12.414,12.414,0,0,0,43.053,449.086Z" fill="#8ac9fe"/>
        </g>
        <path id="Path_17014" data-name="Path 17014" d="M37.021,454.676l-4.294-11.159a1.506,1.506,0,0,0-2.839,0L27.4,449.976v0l-1.807,4.7a1.135,1.135,0,0,0,.591,1.453,1.052,1.052,0,0,0,1.388-.619l1.532-3.981h4.4l1.533,3.981a1.068,1.068,0,0,0,.989.7,1.028,1.028,0,0,0,.4-.081,1.134,1.134,0,0,0,.59-1.453Zm-7.057-5.38,1.344-3.49,1.343,3.49Z" fill="#0078c8"/>
        <path id="Path_17015" data-name="Path 17015" d="M14.136,427.294c-7.454,0-13.5,5.638-13.5,12.593a12.411,12.411,0,0,0,6.27,10.637l-.946,3.34,5.347-1.661a14.489,14.489,0,0,0,2.825.277c7.453,0,13.5-5.638,13.5-12.593s-6.042-12.593-13.5-12.593Z" fill="#f9c6c6"/>
        <g id="Group_1504" data-name="Group 1504">
          <path id="Path_17016" data-name="Path 17016" d="M14.136,427.294q-.673,0-1.331.061c6.829.623,12.165,6,12.165,12.532s-5.334,11.906-12.16,12.532q.654.06,1.326.061c7.453,0,13.5-5.638,13.5-12.593s-6.042-12.593-13.5-12.593Z" fill="#f9b1b1"/>
        </g>
        <g id="Group_1505" data-name="Group 1505">
          <path id="Path_17017" data-name="Path 17017" d="M14.236,444.793a1.106,1.106,0,0,1-1.08-1.13v-3.9a1.612,1.612,0,0,1,1.572-1.645,2,2,0,0,0,1.956-2.047v-.62a2.551,2.551,0,1,0-5.1,0,1.081,1.081,0,1,1-2.159,0,4.827,4.827,0,0,1,4.708-4.928,4.827,4.827,0,0,1,4.707,4.928v.62a4.254,4.254,0,0,1-3.527,4.263v3.328A1.106,1.106,0,0,1,14.236,444.793Z" fill="#d83131"/>
        </g>
        <ellipse id="Ellipse_189" data-name="Ellipse 189" cx="1.08" cy="1.13" rx="1.08" ry="1.13" transform="translate(13.156 446.611)" fill="#d83131"/>
      </g>
      <g id="Group_1507" data-name="Group 1507">
        <path id="Path_17018" data-name="Path 17018" d="M15.956,440.881a4.973,4.973,0,0,0,3.527-4.809v-.62a5.483,5.483,0,0,0-5.347-5.6,5.483,5.483,0,0,0-5.348,5.6,1.721,1.721,0,1,0,3.439,0,1.911,1.911,0,1,1,3.817,0v.62a1.349,1.349,0,0,1-1.316,1.378,2.268,2.268,0,0,0-2.212,2.315v3.9a1.722,1.722,0,1,0,3.44,0Zm-.731-1.209a.661.661,0,0,0-.55.663v3.328a.439.439,0,1,1-.878,0v-3.9a.955.955,0,0,1,.931-.976,2.661,2.661,0,0,0,2.6-2.717v-.62a3.269,3.269,0,0,0-3.188-3.338,3.269,3.269,0,0,0-3.189,3.338.44.44,0,1,1-.879,0,4.171,4.171,0,0,1,4.068-4.258,4.17,4.17,0,0,1,4.067,4.258v.62A3.6,3.6,0,0,1,15.225,439.672Z"/>
        <path id="Path_17019" data-name="Path 17019" d="M14.236,445.941a1.8,1.8,0,1,0,1.72,1.8A1.763,1.763,0,0,0,14.236,445.941Zm0,2.26a.46.46,0,1,1,.439-.46A.451.451,0,0,1,14.236,448.2Z"/>
        <path id="Path_17020" data-name="Path 17020" d="M29.557,435.823a15.254,15.254,0,0,0-1.924.123A13.857,13.857,0,0,0,16.8,426.858h0a15.221,15.221,0,0,0-2.659-.234,14.481,14.481,0,0,0-10.175,4.055.692.692,0,0,0-.034.946.621.621,0,0,0,.9.035,13.237,13.237,0,0,1,9.3-3.7,13.927,13.927,0,0,1,2.444.215h0c7.023,1.255,11.113,7.361,10.305,13.234-.81,5.856-6.219,10.4-12.75,10.4a13.914,13.914,0,0,1-2.7-.265.606.606,0,0,0-.3.016L6.913,452.87l.611-2.155a.684.684,0,0,0-.3-.774A11.7,11.7,0,0,1,1.28,439.887a11.26,11.26,0,0,1,1.726-5.971.688.688,0,0,0-.185-.927.623.623,0,0,0-.886.194A12.636,12.636,0,0,0,0,439.887a12.993,12.993,0,0,0,6.154,10.949l-.8,2.837a.69.69,0,0,0,.161.664.625.625,0,0,0,.453.2.606.606,0,0,0,.182-.028l5.2-1.615a15.119,15.119,0,0,0,4.711.136,14.07,14.07,0,0,0,13.5,9.322,15.14,15.14,0,0,0,2.789-.259l5.2,1.615a.6.6,0,0,0,.182.028.627.627,0,0,0,.452-.2.693.693,0,0,0,.161-.665l-.8-2.837a13.891,13.891,0,0,0,2.84-2.414.692.692,0,0,0-.029-.947.619.619,0,0,0-.9.03,12.719,12.719,0,0,1-2.978,2.437.683.683,0,0,0-.3.773l.611,2.156-4.216-1.31a.618.618,0,0,0-.3-.016,13.909,13.909,0,0,1-2.7.265,12.807,12.807,0,0,1-12.217-8.2,14.346,14.346,0,0,0,7.562-4.325,12.7,12.7,0,0,0,3.089-11.231,13.848,13.848,0,0,1,1.566-.088c7.088,0,12.855,5.349,12.855,11.923a11.1,11.1,0,0,1-1.3,5.235.687.687,0,0,0,.251.911.625.625,0,0,0,.869-.263,12.467,12.467,0,0,0,1.463-5.883c0-7.313-6.341-13.263-14.136-13.263Z"/>
        <path id="Path_17021" data-name="Path 17021" d="M31.9,445.555a.63.63,0,0,0-1.187,0l-1.343,3.49a.7.7,0,0,0,.063.626.634.634,0,0,0,.53.3h2.687a.634.634,0,0,0,.53-.3.7.7,0,0,0,.063-.626Zm-.989,3.071.395-1.028.4,1.028Z"/>
        <path id="Path_17022" data-name="Path 17022" d="M33.321,443.267a2.136,2.136,0,0,0-4.027,0L25,454.425a1.817,1.817,0,0,0,.945,2.325,1.684,1.684,0,0,0,2.221-.99l1.371-3.561h3.541l1.371,3.561a1.7,1.7,0,0,0,1.583,1.12,1.639,1.639,0,0,0,.638-.13,1.817,1.817,0,0,0,.945-2.325Zm2.871,12.24a.409.409,0,0,1-.16.033.426.426,0,0,1-.4-.28L34.1,451.278a.642.642,0,0,0-.594-.419H29.1a.642.642,0,0,0-.594.419l-1.532,3.982a.421.421,0,0,1-.555.247.454.454,0,0,1-.237-.581l4.3-11.158a.875.875,0,0,1,1.651,0l4.3,11.158a.454.454,0,0,1-.236.581Z"/>
      </g>
    </g>
  </g>
</svg>
