<svg xmlns="http://www.w3.org/2000/svg" width="70" height="69.998" viewBox="0 0 70 69.998">
  <g id="property2" transform="translate(-2 -2.01)">
    <path id="Path_98" data-name="Path 98" d="M71,72.008H3a1,1,0,0,1-1-1v-41a1,1,0,0,1,1-1H71a1,1,0,0,1,1,1v41A1,1,0,0,1,71,72.008Zm-67-2H70v-39H4Z" fill="#004274"/>
    <path id="Path_99" data-name="Path 99" d="M51.689,15.68a1,1,0,0,1-.622-.218l-2.27-1.81a1,1,0,1,1,1.246-1.564l2.27,1.81a1,1,0,0,1-.624,1.782Z" fill="#004274"/>
    <path id="Path_100" data-name="Path 100" d="M71,31.01H3a1,1,0,0,1-.622-1.783l34-27a1,1,0,0,1,1.244,0l6.93,5.5a1,1,0,1,1-1.244,1.566L37,4.287,5.867,29.01H68.131l-3.763-2.987a1,1,0,1,1,1.244-1.566l6.01,4.77A1,1,0,0,1,71,31.01Z" fill="#004274"/>
    <path id="Path_101" data-name="Path 101" d="M59.509,21.88a.994.994,0,0,1-.619-.215l-2.33-1.84a1,1,0,1,1,1.24-1.57l2.33,1.84a1,1,0,0,1-.621,1.785Z" fill="#004274"/>
    <path id="Path_102" data-name="Path 102" d="M54,31.01H20a1,1,0,0,1-.847-1.533l17-27a1.04,1.04,0,0,1,1.694,0l17,27A1,1,0,0,1,54,31.01Zm-32.188-2H52.188L37,4.885Z" fill="#004274"/>
    <path id="Path_103" data-name="Path 103" d="M54,72a1,1,0,0,1-1-1V30.01a1,1,0,0,1,2,0V71A1,1,0,0,1,54,72Z" fill="#004274"/>
    <path id="Path_104" data-name="Path 104" d="M20,72a1,1,0,0,1-1-1V30.01a1,1,0,0,1,2,0V71A1,1,0,0,1,20,72Z" fill="#004274"/>
    <path id="Path_105" data-name="Path 105" d="M44.625,72H29.375a1,1,0,0,1-1-1V54.008a1,1,0,0,1,1-1h15.25a1,1,0,0,1,1,1V71A1,1,0,0,1,44.625,72Zm-14.25-2h13.25V55.008H30.375Z" fill="#00aeff"/>
  </g>
</svg>
