<svg xmlns="http://www.w3.org/2000/svg" width="61.982" height="70" viewBox="0 0 61.982 70">
  <g id="property4" transform="translate(-6.009 -2)">
    <path id="Path_129" data-name="Path 129" d="M61.01,44.8a1,1,0,0,1-1-1V40.89a1,1,0,0,1,2,0V43.8A1,1,0,0,1,61.01,44.8Z" fill="#004274"/>
    <path id="Path_130" data-name="Path 130" d="M61.01,72H12.99a1,1,0,0,1-1-1V10a1,1,0,0,1,.856-.99l48.02-7A1,1,0,0,1,62.01,3V23.92a1,1,0,0,1-2,0V4.156L13.99,10.865V70H60.01V50.8a1,1,0,0,1,2,0V71A1,1,0,0,1,61.01,72Z" fill="#004274"/>
    <path id="Path_131" data-name="Path 131" d="M61.01,34.89a1,1,0,0,1-1-1V30.92a1,1,0,1,1,2,0v2.97A1,1,0,0,1,61.01,34.89Z" fill="#004274"/>
    <path id="Path_132" data-name="Path 132" d="M66.991,72H7.009a1,1,0,0,1,0-2H66.991a1,1,0,0,1,0,2Z" fill="#004274"/>
    <path id="Path_133" data-name="Path 133" d="M53.67,21.991H47.679a1,1,0,0,1-1-1V16a1,1,0,0,1,1-1H53.67a1,1,0,0,1,1,1v4.991A1,1,0,0,1,53.67,21.991Zm-4.991-2H52.67V17H48.679Z" fill="#00aeff"/>
    <path id="Path_134" data-name="Path 134" d="M40,21.991H34.013a1,1,0,0,1-1-1V16a1,1,0,0,1,1-1H40a1,1,0,0,1,1,1v4.991A1,1,0,0,1,40,21.991Zm-4.991-2H39V17H35.013Z" fill="#00aeff"/>
    <path id="Path_135" data-name="Path 135" d="M26.338,21.991H20.347a1,1,0,0,1-1-1V16a1,1,0,0,1,1-1h5.991a1,1,0,0,1,1,1v4.991a1,1,0,0,1-1,1Zm-4.991-2h3.991V17H21.347Z" fill="#004274"/>
    <path id="Path_136" data-name="Path 136" d="M53.67,33.5H47.679a1,1,0,0,1-1-1v-5a1,1,0,0,1,1-1H53.67a1,1,0,0,1,1,1v5A1,1,0,0,1,53.67,33.5Zm-4.991-2H52.67v-3H48.679Z" fill="#004274"/>
    <path id="Path_137" data-name="Path 137" d="M40,33.5H34.013a1,1,0,0,1-1-1v-5a1,1,0,0,1,1-1H40a1,1,0,0,1,1,1v5A1,1,0,0,1,40,33.5Zm-4.991-2H39v-3H35.013Z" fill="#004274"/>
    <path id="Path_138" data-name="Path 138" d="M26.338,33.5H20.347a1,1,0,0,1-1-1v-5a1,1,0,0,1,1-1h5.991a1,1,0,0,1,1,1v5a1,1,0,0,1-1,1Zm-4.991-2h3.991v-3H21.347Z" fill="#00aeff"/>
    <path id="Path_139" data-name="Path 139" d="M53.67,45H47.679a1,1,0,0,1-1-1V39.009a1,1,0,0,1,1-1H53.67a1,1,0,0,1,1,1V44A1,1,0,0,1,53.67,45Zm-4.991-2H52.67V40.009H48.679Z" fill="#004274"/>
    <path id="Path_140" data-name="Path 140" d="M40,45H34.013a1,1,0,0,1-1-1V39.009a1,1,0,0,1,1-1H40a1,1,0,0,1,1,1V44A1,1,0,0,1,40,45Zm-4.991-2H39V40.009H35.013Z" fill="#004274"/>
    <path id="Path_141" data-name="Path 141" d="M26.338,45H20.347a1,1,0,0,1-1-1V39.009a1,1,0,0,1,1-1h5.991a1,1,0,0,1,1,1V44a1,1,0,0,1-1,1Zm-4.991-2h3.991V40.009H21.347Z" fill="#004274"/>
    <path id="Path_142" data-name="Path 142" d="M44.983,71.991H29.017a1,1,0,0,1-1-1V52.009a1,1,0,0,1,1-1H44.983a1,1,0,0,1,1,1V70.991A1,1,0,0,1,44.983,71.991Zm-14.966-2H43.983V53.009H30.017Z" fill="#004274"/>
  </g>
</svg>
