<svg xmlns="http://www.w3.org/2000/svg" width="61.41" height="69.999" viewBox="0 0 61.41 69.999">
  <g id="property3" transform="translate(-6.268 -2.011)">
    <path id="Path_116" data-name="Path 116" d="M61.25,72.01H12.75a1,1,0,0,1-1-1V44.09a1,1,0,0,1,2,0V70.01h46.5V44.09a1,1,0,1,1,2,0V71.01A1,1,0,0,1,61.25,72.01Z" fill="#004274"/>
    <path id="Path_117" data-name="Path 117" d="M66.68,49.123a.994.994,0,0,1-.6-.2L37,27.319,7.916,48.925a1,1,0,1,1-1.193-1.6L36.4,25.271a1,1,0,0,1,1.194,0L67.277,47.32a1,1,0,0,1-.6,1.8Z" fill="#004274"/>
    <path id="Path_118" data-name="Path 118" d="M16.47,42.32a1,1,0,0,1-1-1V18.7a1,1,0,0,1,2,0V41.32A1,1,0,0,1,16.47,42.32Z" fill="#004274"/>
    <path id="Path_119" data-name="Path 119" d="M57.53,42.32a1,1,0,0,1-1-1V18.7a1,1,0,1,1,2,0V41.32A1,1,0,0,1,57.53,42.32Z" fill="#004274"/>
    <path id="Path_120" data-name="Path 120" d="M50.549,14.36a1,1,0,0,1-.606-.205l-1.559-1.19a1,1,0,1,1,1.213-1.59l1.559,1.19a1,1,0,0,1-.607,1.8Z" fill="#004274"/>
    <path id="Path_121" data-name="Path 121" d="M11.881,23.21a1,1,0,0,1-.609-1.794l25.121-19.2a1,1,0,0,1,1.214,0l3.1,2.37a1,1,0,1,1-1.215,1.589L37,4.269,12.487,23a.991.991,0,0,1-.606.21Z" fill="#004274"/>
    <path id="Path_122" data-name="Path 122" d="M45.309,10.36a1,1,0,0,1-.6-.2l-1.54-1.17A1,1,0,0,1,44.378,7.4l1.54,1.169a1,1,0,0,1-.6,1.8Z" fill="#004274"/>
    <path id="Path_123" data-name="Path 123" d="M62.119,23.21a.991.991,0,0,1-.606-.21l-7.89-6.029a1,1,0,0,1,1.215-1.59l7.89,6.031a1,1,0,0,1-.609,1.794Z" fill="#004274"/>
    <path id="Path_124" data-name="Path 124" d="M47.667,24.667a1,1,0,0,1-1-1V21.01a1,1,0,1,1,2,0v2.657A1,1,0,0,1,47.667,24.667Z" fill="#00aeff"/>
    <path id="Path_125" data-name="Path 125" d="M26.333,24.667a1,1,0,0,1-1-1V21.01a1,1,0,1,1,2,0v2.657A1,1,0,0,1,26.333,24.667Z" fill="#00aeff"/>
    <path id="Path_126" data-name="Path 126" d="M50,53.328a1,1,0,0,1-1-1V47.672a1,1,0,0,1,2,0v4.656a1,1,0,0,1-1,1Z" fill="#00aeff"/>
    <path id="Path_127" data-name="Path 127" d="M24,53.328a1,1,0,0,1-1-1V47.672a1,1,0,0,1,2,0v4.656a1,1,0,0,1-1,1Z" fill="#00aeff"/>
    <path id="Path_128" data-name="Path 128" d="M43.762,72.01H30.238a1,1,0,0,1-1-1V61.772a7.762,7.762,0,1,1,15.524,0V71.01A1,1,0,0,1,43.762,72.01Zm-12.524-2H42.762V61.772a5.762,5.762,0,1,0-11.524,0Z" fill="#004274"/>
  </g>
</svg>
