<svg xmlns="http://www.w3.org/2000/svg" width="70" height="70" viewBox="0 0 70 70">
  <g id="property1" transform="translate(-1.999 -2)">
    <path id="Path_106" data-name="Path 106" d="M64,72H10a1,1,0,0,1-1-1V34.938a1,1,0,0,1,1-1H64a1,1,0,0,1,1,1V71A1,1,0,0,1,64,72ZM11,70H63V35.938H11Z" fill="#004274"/>
    <path id="Path_107" data-name="Path 107" d="M49.86,16.08a1,1,0,0,1-.684-.271l-2.12-1.99a1,1,0,1,1,1.369-1.458l2.12,1.99a1,1,0,0,1-.685,1.729Z" fill="#004274"/>
    <path id="Path_108" data-name="Path 108" d="M71,35.94H3a1,1,0,0,1-.685-1.729l34-31.94a1,1,0,0,1,1.37,0l5.639,5.3a1,1,0,1,1-1.369,1.457L37,4.372,5.525,33.94H68.476l-6.92-6.5a1,1,0,1,1,1.369-1.458l8.76,8.23A1,1,0,0,1,71,35.94Z" fill="#004274"/>
    <path id="Path_109" data-name="Path 109" d="M57.13,22.91a1,1,0,0,1-.685-.271l-2.16-2.031a1,1,0,0,1,1.369-1.457l2.16,2.031a1,1,0,0,1-.684,1.728Z" fill="#004274"/>
    <path id="Path_110" data-name="Path 110" d="M55.31,62H40.492a1,1,0,0,1-1-1V46.182a1,1,0,0,1,1-1H55.31a1,1,0,0,1,1,1V61A1,1,0,0,1,55.31,62ZM41.492,60H54.31V47.182H41.492Z" fill="#004274"/>
    <path id="Path_111" data-name="Path 111" d="M47.9,62a1,1,0,0,1-1-1V46.182a1,1,0,0,1,2,0V61A1,1,0,0,1,47.9,62Z" fill="#004274"/>
    <path id="Path_112" data-name="Path 112" d="M55.31,54.591H40.492a1,1,0,0,1,0-2H55.31a1,1,0,0,1,0,2Z" fill="#004274"/>
    <path id="Path_113" data-name="Path 113" d="M34.293,72H18.69a1,1,0,0,1-1-1V60.351a8.8,8.8,0,1,1,17.6,0V71a1,1,0,0,1-1,1Zm-14.6-2h13.6V60.351a6.8,6.8,0,0,0-13.6,0Z" fill="#004274"/>
    <path id="Path_114" data-name="Path 114" d="M37,28.562A5.562,5.562,0,1,1,42.562,23,5.562,5.562,0,0,1,37,28.562Zm0-9.124A3.562,3.562,0,1,0,40.562,23,3.562,3.562,0,0,0,37,19.438Z" fill="#00aeff"/>
    <path id="Path_115" data-name="Path 115" d="M15,24.67a1,1,0,0,1-1-1V4a1,1,0,0,1,1-1h9a1,1,0,0,1,1,1V15.21a1,1,0,0,1-2,0V5H16V23.67A1,1,0,0,1,15,24.67Z" fill="#004274"/>
  </g>
</svg>
