<svg xmlns="http://www.w3.org/2000/svg" width="86.487" height="74.903" viewBox="0 0 86.487 74.903">
  <g id="services2" transform="translate(0)">
    <path id="Path_4" data-name="Path 4" d="M48.849,244.241l7.2-11.761V202.885H30.433V232.48l7.2,11.761H0v5.068H86.487v-5.068Zm-5.606-14.531a7.652,7.652,0,0,0,7.6,1.573l-7.6,12.407-7.6-12.407a7.652,7.652,0,0,0,7.6-1.573Zm7.743-5.692a2.6,2.6,0,1,1-5.209,0V207.953h5.209ZM35.5,207.953H40.71v16.066a2.6,2.6,0,1,1-5.209,0Z" transform="translate(0 -174.406)" fill="#cbcbcb"/>
    <path id="Path_5" data-name="Path 5" d="M241,77.747h5.068V92.973H241Z" transform="translate(-200.29 -70.406)" fill="#cbcbcb"/>
    <path id="Path_6" data-name="Path 6" d="M114.144,51.684v5.172h5.068V51.684a17.415,17.415,0,0,0-17.4-17.4h-1.091v5.068h1.091A12.342,12.342,0,0,1,114.144,51.684Z" transform="translate(-83.711 -34.289)" fill="#cbcbcb"/>
    <path id="Path_7" data-name="Path 7" d="M306.906,51.684a12.342,12.342,0,0,1,12.328-12.328h1.091V34.289h-1.091a17.415,17.415,0,0,0-17.4,17.4v5.172h5.068Z" transform="translate(-250.851 -34.289)" fill="#cbcbcb"/>
    <path id="Path_8" data-name="Path 8" d="M21.3,151.947h5.068v-2.822h2.822v-5.068H26.365v-2.822H21.3v2.822H18.475v5.068H21.3Z" transform="translate(-15.354 -123.17)" fill="#cbcbcb"/>
    <path id="Path_9" data-name="Path 9" d="M113.01,208.067h5.068v5.068H113.01Z" transform="translate(-93.92 -178.712)" fill="#cbcbcb"/>
    <path id="Path_10" data-name="Path 10" d="M100.193,107.815h5.068v5.068h-5.068Z" transform="translate(-83.268 -95.395)" fill="#cbcbcb"/>
    <path id="Path_11" data-name="Path 11" d="M454.745,202.885h5.068v5.068h-5.068Z" transform="translate(-377.929 -174.406)" fill="#cbcbcb"/>
    <path id="Path_12" data-name="Path 12" d="M371.557,165.737h5.068V170.8h-5.068Z" transform="translate(-308.794 -143.533)" fill="#cbcbcb"/>
    <path id="Path_13" data-name="Path 13" d="M432.934,101.821H438V99h2.822V93.931H438V91.109h-5.068v2.822h-2.822V99h2.822Z" transform="translate(-357.457 -81.511)" fill="#cbcbcb"/>
  </g>
</svg>
