<svg xmlns="http://www.w3.org/2000/svg" width="98.423" height="90.428" viewBox="0 0 98.423 90.428">
  <g id="services1" transform="translate(-509 -1316)">
    <circle id="Ellipse_1" data-name="Ellipse 1" cx="45" cy="45" r="45" transform="translate(509 1316)" fill="#ffeee9"/>
    <g id="salad" transform="translate(529 1328)">
      <g id="Group_27" data-name="Group 27" transform="translate(0 49.673)">
        <g id="Group_26" data-name="Group 26" transform="translate(0)">
          <path id="Path_16" data-name="Path 16" d="M77.133,324.28H1.324a1.307,1.307,0,0,0-1.307,1.307,27.479,27.479,0,0,0,27.448,27.448H50.992A27.48,27.48,0,0,0,78.44,325.587,1.306,1.306,0,0,0,77.133,324.28ZM50.992,350.421H27.465a24.866,24.866,0,0,1-24.8-23.527H75.792A24.865,24.865,0,0,1,50.992,350.421Z" transform="translate(-0.017 -324.28)" fill="#fe5f41"/>
        </g>
      </g>
      <g id="Group_29" data-name="Group 29" transform="translate(27.448 0)">
        <g id="Group_28" data-name="Group 28">
          <path id="Path_17" data-name="Path 17" d="M218.419,18.313c0-.1,0-.191-.01-.336a5.428,5.428,0,0,0-3.658-4.615l1.48-1.48a7,7,0,0,0,.578-9.373,6.871,6.871,0,0,0-9.66-.935c-.166.137-.327.282-.488.443l-1.608,1.631A5.455,5.455,0,0,0,200.4.009a5.224,5.224,0,0,0-5.5,4.942c-.005.1-.007.191-.007.285v2a5.2,5.2,0,0,0-2.609-.7c-.094,0-.191,0-.336.01a5.417,5.417,0,0,0-4.9,5.445V13.77a5.211,5.211,0,0,0-2.609-.7c-.094,0-.189,0-.335.01a5.417,5.417,0,0,0-4.9,5.445V37.911a1.307,1.307,0,0,0,1.307,1.307h22.22a5.224,5.224,0,0,0,4.525-7.84h1.766a5.41,5.41,0,0,0,5.471-4.95,5.2,5.2,0,0,0-.715-2.925,5.228,5.228,0,0,0,4.642-5.19Zm-3.381,1.846a2.6,2.6,0,0,1-1.848.762h-3.925a1.307,1.307,0,1,0,0,2.614l.144,0a2.609,2.609,0,0,1,2.476,2.7,2.786,2.786,0,0,1-2.841,2.525H202.73a1.307,1.307,0,0,0,0,2.614,2.614,2.614,0,1,1,0,5.228H181.817v-18.1a2.788,2.788,0,0,1,2.476-2.815l.142,0a2.616,2.616,0,0,1,2.61,2.61V18.3a1.306,1.306,0,0,0,1.306,1.307h0a1.307,1.307,0,0,0,1.307-1.306h0V11.97a2.788,2.788,0,0,1,2.476-2.815l.141,0a2.619,2.619,0,0,1,2.612,2.613v.008a1.306,1.306,0,0,0,1.306,1.307h0a1.307,1.307,0,0,0,1.307-1.306h0V5.236l0-.145a2.591,2.591,0,0,1,2.7-2.476,2.8,2.8,0,0,1,2.525,2.844V6.544a1.306,1.306,0,0,0,2.238.916l3.546-3.6c.1-.1.2-.186.3-.271a4.25,4.25,0,0,1,5.964.559,4.39,4.39,0,0,1-.383,5.873l-3.438,3.438a1.307,1.307,0,0,0,.924,2.231h1.154a2.785,2.785,0,0,1,2.768,2.476l0,.144A2.6,2.6,0,0,1,215.038,20.158Z" transform="translate(-179.202 -0.001)" fill="#fe5f41"/>
        </g>
      </g>
      <g id="Group_31" data-name="Group 31" transform="translate(19.991 8.228)">
        <g id="Group_30" data-name="Group 30" transform="translate(0 0)">
          <rect id="Rectangle_7" data-name="Rectangle 7" width="51.756" height="2.614" transform="translate(0 36.597) rotate(-45)" fill="#fe5f41"/>
        </g>
      </g>
      <g id="Group_33" data-name="Group 33" transform="translate(48.358 10.469)">
        <g id="Group_32" data-name="Group 32">
          <rect id="Rectangle_8" data-name="Rectangle 8" width="2.614" height="6.535" fill="#fe5f41"/>
        </g>
      </g>
      <g id="Group_35" data-name="Group 35" transform="translate(40.516 17.005)">
        <g id="Group_34" data-name="Group 34">
          <rect id="Rectangle_9" data-name="Rectangle 9" width="2.614" height="7.842" fill="#fe5f41"/>
        </g>
      </g>
      <g id="Group_37" data-name="Group 37" transform="translate(32.674 23.527)">
        <g id="Group_36" data-name="Group 36">
          <rect id="Rectangle_10" data-name="Rectangle 10" width="2.614" height="9.149" fill="#fe5f41"/>
        </g>
      </g>
      <g id="Group_39" data-name="Group 39" transform="translate(49.665 15.698)">
        <g id="Group_38" data-name="Group 38">
          <rect id="Rectangle_11" data-name="Rectangle 11" width="6.535" height="2.614" fill="#fe5f41"/>
        </g>
      </g>
      <g id="Group_41" data-name="Group 41" transform="translate(41.823 23.527)">
        <g id="Group_40" data-name="Group 40">
          <rect id="Rectangle_12" data-name="Rectangle 12" width="7.842" height="2.614" fill="#fe5f41"/>
        </g>
      </g>
      <g id="Group_43" data-name="Group 43" transform="translate(33.981 31.369)">
        <g id="Group_42" data-name="Group 42">
          <rect id="Rectangle_13" data-name="Rectangle 13" width="9.149" height="2.614" fill="#fe5f41"/>
        </g>
      </g>
      <g id="Group_45" data-name="Group 45" transform="translate(4.733 2.978)">
        <g id="Group_44" data-name="Group 44">
          <path id="Path_18" data-name="Path 18" d="M50.579,22.51l-.005-.008a6.031,6.031,0,0,0-8.353-1.668c-.086.056-.171.116-.268.188l-.471.358-.452-.326a6.013,6.013,0,1,0-7.164,9.57l1.1.86v.669a6.535,6.535,0,1,0,13.069,0v-.669l1.157-.9A6.017,6.017,0,0,0,50.579,22.51Zm-2.981,6-1.673,1.307a1.308,1.308,0,0,0-.5,1.03v1.307a3.921,3.921,0,1,1-7.842,0V30.848a1.3,1.3,0,0,0-.5-1.03l-1.673-1.307a1.287,1.287,0,0,0-.158-.106,3.4,3.4,0,1,1,4.041-5.4,1.378,1.378,0,0,0,.142.119l1.307.941a1.306,1.306,0,0,0,1.554-.02l1.378-1.036a3.38,3.38,0,0,1,3.928,5.5Z" transform="translate(-30.916 -19.441)" fill="#fe5f41"/>
        </g>
      </g>
      <g id="Group_47" data-name="Group 47" transform="translate(28.753 1.307)">
        <g id="Group_46" data-name="Group 46">
          <rect id="Rectangle_14" data-name="Rectangle 14" width="2.614" height="2.614" fill="#fe5f41"/>
        </g>
      </g>
      <g id="Group_49" data-name="Group 49" transform="translate(36.595 43.133)">
        <g id="Group_48" data-name="Group 48">
          <rect id="Rectangle_15" data-name="Rectangle 15" width="2.614" height="2.614" fill="#fe5f41"/>
        </g>
      </g>
      <g id="Group_51" data-name="Group 51" transform="translate(70.581 7.849)">
        <g id="Group_50" data-name="Group 50">
          <path id="Path_19" data-name="Path 19" d="M460.787,51.24v2.614a2.614,2.614,0,1,1,0,5.228V61.7a5.228,5.228,0,1,0,0-10.456Z" transform="translate(-460.787 -51.24)" fill="#fe5f41"/>
        </g>
      </g>
      <g id="Group_53" data-name="Group 53" transform="translate(2.612 19.619)">
        <g id="Group_52" data-name="Group 52">
          <rect id="Rectangle_16" data-name="Rectangle 16" width="2.614" height="2.614" fill="#fe5f41"/>
        </g>
      </g>
      <g id="Group_55" data-name="Group 55" transform="translate(0 14.391)">
        <g id="Group_54" data-name="Group 54">
          <rect id="Rectangle_17" data-name="Rectangle 17" width="2.614" height="2.614" fill="#fe5f41"/>
        </g>
      </g>
      <g id="Group_57" data-name="Group 57" transform="translate(45.747 41.831)">
        <g id="Group_56" data-name="Group 56">
          <path id="Path_20" data-name="Path 20" d="M303.892,273.083a5.234,5.234,0,0,0-5.228,5.228h2.614a2.614,2.614,0,1,1,5.228,0h2.614A5.234,5.234,0,0,0,303.892,273.083Z" transform="translate(-298.664 -273.083)" fill="#fe5f41"/>
        </g>
      </g>
      <g id="Group_59" data-name="Group 59" transform="translate(0 26.146)">
        <g id="Group_58" data-name="Group 58" transform="translate(0)">
          <path id="Path_21" data-name="Path 21" d="M15.7,174.611h-.165a5.23,5.23,0,0,0-10.127,0H5.246a5.228,5.228,0,1,0,0,10.456H15.7a5.228,5.228,0,1,0,0-10.456Zm0,7.844H5.246a2.614,2.614,0,1,1,0-5.228H6.553a1.308,1.308,0,0,0,1.307-1.307,2.614,2.614,0,0,1,5.228,0,1.308,1.308,0,0,0,1.307,1.307H15.7a2.614,2.614,0,1,1,0,5.228Z" transform="translate(-0.018 -170.69)" fill="#fe5f41"/>
        </g>
      </g>
      <g id="Group_61" data-name="Group 61" transform="translate(6.535 37.91)">
        <g id="Group_60" data-name="Group 60">
          <path id="Path_22" data-name="Path 22" d="M49.216,247.485H43.988a1.308,1.308,0,0,0-1.307,1.307v5.228a1.307,1.307,0,0,0,1.307,1.307h5.228a1.307,1.307,0,0,0,1.307-1.307v-5.228A1.308,1.308,0,0,0,49.216,247.485Zm-1.307,5.228H45.3V250.1h2.614v2.614Z" transform="translate(-42.681 -247.485)" fill="#fe5f41"/>
        </g>
      </g>
      <g id="Group_63" data-name="Group 63" transform="translate(65.353 33.989)">
        <g id="Group_62" data-name="Group 62">
          <path id="Path_23" data-name="Path 23" d="M430.577,221.887a3.921,3.921,0,1,0,3.921,3.921A3.926,3.926,0,0,0,430.577,221.887Zm0,5.229a1.307,1.307,0,1,1,1.307-1.307A1.308,1.308,0,0,1,430.577,227.116Z" transform="translate(-426.656 -221.887)" fill="#fe5f41"/>
        </g>
      </g>
      <g id="Group_65" data-name="Group 65" transform="translate(60.125 28.76)">
        <g id="Group_64" data-name="Group 64">
          <path id="Path_24" data-name="Path 24" d="M401.674,187.756a9.149,9.149,0,1,0,9.149,9.149A9.16,9.16,0,0,0,401.674,187.756Zm0,15.686a6.535,6.535,0,1,1,6.535-6.535A6.543,6.543,0,0,1,401.674,203.442Z" transform="translate(-392.525 -187.756)" fill="#fe5f41"/>
        </g>
      </g>
    </g>
  </g>
</svg>
