<svg xmlns="http://www.w3.org/2000/svg" width="57" height="57" viewBox="0 0 57 57">
  <g id="services6" transform="translate(0)">
    <g id="XMLID_803_" transform="translate(0 0)">
      <path id="XMLID_804_" d="M57,19.5a6.314,6.314,0,0,0-5.173-6.2l1.387-1.387a5.834,5.834,0,0,0,.18-8.079,5.746,5.746,0,0,0-8.238-.115L43.7,5.173a6.3,6.3,0,0,0-12.37-.166l-.187.889A6.042,6.042,0,0,0,19.591,8.978l.416,3.571-.126-.126A6.019,6.019,0,0,0,9.7,18.023l1.505,6.2a7.211,7.211,0,0,0-9.588,9.119L7.111,48.315.326,55.1A1.113,1.113,0,1,0,1.9,56.674l6.785-6.785,2.221.815a1.113,1.113,0,0,0,.767-2.09l-1.253-.46,4.26-4.26,7.345,3.314a1.113,1.113,0,0,0,.916-2.03L16.364,42.21l7.124-7.124,10.438,3.689a1.113,1.113,0,1,0,.742-2.1l-9.435-3.334,6-6,8.258,2.625a1.113,1.113,0,0,0,.675-2.122l-7.16-2.276,5.547-5.546,5.354.747a1.13,1.13,0,0,0,.155.011,1.113,1.113,0,0,0,.153-2.216l-3.689-.515,1.9-1.9a1.113,1.113,0,0,0-1.575-1.575l-1.9,1.9-.515-3.689a1.113,1.113,0,1,0-2.205.308l.747,5.354-5.547,5.546-2.276-7.16a1.113,1.113,0,1,0-2.122.675l2.625,8.258-6,6-3.334-9.435a1.113,1.113,0,0,0-2.1.742l3.689,10.438L14.79,40.636l-2.967-6.578a1.113,1.113,0,1,0-2.03.916l3.314,7.345-4.26,4.26-5.137-14a4.98,4.98,0,0,1,8.444-4.972,1.113,1.113,0,0,0,1.925-.99L11.866,17.5a3.8,3.8,0,0,1,2.558-4.515A3.867,3.867,0,0,1,18.306,14l2.39,2.39a1.113,1.113,0,0,0,1.893-.916L21.8,8.721A3.82,3.82,0,0,1,25.671,4.46a3.925,3.925,0,0,1,3.615,2.822l1,3.352a1.113,1.113,0,0,0,2.156-.09L33.51,5.465a4.077,4.077,0,0,1,8.066.838,1.716,1.716,0,0,0,2.93,1.214l2.225-2.225a3.491,3.491,0,0,1,2.487-1.031h.05a3.5,3.5,0,0,1,2.509,1.1,3.593,3.593,0,0,1-.138,4.974l-2.157,2.157a1.716,1.716,0,0,0,1.214,2.93,4.077,4.077,0,0,1,.838,8.066l-5.079,1.067a1.113,1.113,0,0,0-.09,2.156l3.352,1a3.925,3.925,0,0,1,2.822,3.615A3.82,3.82,0,0,1,48.28,35.2l-6.75-.786a1.113,1.113,0,0,0-.916,1.893l2.464,2.464a3.788,3.788,0,0,1,.691,4.417,3.885,3.885,0,0,1-4.358,1.927l-9.028-2.19a1.113,1.113,0,0,0-.99,1.925,4.98,4.98,0,0,1-4.972,8.444l-3.339-1.225a1.113,1.113,0,1,0-.767,2.09l3.339,1.225a7.211,7.211,0,0,0,9.119-9.588l6.112,1.483a6.019,6.019,0,0,0,5.767-10.083l-.2-.2,3.571.416A6.041,6.041,0,0,0,51.1,25.856l.889-.187A6.33,6.33,0,0,0,57,19.5Z" transform="translate(0 0)" fill="#00880f"/>
      <path id="XMLID_835_" d="M135.115,451.56a1.446,1.446,0,1,0,1.022.424A1.453,1.453,0,0,0,135.115,451.56Z" transform="translate(-118.969 -403.295)" fill="#00880f"/>
    </g>
  </g>
</svg>
