<svg id="services1" xmlns="http://www.w3.org/2000/svg" xmlns:xlink="http://www.w3.org/1999/xlink" width="45.399" height="45.398" viewBox="0 0 45.399 45.398">
  <defs>
    <linearGradient id="linear-gradient" x1="0.5" x2="0.5" y2="1" gradientUnits="objectBoundingBox">
      <stop offset="0" stop-color="#ff4495"/>
      <stop offset="1" stop-color="#ff6d6d"/>
    </linearGradient>
  </defs>
  <path id="Path_14" data-name="Path 14" d="M44.407,13.18l-.615-.615-.007-.007L33.845,2.617h0L33.223,2a3.4,3.4,0,0,0-4.8,0L20.969,9.452a3.4,3.4,0,0,0,0,4.8l.087.087-2.627,2.62c-1.135,1.135-2.138,2.166-3.062,3.146q-.657.688-1.308,1.388c-1.487,1.593-2.949,3.224-4.364,4.87q-.278.323-.554.646c-2.714,3.176-5.353,6.489-7.84,9.846l-.161.215A5.9,5.9,0,0,0,1.7,44.7a5.892,5.892,0,0,0,7.633.561l.207-.155c3.331-2.459,6.611-5.069,9.744-7.757l.03-.023c2.4-2.036,4.773-4.174,7.056-6.357l.014-.015c1.026-.977,2.053-1.978,3.055-2.98l2.62-2.626.088.088a3.4,3.4,0,0,0,4.8,0l7.456-7.456A3.4,3.4,0,0,0,44.407,13.18Zm-2.227-.086-3.814,3.814a.127.127,0,0,1-.173,0l-8.7-8.7a.127.127,0,0,1-.036-.086.122.122,0,0,1,.036-.086l3.814-3.814,4.453,4.453ZM8.642,43.891l-.208.156a4.345,4.345,0,0,1-6.081-6.075l.161-.216c2.23-3.009,4.58-5.979,7-8.846a16.647,16.647,0,0,0,3.4,4.717,16.966,16.966,0,0,0,4.522,3.31C14.593,39.343,11.642,41.678,8.642,43.891ZM28.375,26.9c-1,1-2.021,2-3.045,2.97h0l0,0c-1.972,1.88-4.006,3.725-6.059,5.5l-.183.157-.388.333a15.5,15.5,0,0,1-4.714-3.308,15.21,15.21,0,0,1-3.389-4.919l.171-.2.409-.474.443-.509.253-.289q.293-.334.588-.666l.136-.154q.34-.382.682-.761l.068-.076q.352-.39.707-.778l.067-.073q.313-.342.627-.681l.169-.183.377-.4q.583-.624,1.171-1.24l.013-.015c.915-.969,1.9-1.986,3.024-3.106l2.628-2.621L31,24.276Zm14.963-10-7.456,7.456a1.881,1.881,0,0,1-2.658,0l-.6-.6-.022-.025L22.663,13.8c-.01-.01-.021-.019-.032-.029l-.592-.592a1.882,1.882,0,0,1,0-2.658L29.5,3.067a1.882,1.882,0,0,1,2.657,0l.087.087L28.425,6.967a1.635,1.635,0,0,0,0,2.313l8.7,8.7a1.635,1.635,0,0,0,2.314,0l3.814-3.814.087.087A1.882,1.882,0,0,1,43.337,16.908Z" transform="translate(0 -1.004)" fill="url(#linear-gradient)"/>
  <path id="Path_15" data-name="Path 15" d="M291.334,136.043a.757.757,0,0,0-1.07,1.07l3.106,3.107a.757.757,0,1,0,1.07-1.07Z" transform="translate(-264.324 -123.867)" fill="url(#linear-gradient)"/>
  <path id="Path_16" data-name="Path 16" d="M354.391,199.1a.757.757,0,0,0-1.07,1.071l.621.621a.757.757,0,0,0,1.07-1.071Z" transform="translate(-321.79 -181.335)" fill="url(#linear-gradient)"/>
  <path id="Path_17" data-name="Path 17" d="M191.173,228.2a7.384,7.384,0,0,0-4.943,4.943,2.987,2.987,0,0,0,.607,2.947,2.659,2.659,0,0,0,1.933.737,6.134,6.134,0,0,0,4.107-1.98c2.043-2.043,2.587-4.7,1.243-6.041A2.986,2.986,0,0,0,191.173,228.2Zm.633,5.578c-1.515,1.515-3.272,1.87-3.9,1.243a1.588,1.588,0,0,1-.209-1.509,5.888,5.888,0,0,1,3.843-3.842,2.658,2.658,0,0,1,.643-.085,1.2,1.2,0,0,1,.867.294C193.677,230.509,193.322,232.265,191.807,233.781Z" transform="translate(-169.595 -207.936)" fill="url(#linear-gradient)"/>
</svg>
