<svg id="services2" xmlns="http://www.w3.org/2000/svg" width="64.816" height="64.715" viewBox="0 0 64.816 64.715">
  <path id="Path_132" data-name="Path 132" d="M37.617,224.832a12.659,12.659,0,0,1-10.011-12.379V200.538a12.659,12.659,0,0,1,12.659-12.659h-7.6a12.659,12.659,0,0,0-12.659,12.659v11.916a12.659,12.659,0,0,0,10.011,12.379l6.366,1.362a5.988,5.988,0,0,0,4.321-.7Z" transform="translate(-17.478 -164.146)" fill="#e8e8e8"/>
  <path id="Path_133" data-name="Path 133" d="M44.631,211.394a8.569,8.569,0,0,1-8.551-8.567,3.673,3.673,0,1,0-7.342-.008A8.565,8.565,0,0,1,18.381,211.2l-6.366-1.362A15.274,15.274,0,0,1,0,194.986V183.071A15.208,15.208,0,0,1,15.192,167.88h7.089a2.532,2.532,0,0,1,0,5.064H15.192A10.139,10.139,0,0,0,5.065,183.071v11.916a10.179,10.179,0,0,0,8.009,9.9l6.366,1.362a3.5,3.5,0,0,0,4.234-3.424,8.736,8.736,0,1,1,17.469-.008,3.5,3.5,0,0,0,4.234,3.432l6.366-1.362a10.179,10.179,0,0,0,8.009-9.9V183.071a10.139,10.139,0,0,0-10.127-10.127H42.536a2.532,2.532,0,0,1,0-5.064h7.089a15.208,15.208,0,0,1,15.191,15.191v11.916A15.274,15.274,0,0,1,52.8,209.841L46.436,211.2a8.638,8.638,0,0,1-1.805.192ZM25.319,187.5a7.6,7.6,0,0,0-7.6-7.6c-10.077.417-10.073,14.775,0,15.191A7.6,7.6,0,0,0,25.319,187.5Zm-5.064,0a2.532,2.532,0,1,1-2.532-2.532A2.535,2.535,0,0,1,20.256,187.5Zm34.432,0a7.6,7.6,0,0,0-7.6-7.6c-10.077.417-10.073,14.775,0,15.191A7.6,7.6,0,0,0,54.688,187.5Zm-5.064,0a2.532,2.532,0,1,1-2.532-2.532A2.535,2.535,0,0,1,49.624,187.5Z" transform="translate(0 -146.679)" fill="#171717"/>
  <path id="Path_134" data-name="Path 134" d="M69.559,16.982C60.538.613,36.278-3.969,20.173,4.715A30.247,30.247,0,0,0,7.058,16.981a2.532,2.532,0,1,0,4.458,2.4c4.1-7.611,13.838-13.1,24.259-13.888L35.767,24.13A2.532,2.532,0,0,0,38.3,26.663h0a2.532,2.532,0,0,0,2.532-2.531l.008-18.643C51.251,6.256,61,11.752,65.1,19.381a2.532,2.532,0,0,0,4.459-2.4Z" transform="translate(-5.899 -0.398)" fill="red"/>
</svg>
