<svg xmlns="http://www.w3.org/2000/svg" width="75" height="75" viewBox="0 0 75 75">
  <g id="services2" transform="translate(-787 -2586)">
    <rect id="Rectangle_18" data-name="Rectangle 18" width="75" height="75" rx="5" transform="translate(787 2586)" fill="#ff6d21" opacity="0.06"/>
    <g id="XMLID_1583_" transform="translate(802 2601)">
      <g id="XMLID_1007_" transform="translate(0 0)">
        <path id="XMLID_1090_" d="M37.2,16.608a4.794,4.794,0,0,0-4.709-8.156l-3.811-6.6A3.444,3.444,0,0,0,22.5,4.84L17.318,9.618a.9.9,0,0,0,1.218,1.32l4.853-4.478L34.374,25.488l-20.612,6.42L7.523,21.1,12.6,16.42a.9.9,0,0,0-1.218-1.32L6.32,19.767a3.176,3.176,0,0,0-.847-.365A3.164,3.164,0,0,0,1.914,24.04l.412.714A5.714,5.714,0,0,0,5.719,35.065,5.653,5.653,0,0,0,8,34.583l.412.714a3.143,3.143,0,0,0,1.921,1.474,3.182,3.182,0,0,0,.824.109A3.168,3.168,0,0,0,13.764,35.5l5.6,9.708a1.774,1.774,0,0,0,2.422.649l4.136-2.388a1.773,1.773,0,0,0,.26-2.888l-3.005-2.547L19.668,31.95l15.665-4.879a3.444,3.444,0,0,0,5.68-3.863ZM4.7,33.133a3.914,3.914,0,0,1-1.465-6.81l3.863,6.691a3.886,3.886,0,0,1-2.4.119Zm7.777.936a1.367,1.367,0,0,1-2.5.33l-6.5-11.257A1.368,1.368,0,0,1,4.651,21.09a1.376,1.376,0,0,1,.356.047,1.358,1.358,0,0,1,.83.637l6.5,11.257a1.358,1.358,0,0,1,.137,1.038Zm9.229,5a.9.9,0,0,0,.2.236L25,41.931,20.912,44.29,14.684,33.5l3.225-1ZM36.666,11.48a3,3,0,0,1-.388,3.527l-2.86-4.954A3,3,0,0,1,36.666,11.48Zm2.956,13.876a1.648,1.648,0,0,1-3.019.4L24.273,4.4A1.648,1.648,0,1,1,27.127,2.75l12.33,21.356a1.638,1.638,0,0,1,.165,1.25Z" transform="translate(-0.001 -0.128)" fill="#ff6d21"/>
        <path id="XMLID_1243_" d="M442.526,75.819a.9.9,0,0,0,.448-.121l3.034-1.752a.9.9,0,0,0-.9-1.556l-3.034,1.752a.9.9,0,0,0,.45,1.676Z" transform="translate(-401.957 -65.79)" fill="#ff6d21"/>
        <path id="XMLID_1251_" d="M393.39,13.71a.9.9,0,0,0,1.1-.635l.929-3.467a.9.9,0,0,0-1.735-.465l-.929,3.467A.9.9,0,0,0,393.39,13.71Z" transform="translate(-357.446 -7.728)" fill="#ff6d21"/>
        <path id="XMLID_1308_" d="M459.57,157.49l-3.31-.887a.9.9,0,0,0-.465,1.735l3.31.887a.9.9,0,0,0,.465-1.735Z" transform="translate(-414.246 -142.52)" fill="#ff6d21"/>
        <path id="XMLID_1362_" d="M157.4,135.438a.9.9,0,1,0-.635-.263A.905.905,0,0,0,157.4,135.438Z" transform="translate(-142.441 -121.648)" fill="#ff6d21"/>
      </g>
    </g>
  </g>
</svg>
