<svg id="services4" xmlns="http://www.w3.org/2000/svg" width="79.897" height="74.903" viewBox="0 0 79.897 74.903">
  <path id="Path_15" data-name="Path 15" d="M75.158,53.835A35.157,35.157,0,0,0,57.5,25.363h8.756a7.022,7.022,0,1,0,0-4.681H46.971V16H32.926v4.681H13.642a7.023,7.023,0,1,0,0,4.68H22.4A35.16,35.16,0,0,0,4.739,53.835a7.02,7.02,0,1,0,4.687.041,30.674,30.674,0,0,1,23.5-27.7v3.867H46.971V26.177a30.674,30.674,0,0,1,23.5,27.7,7.025,7.025,0,1,0,4.687-.041ZM7.022,62.815a2.341,2.341,0,1,1,2.341-2.341A2.343,2.343,0,0,1,7.022,62.815ZM72.875,20.681a2.341,2.341,0,1,1-2.341,2.341A2.343,2.343,0,0,1,72.875,20.681ZM7.022,25.363a2.341,2.341,0,1,1,2.341-2.341A2.343,2.343,0,0,1,7.022,25.363Zm35.267,0H37.608V20.681h4.681ZM72.875,62.815a2.341,2.341,0,1,1,2.341-2.341A2.343,2.343,0,0,1,72.875,62.815Z" transform="translate(0 -16)" fill="#cbcbcb"/>
  <path id="Path_16" data-name="Path 16" d="M165.614,121.845,148.9,149.7l8.244,16.488h-7.916v14.044H182V166.187h-7.916l8.244-16.488Zm11.7,53.7H153.91v-4.681h23.407Zm-14.939-9.363L154.238,149.9l9.035-15.059v17.3h4.681v-17.3L176.99,149.9l-8.141,16.283Z" transform="translate(-125.665 -105.328)" fill="#cbcbcb"/>
</svg>
