<svg xmlns="http://www.w3.org/2000/svg" width="96" height="96" viewBox="0 0 96 96">
  <g id="services1" transform="translate(-464 -2361)">
    <circle id="Ellipse_23" data-name="Ellipse 23" cx="48" cy="48" r="48" transform="translate(464 2361)" fill="#1cb230" opacity="0.06"/>
    <path id="bush" d="M49.851,17.528a32.779,32.779,0,0,0-5.034-8.647C40.234,3.237,34.427,0,28.886,0S17.539,3.237,12.956,8.881a32.773,32.773,0,0,0-5.034,8.647A26.618,26.618,0,0,0,6,27.189a17.94,17.94,0,0,0,7.274,14.862,25.976,25.976,0,0,0,15.612,4.821,27.829,27.829,0,0,0,11.666-2.465,1.831,1.831,0,1,0-1.544-3.32,23.573,23.573,0,0,1-8.3,2.06V33.78a15.234,15.234,0,0,0,7.762-2.925,11.353,11.353,0,0,0,4.512-9.342,1.831,1.831,0,0,0-3.662,0c0,5.3-4.083,8.019-8.612,8.584V22.151c3.509-.487,6.69-2.856,6.69-6.957a1.831,1.831,0,0,0-3.662,0c0,2.011-1.56,2.914-3.028,3.239v-3.51a1.831,1.831,0,0,0-3.662,0v9.564a3.843,3.843,0,0,1-3.2-3.8,1.831,1.831,0,0,0-3.662,0,7.213,7.213,0,0,0,2.8,5.82,9.023,9.023,0,0,0,4.055,1.725v7.285c-5.066-.541-9.7-3.488-9.7-9.337a1.831,1.831,0,0,0-3.662,0A11.974,11.974,0,0,0,18.539,36.1a16.514,16.514,0,0,0,8.51,3.1v3.947C18.356,42.522,9.662,37.47,9.662,27.189c0-5.286,2.294-11.267,6.137-16,3.885-4.784,8.655-7.528,13.088-7.528s9.2,2.744,13.088,7.528c3.843,4.732,6.137,10.713,6.137,16a14.688,14.688,0,0,1-2.544,8.567,1.831,1.831,0,0,0,3.006,2.091,18.278,18.278,0,0,0,3.2-10.658,26.618,26.618,0,0,0-1.922-9.661Z" transform="translate(483 2386)" fill="#1cb230"/>
  </g>
</svg>
