<svg xmlns="http://www.w3.org/2000/svg" width="64.812" height="64.827" viewBox="0 0 64.812 64.827">
  <g id="services1" transform="translate(0)">
    <path id="Path_126" data-name="Path 126" d="M53.73,79.115a3.41,3.41,0,0,1-2.092.724H48.226A3.1,3.1,0,0,1,45,76.927c0-10.708-4.56-9.747-4.56-9.747v-5.7a8.62,8.62,0,0,1,8.69-8.608h1.609a8.635,8.635,0,0,1,2.993.448,8.693,8.693,0,0,0-5.7,8.16v3.544s4.56,5.19,4.56,11.9A2.748,2.748,0,0,0,53.73,79.115ZM27.658,70.971l0-42.008a8.82,8.82,0,0,1,5.06-8.008l-.032-.015A8.859,8.859,0,0,0,20.06,28.963l0,42.008A8.859,8.859,0,0,0,32.662,79l.057-.026A8.821,8.821,0,0,1,27.658,70.971Z" transform="translate(-17.528 -17.546)" fill="#e8e8e8"/>
    <path id="Path_127" data-name="Path 127" d="M34.17,64.824H30.758A5.615,5.615,0,0,1,25,59.381a10.485,10.485,0,0,0-3.588-7.753,2.464,2.464,0,0,1-.972-1.994v-5.7A11.2,11.2,0,0,1,31.659,32.8h1.609A11.2,11.2,0,0,1,44.49,43.937v5.7a2.464,2.464,0,0,1-.972,1.994,10.484,10.484,0,0,0-3.588,7.753A5.615,5.615,0,0,1,34.17,64.824ZM25.5,48.527a15.579,15.579,0,0,1,4.56,10.854c0,.146.319.38.7.38h3.411c.378,0,.7-.233.7-.38a15.579,15.579,0,0,1,4.56-10.854v-4.59a6.124,6.124,0,0,0-6.158-6.076H31.659A6.124,6.124,0,0,0,25.5,43.937v4.59Zm34.091,14.51a11.344,11.344,0,0,0,5.275-9.612l0-42.008A11.428,11.428,0,0,0,48.638,1.1a37.124,37.124,0,0,1-32.345,0A11.39,11.39,0,0,0,.06,11.418l0,42.008a11.39,11.39,0,0,0,16.2,10.327s1.715-.8,2.551-1.122A2.532,2.532,0,0,0,17,57.9c-1,.385-2.875,1.26-2.875,1.26a6.327,6.327,0,0,1-9-5.739l0-42.008a6.344,6.344,0,0,1,9.014-5.731,42.189,42.189,0,0,0,36.655,0,6.207,6.207,0,0,1,6.075.384,6.3,6.3,0,0,1,2.939,5.347l0,42.008a6.327,6.327,0,0,1-9,5.739c-.945-.441-1.911-.853-2.872-1.225a2.532,2.532,0,0,0-1.827,4.722c.856.331,1.716.7,2.558,1.091a11.329,11.329,0,0,0,10.926-.715Z" transform="translate(-0.06 0)" fill="#171717"/>
    <path id="Path_128" data-name="Path 128" d="M198.266,128.839a8.238,8.238,0,0,1-8.228-8.228c.452-10.916,16.006-10.913,16.457,0A8.238,8.238,0,0,1,198.266,128.839Zm0-11.393a3.165,3.165,0,1,0,3.165,3.165A3.168,3.168,0,0,0,198.266,117.446Z" transform="translate(-165.989 -98.193)" fill="#e30"/>
  </g>
</svg>
