<svg xmlns="http://www.w3.org/2000/svg" width="78" height="78" viewBox="0 0 78 78">
  <g id="services3" transform="translate(-335 -1174)">
    <circle id="Ellipse_8" data-name="Ellipse 8" cx="39" cy="39" r="39" transform="translate(335 1174)" fill="#1a1c1e"/>
    <g id="video-player" transform="translate(354.555 1193.554)">
      <path id="Path_40" data-name="Path 40" d="M45.238,71.112H43.586a.556.556,0,1,1,0-1.112h1.652a.556.556,0,1,1,0,1.112Z" transform="translate(-20.212 -32.184)" fill="#fff"/>
      <path id="Path_41" data-name="Path 41" d="M39.26,40.929H30.918a.556.556,0,1,1,0-1.112H39.26a.556.556,0,0,0,.556-.556V3.668a.556.556,0,0,0-.556-.556H3.668a.556.556,0,0,0-.556.556V39.26a.556.556,0,0,0,.556.556H15.975a.556.556,0,1,1,0,1.112H3.668A1.668,1.668,0,0,1,2,39.26V3.668A1.668,1.668,0,0,1,3.668,2H39.26a1.668,1.668,0,0,1,1.668,1.668V39.26A1.668,1.668,0,0,1,39.26,40.929Z" transform="translate(-2 -2)" fill="#fff"/>
      <path id="Path_42" data-name="Path 42" d="M35.3,71.112H33.686a.556.556,0,1,1,0-1.112H35.3a.556.556,0,1,1,0,1.112Z" transform="translate(-15.818 -32.184)" fill="#fff"/>
      <path id="Path_43" data-name="Path 43" d="M40.373,18.112H2.556a.556.556,0,1,1,0-1.112H40.373a.556.556,0,1,1,0,1.112Z" transform="translate(-2 -8.658)" fill="#fff"/>
      <path id="Path_44" data-name="Path 44" d="M61.025,10.872a1.845,1.845,0,1,1,1.842-1.845,1.845,1.845,0,0,1-1.842,1.845Zm0-2.577a.732.732,0,1,0,.73.732.732.732,0,0,0-.73-.732Z" transform="translate(-27.38 -4.301)" fill="#fff"/>
      <path id="Path_45" data-name="Path 45" d="M51.361,10.872a1.845,1.845,0,1,1,1.845-1.845,1.845,1.845,0,0,1-1.845,1.845Zm0-2.577a.732.732,0,1,0,.732.732A.732.732,0,0,0,51.361,8.3Z" transform="translate(-23.091 -4.301)" fill="#fff"/>
      <path id="Path_46" data-name="Path 46" d="M41.7,10.872a1.845,1.845,0,1,1,1.845-1.845A1.845,1.845,0,0,1,41.7,10.872Zm0-2.577a.732.732,0,1,0,.732.732A.732.732,0,0,0,41.7,8.3Z" transform="translate(-18.802 -4.301)" fill="#fff"/>
      <path id="Path_47" data-name="Path 47" d="M22.276,10.612H8.744a.556.556,0,1,1,0-1.112H22.276a.556.556,0,0,1,0,1.112Z" transform="translate(-4.747 -5.329)" fill="#fff"/>
      <path id="Path_48" data-name="Path 48" d="M37.224,46.087H17.76a2.183,2.183,0,0,1-2.18-2.18V32.542a2.183,2.183,0,0,1,2.18-2.18H37.224a2.183,2.183,0,0,1,2.18,2.18V43.907A2.183,2.183,0,0,1,37.224,46.087ZM17.76,31.474a1.069,1.069,0,0,0-1.068,1.068V43.907a1.069,1.069,0,0,0,1.068,1.068H37.224a1.069,1.069,0,0,0,1.068-1.068V32.542a1.069,1.069,0,0,0-1.068-1.068Z" transform="translate(-8.028 -14.589)" fill="#fff"/>
      <path id="Path_49" data-name="Path 49" d="M32.018,45.311a1.454,1.454,0,0,1-.717-.191,1.439,1.439,0,0,1-.739-1.267v-5.1a1.455,1.455,0,0,1,2.2-1.248l4.249,2.549a1.456,1.456,0,0,1,0,2.5L32.766,45.1A1.449,1.449,0,0,1,32.018,45.311Zm0-6.9a.351.351,0,0,0-.171.046.334.334,0,0,0-.175.3v5.1a.344.344,0,0,0,.52.294L36.442,41.6a.344.344,0,0,0,0-.589L32.2,38.46a.334.334,0,0,0-.176-.048Z" transform="translate(-14.678 -17.668)" fill="#fff"/>
    </g>
  </g>
</svg>
