<svg id="services2" xmlns="http://www.w3.org/2000/svg" width="48.073" height="51.413" viewBox="0 0 48.073 51.413">
  <path id="Path_15" data-name="Path 15" d="M97.542,72.378h17.532V60.41H97.542Zm3.012-8.957h11.509v5.945H100.554Z" transform="translate(-89.42 -54.346)" fill="#e61818"/>
  <path id="Path_16" data-name="Path 16" d="M60.19,28.209h-.458A1.508,1.508,0,0,1,58.226,26.7v-6.15h3.99V15.032a5.5,5.5,0,0,0-3.989-5.283V5.255L61.688,2.65,59.877.244,55.216,3.753v6a5.5,5.5,0,0,0-3.989,5.283v5.521h3.988V26.7a4.523,4.523,0,0,0,4.517,4.517h.458A1.508,1.508,0,0,1,61.7,32.727v11.86a3.815,3.815,0,0,1-7.63,0v-1.3a4.523,4.523,0,0,0-4.517-4.517H48.312V4.517A4.523,4.523,0,0,0,43.794,0H23.25a4.523,4.523,0,0,0-4.517,4.517V6.3h-2.1V9.311h2.1v4.2h-2.1v3.012h2.1V51.4H48.312V41.783h1.236a1.508,1.508,0,0,1,1.506,1.506v1.3a6.827,6.827,0,0,0,13.654,0V32.727a4.523,4.523,0,0,0-4.518-4.517ZM54.238,15.032a2.483,2.483,0,1,1,4.966,0v2.51H54.238v-2.51ZM45.3,48.387H21.745V4.517A1.508,1.508,0,0,1,23.25,3.012H43.794A1.508,1.508,0,0,1,45.3,4.517v43.87Z" transform="translate(-16.634)" fill="#e61818"/>
  <path id="Path_17" data-name="Path 17" d="M144.25,247.5l-4.81-14.342-4.794,14.294a5.78,5.78,0,0,0-.275,1.649,5.069,5.069,0,1,0,10.138,0A6.4,6.4,0,0,0,144.25,247.5Zm-4.81,3.658a2.059,2.059,0,0,1-2.057-2.055,5.063,5.063,0,0,1,.137-.748l1.921-5.726,1.92,5.725a5.168,5.168,0,0,1,.137.746A2.06,2.06,0,0,1,139.44,251.161Z" transform="translate(-122.552 -209.754)" fill="#e61818"/>
</svg>
