<svg xmlns="http://www.w3.org/2000/svg" width="57" height="57" viewBox="0 0 57 57">
  <g id="services2" transform="translate(0 0)">
    <g id="Group_4" data-name="Group 4">
      <path id="Path_18" data-name="Path 18" d="M53.672,48.928h-12.9V42.423A9,9,0,0,0,48.649,33.5V12.207A8.995,8.995,0,0,0,31.278,8.934q-.366-.4-.771-.763,0-.134,0-.268a7.9,7.9,0,0,0-15.805,0q0,.134,0,.268a11.8,11.8,0,0,0-3.542,11.553A14.258,14.258,0,0,0,21.5,42.448V45.5a5.355,5.355,0,0,0-4.537-1.176,6.293,6.293,0,0,0-9.849.843,4.887,4.887,0,0,0-4.7,3.894A3.334,3.334,0,0,0,0,52.256v3.63A1.113,1.113,0,0,0,1.113,57H23.467a1.113,1.113,0,1,0,0-2.227H2.227V52.256a1.1,1.1,0,0,1,1.1-1.1H53.672a1.1,1.1,0,0,1,1.1,1.1v2.517H33.533a1.113,1.113,0,1,0,0,2.227H55.887A1.113,1.113,0,0,0,57,55.887v-3.63A3.332,3.332,0,0,0,53.672,48.928ZM32.3,38.678a8.915,8.915,0,0,0,6.241,3.745v6.5H23.722v-6.48A14.207,14.207,0,0,0,32.3,38.678ZM39.658,5.443a6.772,6.772,0,0,1,6.764,6.764V33.5a6.775,6.775,0,0,1-5.651,6.673v-8.6l2.954-2.954a1.113,1.113,0,0,0-1.575-1.575l-1.38,1.38V19.132a1.113,1.113,0,0,0-2.227,0V40.174a6.712,6.712,0,0,1-4.687-3.19,14.245,14.245,0,0,0,.191-17.261,11.827,11.827,0,0,0-1.091-8.448,6.745,6.745,0,0,1,6.7-5.833ZM10.578,28.234a12.058,12.058,0,0,1,2.676-7.566,1.113,1.113,0,0,0,.2-1.019,9.568,9.568,0,0,1,3.11-10.137,1.113,1.113,0,0,0,.4-.983,5.775,5.775,0,0,1-.034-.626,5.676,5.676,0,0,1,11.352,0,5.784,5.784,0,0,1-.034.626,1.113,1.113,0,0,0,.4.983,9.568,9.568,0,0,1,3.11,10.137,1.113,1.113,0,0,0,.2,1.019,12.032,12.032,0,0,1-8.241,19.545V33.535l4.312-4.312a1.113,1.113,0,0,0-1.575-1.574l-2.737,2.737V24.06l3.353-3.353A1.113,1.113,0,0,0,25.5,19.132l-1.779,1.779V13.4a1.113,1.113,0,0,0-2.227,0v7.514l-1.779-1.779a1.113,1.113,0,0,0-1.575,1.575L21.5,24.06v6.327l-2.737-2.737a1.113,1.113,0,1,0-1.575,1.574L21.5,33.535v6.678a12.048,12.048,0,0,1-10.918-11.98Zm-5.8,20.694A2.652,2.652,0,0,1,7.57,47.418a1.112,1.112,0,0,0,1.155-.6,4.067,4.067,0,0,1,6.936-.573,1.113,1.113,0,0,0,1.285.391,3.13,3.13,0,0,1,4.138,2.3Z" transform="translate(0 0)" fill="#00880f"/>
      <path id="Path_19" data-name="Path 19" d="M249.015,492.909a1.465,1.465,0,1,0-.54,1.778A1.479,1.479,0,0,0,249.015,492.909Z" transform="translate(-219.142 -437.934)" fill="#00880f"/>
    </g>
  </g>
</svg>
