<svg xmlns="http://www.w3.org/2000/svg" width="63.443" height="57" viewBox="0 0 63.443 57">
  <g id="services1" transform="translate(0 0)">
    <path id="Path_16" data-name="Path 16" d="M62.2,80.522H59.26a9.186,9.186,0,0,0-16.176-7.53c-.185-.058-.374-.106-.564-.146V67.5a10.863,10.863,0,0,0,9.608-10.776V56A14.868,14.868,0,0,0,31.215,34.885a4.49,4.49,0,0,0-2.874-1.055h-1.75a4.362,4.362,0,0,0-3.228-3.005,6.833,6.833,0,0,0-13.251.768H9.375a5.589,5.589,0,1,0,0,11.178h4.367a1.239,1.239,0,1,0,0-2.478H9.375a3.111,3.111,0,0,1,0-6.222h1.864a1.239,1.239,0,0,0,1.239-1.239,4.354,4.354,0,0,1,8.655-.678A1.237,1.237,0,0,0,22.381,33.2h.044a1.87,1.87,0,0,1,1.868,1.868,1.239,1.239,0,0,0,1.239,1.239h2.809a1.972,1.972,0,0,1,1.194.4,14.717,14.717,0,0,0-2.058,3.584H24.894a1.239,1.239,0,0,0,0,2.478h1.834A14.875,14.875,0,0,0,30.433,56v.728A10.863,10.863,0,0,0,40.042,67.5v5.343a6,6,0,0,0-4.483,7.678H21.87a4.893,4.893,0,0,0,1.005-2.975,11.4,11.4,0,0,0-.963-4.93c.791-.189,1.572-.409,2.337-.66l.074-.027A1.958,1.958,0,0,0,25.4,70.916a2.185,2.185,0,0,0-.658-2.7,18.389,18.389,0,0,1-2.875-2.607q.389-.1.78-.232a1.236,1.236,0,0,0,.127-.049,1.963,1.963,0,0,0,1.03-1,2.181,2.181,0,0,0-.662-2.694,14.975,14.975,0,0,1-2.9-2.674,6.966,6.966,0,0,0,2.115-1c.026-.018.05-.037.074-.057a2.048,2.048,0,0,0,.674-.957,2.144,2.144,0,0,0-.974-2.614c-2.6-1.334-3.953-3.9-4.763-5.441-.451-.855-1.133-2.146-2.611-2.146s-2.16,1.292-2.611,2.146c-.8,1.525-2.15,4.074-4.714,5.415a1.993,1.993,0,0,0-.934.952,2.185,2.185,0,0,0,.658,2.7,6.966,6.966,0,0,0,2.114,1A14.964,14.964,0,0,1,6.447,61.58a2.078,2.078,0,0,0-.894,1.313,2.116,2.116,0,0,0,1.316,2.481q.392.128.78.232a18.485,18.485,0,0,1-2.835,2.578,2.061,2.061,0,0,0-.86,1.291,2.195,2.195,0,0,0,.656,2.1,14.506,14.506,0,0,0-.839,5.171A5.693,5.693,0,0,0,5.2,80.522H1.239a1.239,1.239,0,1,0,0,2.478H62.2a1.239,1.239,0,1,0,0-2.478Zm-29.292-23.8V55.494a1.239,1.239,0,0,0-.366-.879,12.391,12.391,0,1,1,17.47,0,1.239,1.239,0,0,0-.366.879v1.231A8.382,8.382,0,0,1,42.521,65V59.865l2.774-2.774a1.239,1.239,0,0,0-1.752-1.753L42.521,56.36V47.188a1.239,1.239,0,0,0-2.478,0V50.8l-1.126-1.126a1.239,1.239,0,0,0-1.753,1.752L40.042,54.3V65A8.382,8.382,0,0,1,32.912,56.724Zm4.845,21.992a3.528,3.528,0,0,1,3.524-3.524,3.48,3.48,0,0,1,1.656.413,1.239,1.239,0,0,0,1.632-.433,6.708,6.708,0,0,1,12.146,5.349H38.257A3.477,3.477,0,0,1,37.758,78.716ZM9.49,69.913c1.571,0,3.24,2.4,3.24,6.834a3.24,3.24,0,0,1-6.48,0C6.25,72.308,7.919,69.913,9.49,69.913Zm9.945,3.315a8.072,8.072,0,0,1,.962,4.318,2.441,2.441,0,1,1-4.881,0c0-3.72,1.427-5.394,2.441-5.394A1.929,1.929,0,0,1,19.435,73.228ZM12.5,58.7a1.239,1.239,0,0,0-.987-1.883,5.832,5.832,0,0,1-2.441-.59,14.8,14.8,0,0,0,5.271-6.182,6.562,6.562,0,0,1,.42-.713,6.591,6.591,0,0,1,.42.713,14.8,14.8,0,0,0,5.27,6.182,5.835,5.835,0,0,1-2.44.59,1.239,1.239,0,0,0-.987,1.883,16.875,16.875,0,0,0,4.123,4.538,11.437,11.437,0,0,1-1.755.316,1.239,1.239,0,0,0-.827,2.027,27.741,27.741,0,0,0,4.2,4.248c-.838.249-1.695.457-2.558.626a3.771,3.771,0,0,0-2.245-.778,3.962,3.962,0,0,0-2.842,1.3q-.5.006-1-.005c-1.111-2.4-2.91-3.538-4.627-3.538-.054,0-.109,0-.163.005.57-.613,1.112-1.241,1.63-1.862a1.239,1.239,0,0,0-.827-2.027,11.443,11.443,0,0,1-1.755-.316A16.888,16.888,0,0,0,12.5,58.7Zm1.424,21.658c.039.056.079.112.121.166H13.78C13.828,80.467,13.876,80.412,13.922,80.356Z" transform="translate(0 -26)" fill="#00880f"/>
    <path id="Path_17" data-name="Path 17" d="M148.833,142.81a1.464,1.464,0,0,0-1.464-1.464h0a1.464,1.464,0,1,0,1.465,1.464Z" transform="translate(-127.958 -127.171)" fill="#00880f"/>
  </g>
</svg>
