<svg id="services3" xmlns="http://www.w3.org/2000/svg" width="57.742" height="57.742" viewBox="0 0 57.742 57.742">
  <g id="Group_7" data-name="Group 7" transform="translate(0 0)">
    <g id="Group_6" data-name="Group 6">
      <path id="Path_20" data-name="Path 20" d="M56.614,340.638h-4.6c3.1-3.47,2.115-9.893,2.072-10.165a1.2,1.2,0,0,0-.912-1.02c-.243-.049-5.984-1.15-9.085,2.319a7.325,7.325,0,0,0-1.127,1.71,7.328,7.328,0,0,0-1.127-1.71c-3.1-3.469-8.842-2.368-9.085-2.319a1.2,1.2,0,0,0-.912,1.02c-.043.272-1.027,6.7,2.072,10.165H23.828c3.1-3.47,2.115-9.893,2.072-10.165a1.2,1.2,0,0,0-.912-1.02c-.243-.049-5.984-1.15-9.085,2.319a7.325,7.325,0,0,0-1.127,1.71,7.328,7.328,0,0,0-1.127-1.71c-3.1-3.469-8.842-2.368-9.085-2.319a1.2,1.2,0,0,0-.912,1.02c-.043.272-1.027,6.7,2.072,10.165h-4.6A1.2,1.2,0,0,0,0,341.9v9.15a1.2,1.2,0,0,0,1.128,1.262H23.773a1.27,1.27,0,0,0,0-2.524H2.255v-6.626H55.486v6.626H33.969a1.27,1.27,0,0,0,0,2.524H56.614a1.2,1.2,0,0,0,1.128-1.262V341.9A1.2,1.2,0,0,0,56.614,340.638Zm-4.65-8.808c.125,1.65.152,5.127-1.543,7.025a6.528,6.528,0,0,1-4.714,1.779L48.6,337.4a1.371,1.371,0,0,0,0-1.785,1.045,1.045,0,0,0-1.595,0L44.1,338.865c.039-1.736.363-3.935,1.59-5.308C47.382,331.659,50.49,331.69,51.964,331.83Zm-16.455,7.025c-1.7-1.9-1.668-5.387-1.543-7.033,1.7-.164,4.69-.041,6.277,1.735,1.3,1.45,1.585,3.823,1.594,5.6q0,.107,0,.212c0,.462-.025.877-.05,1.215-.3.029-.676.053-1.092.056h-.215c-1.582-.014-3.683-.343-4.97-1.784Zm-18.01-5.3c1.7-1.9,4.815-1.867,6.284-1.727.147,1.907.037,5.248-1.551,7.024-1.293,1.447-3.407,1.772-4.991,1.784h-.178c-.422,0-.8-.027-1.108-.056-.026-.34-.047-.758-.05-1.224q0-.1,0-.2c.008-1.775.3-4.152,1.594-5.6ZM5.778,331.83c1.474-.139,4.582-.171,6.277,1.727,1.207,1.351,1.541,3.5,1.588,5.225l-2.976-3.33a1.045,1.045,0,0,0-1.595,0,1.371,1.371,0,0,0,0,1.785l3.039,3.4a6.687,6.687,0,0,1-4.79-1.783C5.625,336.956,5.653,333.478,5.778,331.83Z" transform="translate(0 -294.571)" fill="#00880f"/>
      <path id="Path_21" data-name="Path 21" d="M248.621,492.784a1.262,1.262,0,1,0-.449,1.519A1.273,1.273,0,0,0,248.621,492.784Z" transform="translate(-218.564 -436.787)" fill="#00880f"/>
      <path id="Path_22" data-name="Path 22" d="M148.721,242.843a3.974,3.974,0,0,0,3.962-3.978c0-1.926-2.4-4.157-3.135-4.8a1.262,1.262,0,0,0-1.654,0c-.735.638-3.135,2.869-3.135,4.8A3.974,3.974,0,0,0,148.721,242.843Zm0-6.074a5.269,5.269,0,0,1,1.437,2.1,1.438,1.438,0,1,1-2.876,0A5.3,5.3,0,0,1,148.722,236.769Z" transform="translate(-128.705 -207.912)" fill="#00880f"/>
      <path id="Path_23" data-name="Path 23" d="M171.97,27.2a1.262,1.262,0,0,0,.961.862l12.935,2.547,1.112,1.151a4.637,4.637,0,0,0,3.319,1.426h.042a4.636,4.636,0,0,0,3.3-1.368l8.638-8.638a4.671,4.671,0,0,0-.058-6.662l-4.928-4.759,2.573-2.573a1.262,1.262,0,0,0,0-1.785L192.837.371a1.262,1.262,0,0,0-1.785,0L188.326,3.1l-.993-.959a1.262,1.262,0,0,0-1.769.015L172.615,15.1a1.262,1.262,0,0,0-.015,1.769l3.157,3.268-4.269.571a1.262,1.262,0,0,0-1.037,1.627ZM191.945,3.048l5.243,5.243L195.477,10l-5.335-5.152Zm-5.473,1.768,13.995,13.516a2.147,2.147,0,0,1,.026,3.062l-8.638,8.638a2.13,2.13,0,0,1-1.517.629h-.019A2.131,2.131,0,0,1,188.794,30L175.277,16.01ZM177.935,22.4,182.8,27.43l-8.643-1.7-.849-2.715Z" transform="translate(-153.602 -0.001)" fill="#00880f"/>
    </g>
  </g>
</svg>
