<svg xmlns="http://www.w3.org/2000/svg" width="50.456" height="51.399" viewBox="0 0 50.456 51.399">
  <path id="services1" d="M53.647,48.387H49.239L38.1,16.025H51.2v3.018a1.506,1.506,0,0,0,3.012,0V14.519s0,0,0-.007a1.505,1.505,0,0,0-.582-1.183L36.846.316A1.506,1.506,0,0,0,35.923,0H23.9a1.506,1.506,0,0,0-.923.316L6.217,13.33a1.505,1.505,0,0,0-.582,1.182s0,0,0,.007v4.524a1.506,1.506,0,1,0,3.012,0V16.025h13.1L10.611,48.387H6.2a1.506,1.506,0,1,0,0,3.012H53.647a1.506,1.506,0,1,0,0-3.012Zm-9.029-4.17L32.055,31.654l6.129-6.129Zm-19.25-31.2v-10h9.114v10Zm12.126,0V4.629l10.816,8.384Zm-15.137-8.4v8.4H11.536ZM34.914,16.025l2.179,6.331-7.168,7.168-6.669-6.668a1.5,1.5,0,0,0-.551-.349l2.231-6.481h9.977Zm-13.247,9.5L27.8,31.654,15.232,44.217Zm8.259,8.259,14.6,14.6H15.321Z" transform="translate(-4.697)" fill="#e61818"/>
</svg>
