<svg id="services3" xmlns="http://www.w3.org/2000/svg" width="44.053" height="44.189" viewBox="0 0 44.053 44.189">
  <path id="Path_52" data-name="Path 52" d="M40.509,45.973H21.629A.629.629,0,0,1,21,45.344V8.213a.629.629,0,0,1,.223-.48A25.224,25.224,0,0,1,40.568,1.92a.629.629,0,0,1,.571.629V45.344A.629.629,0,0,1,40.509,45.973ZM22.259,44.715H39.88V3.128a23.9,23.9,0,0,0-17.621,5.38Z" transform="translate(-9.043 -1.784)" fill="#fff"/>
  <path id="Path_53" data-name="Path 53" d="M40.51,31.514a.629.629,0,0,1-.274-.063l-18.88-9.125a.629.629,0,0,1,0-1.133l18.88-9.125a.629.629,0,0,1,.548,1.133L23.077,21.759l17.706,8.559a.629.629,0,0,1-.274,1.2Z" transform="translate(-9.043 -5.575)" fill="#fff"/>
  <path id="Path_54" data-name="Path 54" d="M40.51,60.514a.629.629,0,0,1-.274-.063l-18.88-9.125a.629.629,0,0,1,0-1.133l18.88-9.125a.629.629,0,0,1,.548,1.133L23.077,50.759l17.706,8.559a.629.629,0,0,1-.274,1.2Z" transform="translate(-9.043 -16.325)" fill="#fff"/>
  <path id="Path_55" data-name="Path 55" d="M15.7,56.061H5.629A.629.629,0,0,1,5,55.432v-25.8A.629.629,0,0,1,5.629,29H15.7a.629.629,0,0,1,.629.629v25.8A.629.629,0,0,1,15.7,56.061ZM6.259,54.8h8.811V30.259H6.259Z" transform="translate(-3.112 -11.872)" fill="#fff"/>
  <path id="Path_56" data-name="Path 56" d="M14.587,30.259H2.629a.629.629,0,1,1,0-1.259H14.587a.629.629,0,0,1,0,1.259Z" transform="translate(-2 -11.872)" fill="#fff"/>
  <path id="Path_57" data-name="Path 57" d="M67.629,57.6A.629.629,0,0,1,67,56.968V55.1a.629.629,0,0,1,1.259,0v1.869A.629.629,0,0,1,67.629,57.6Z" transform="translate(-26.093 -21.313)" fill="#fff"/>
  <path id="Path_58" data-name="Path 58" d="M67.629,47.65A.629.629,0,0,1,67,47.021V45.189a.629.629,0,0,1,1.259,0v1.831A.629.629,0,0,1,67.629,47.65Z" transform="translate(-26.093 -17.64)" fill="#fff"/>
  <path id="Path_59" data-name="Path 59" d="M61.7,56.061H51.629A.629.629,0,0,1,51,55.432v-25.8A.629.629,0,0,1,51.629,29H61.7a.629.629,0,0,1,.629.629v5.387a.629.629,0,0,1-1.259,0V30.259H52.259V54.8h8.811v-2.87a.629.629,0,0,1,1.259,0v3.5A.629.629,0,0,1,61.7,56.061Z" transform="translate(-20.163 -11.872)" fill="#fff"/>
  <path id="Path_60" data-name="Path 60" d="M63.587,30.259H51.629a.629.629,0,0,1,0-1.259H63.587a.629.629,0,0,1,0,1.259Z" transform="translate(-20.163 -11.872)" fill="#fff"/>
  <path id="Path_61" data-name="Path 61" d="M62.879,38.491a.629.629,0,0,1-.629-.629v-.733a.629.629,0,1,1,1.259,0v.733A.629.629,0,0,1,62.879,38.491Z" transform="translate(-24.333 -14.652)" fill="#fff"/>
  <path id="Path_62" data-name="Path 62" d="M56.629,38.491A.629.629,0,0,1,56,37.862v-.733a.629.629,0,0,1,1.259,0v.733A.629.629,0,0,1,56.629,38.491Z" transform="translate(-22.016 -14.652)" fill="#fff"/>
  <path id="Path_63" data-name="Path 63" d="M62.879,44.7a.629.629,0,0,1-.629-.629v-.733a.629.629,0,1,1,1.259,0v.733A.629.629,0,0,1,62.879,44.7Z" transform="translate(-24.333 -16.954)" fill="#fff"/>
  <path id="Path_64" data-name="Path 64" d="M56.629,44.7A.629.629,0,0,1,56,44.071v-.733a.629.629,0,0,1,1.259,0v.733A.629.629,0,0,1,56.629,44.7Z" transform="translate(-22.016 -16.954)" fill="#fff"/>
  <path id="Path_65" data-name="Path 65" d="M62.879,50.909a.629.629,0,0,1-.629-.629v-.733a.629.629,0,0,1,1.259,0v.733A.629.629,0,0,1,62.879,50.909Z" transform="translate(-24.333 -19.255)" fill="#fff"/>
  <path id="Path_66" data-name="Path 66" d="M56.629,50.909A.629.629,0,0,1,56,50.28v-.733a.629.629,0,0,1,1.259,0v.733A.629.629,0,0,1,56.629,50.909Z" transform="translate(-22.016 -19.255)" fill="#fff"/>
  <path id="Path_67" data-name="Path 67" d="M62.879,57.118a.629.629,0,0,1-.629-.629v-.733a.629.629,0,1,1,1.259,0v.733A.629.629,0,0,1,62.879,57.118Z" transform="translate(-24.333 -21.557)" fill="#fff"/>
  <path id="Path_68" data-name="Path 68" d="M56.629,57.118A.629.629,0,0,1,56,56.489v-.733a.629.629,0,1,1,1.259,0v.733A.629.629,0,0,1,56.629,57.118Z" transform="translate(-22.016 -21.557)" fill="#fff"/>
  <path id="Path_69" data-name="Path 69" d="M62.879,63.327a.629.629,0,0,1-.629-.629v-.733a.629.629,0,0,1,1.259,0V62.7A.629.629,0,0,1,62.879,63.327Z" transform="translate(-24.333 -23.858)" fill="#fff"/>
  <path id="Path_70" data-name="Path 70" d="M56.629,63.327A.629.629,0,0,1,56,62.7v-.733a.629.629,0,0,1,1.259,0V62.7A.629.629,0,0,1,56.629,63.327Z" transform="translate(-22.016 -23.858)" fill="#fff"/>
  <path id="Path_71" data-name="Path 71" d="M10.379,38.491a.629.629,0,0,1-.629-.629v-.733a.629.629,0,0,1,1.259,0v.733A.629.629,0,0,1,10.379,38.491Z" transform="translate(-4.873 -14.652)" fill="#fff"/>
  <path id="Path_72" data-name="Path 72" d="M16.629,38.491A.629.629,0,0,1,16,37.862v-.733a.629.629,0,0,1,1.259,0v.733A.629.629,0,0,1,16.629,38.491Z" transform="translate(-7.189 -14.652)" fill="#fff"/>
  <path id="Path_73" data-name="Path 73" d="M10.379,44.7a.629.629,0,0,1-.629-.629v-.733a.629.629,0,1,1,1.259,0v.733A.629.629,0,0,1,10.379,44.7Z" transform="translate(-4.873 -16.954)" fill="#fff"/>
  <path id="Path_74" data-name="Path 74" d="M16.629,44.7A.629.629,0,0,1,16,44.071v-.733a.629.629,0,0,1,1.259,0v.733A.629.629,0,0,1,16.629,44.7Z" transform="translate(-7.189 -16.954)" fill="#fff"/>
  <path id="Path_75" data-name="Path 75" d="M10.379,50.909a.629.629,0,0,1-.629-.629v-.733a.629.629,0,0,1,1.259,0v.733A.629.629,0,0,1,10.379,50.909Z" transform="translate(-4.873 -19.255)" fill="#fff"/>
  <path id="Path_76" data-name="Path 76" d="M16.629,50.909A.629.629,0,0,1,16,50.28v-.733a.629.629,0,0,1,1.259,0v.733A.629.629,0,0,1,16.629,50.909Z" transform="translate(-7.189 -19.255)" fill="#fff"/>
  <path id="Path_77" data-name="Path 77" d="M10.379,57.118a.629.629,0,0,1-.629-.629v-.733a.629.629,0,1,1,1.259,0v.733A.629.629,0,0,1,10.379,57.118Z" transform="translate(-4.873 -21.557)" fill="#fff"/>
  <path id="Path_78" data-name="Path 78" d="M16.629,57.118A.629.629,0,0,1,16,56.489v-.733a.629.629,0,1,1,1.259,0v.733A.629.629,0,0,1,16.629,57.118Z" transform="translate(-7.189 -21.557)" fill="#fff"/>
  <path id="Path_79" data-name="Path 79" d="M10.379,63.327A.629.629,0,0,1,9.75,62.7v-.733a.629.629,0,0,1,1.259,0V62.7A.629.629,0,0,1,10.379,63.327Z" transform="translate(-4.873 -23.858)" fill="#fff"/>
  <path id="Path_80" data-name="Path 80" d="M16.629,63.327A.629.629,0,0,1,16,62.7v-.733a.629.629,0,0,1,1.259,0V62.7A.629.629,0,0,1,16.629,63.327Z" transform="translate(-7.189 -23.858)" fill="#fff"/>
</svg>
