<svg xmlns="http://www.w3.org/2000/svg" width="75" height="75" viewBox="0 0 75 75">
  <g id="services1" transform="translate(-331 -2586)">
    <rect id="Rectangle_16" data-name="Rectangle 16" width="75" height="75" rx="5" transform="translate(331 2586)" fill="#ff6d21" opacity="0.06"/>
    <g id="web-design" transform="translate(347.89 2601)">
      <path id="Path_13" data-name="Path 13" d="M62.4,5.981h-.546a3.932,3.932,0,0,0-6.624-4.235L52.4,5.981H28.059A3.633,3.633,0,0,0,24.43,9.61v23.2a3.633,3.633,0,0,0,3.629,3.629h14.1l-1.065,4.473h-2.3a2.72,2.72,0,0,0-2.717,2.717V44.2H33.24a.9.9,0,0,0,0,1.8H57.224a.9.9,0,1,0,0-1.8H54.39v-.567a2.72,2.72,0,0,0-2.717-2.717h-2.3L48.31,36.439H62.4a3.633,3.633,0,0,0,3.629-3.629V9.61A3.633,3.633,0,0,0,62.4,5.981ZM49.534,21.773c-1.4.983-4.036-.353-6.548.988-.613-3.185-.227-6.18,2.965-6.841a5.718,5.718,0,0,1,1.234-.117l3.25,2.411A2.9,2.9,0,0,1,49.534,21.773Zm.905-9.628,2.543,1.887-1.955,2.384-2.3-1.708Zm6.289-9.4a2.135,2.135,0,1,1,3.425,2.541L54.123,12.64,51.439,10.65ZM52.593,43.629V44.2H37.87v-.567a.921.921,0,0,1,.92-.92H51.673a.921.921,0,0,1,.92.92Zm-5.066-2.717H42.936L44,36.439h2.462Zm16.709-8.1A1.834,1.834,0,0,1,62.4,34.642H28.059a1.834,1.834,0,0,1-1.832-1.832V28.6h2.567a.9.9,0,1,0,0-1.8H26.226V9.61a1.834,1.834,0,0,1,1.832-1.832H51.2L47.033,14a6.138,6.138,0,0,0-4.668,1.972c-1.566,1.828-1.841,4.7-.818,8.535a.9.9,0,0,0,1.489.418c2.323-2.219,5.215.2,7.806-1.9A4.7,4.7,0,0,0,52.2,17.816L60.434,7.778H62.4A1.834,1.834,0,0,1,64.237,9.61v17.2H35.98a.9.9,0,1,0,0,1.8H64.237Z" transform="translate(-24.43 0)" fill="#ff6d21"/>
      <path id="Path_14" data-name="Path 14" d="M103.757,298.441a.9.9,0,1,0,1.056.705A.9.9,0,0,0,103.757,298.441Z" transform="translate(-95.974 -271.617)" fill="#ff6d21"/>
    </g>
  </g>
</svg>
