<svg id="services3" xmlns="http://www.w3.org/2000/svg" width="62.517" height="57.001" viewBox="0 0 62.517 57.001">
  <path id="Path_711" data-name="Path 711" d="M62.517,25.947a3.362,3.362,0,0,0-3.358-3.358H45.789a.916.916,0,0,0,0,1.832h13.37a1.528,1.528,0,0,1,1.526,1.526V60.092H1.832V25.947a1.528,1.528,0,0,1,1.526-1.526h38.28a.916.916,0,1,0,0-1.832H3.358A3.362,3.362,0,0,0,0,25.947V66.7A3.362,3.362,0,0,0,3.358,70.06H23.014L22,77.758H20a.916.916,0,0,0,0,1.832H42.52a.916.916,0,0,0,0-1.832h-2L40.25,75.7a.916.916,0,1,0-1.816.24l.24,1.814H23.843l1.019-7.7h1.83A4.632,4.632,0,0,0,31.259,73.8a4.692,4.692,0,0,0,4.564-3.741h1.833l.237,1.788a.916.916,0,0,0,.907.8.928.928,0,0,0,.121-.008.916.916,0,0,0,.788-1.028l-.2-1.547H59.159A3.362,3.362,0,0,0,62.517,66.7ZM31.259,71.969a2.812,2.812,0,0,1-2.676-1.909h5.346A2.847,2.847,0,0,1,31.259,71.969ZM60.686,66.7a1.528,1.528,0,0,1-1.526,1.526H3.358A1.528,1.528,0,0,1,1.832,66.7V61.924H60.686Z" transform="translate(0 -22.589)" fill="#ff9100"/>
  <path id="Path_712" data-name="Path 712" d="M254.355,104H270.7a.916.916,0,0,0,.9-.737l2.983-14.951h1.136a.916.916,0,0,0,0-1.832h-1.887a.916.916,0,0,0-.9.737l-.515,2.582L253.336,91.2a.916.916,0,0,0-.815,1.16l2.285,8.182a.916.916,0,0,0,.882.669h14.446l-.19.952h-15.59a2.5,2.5,0,1,0,0,5h.791a2.992,2.992,0,1,0,5.515,0h4.925a2.992,2.992,0,1,0,5.515,0h.9a.916.916,0,1,0,0-1.832H254.355a.67.67,0,1,1,0-1.341Zm2.029-4.615-1.8-6.435,17.455-1.286L270.5,99.381Zm1.52,10.109a1.16,1.16,0,1,1,1.16-1.16A1.162,1.162,0,0,1,257.9,109.49Zm10.44,0a1.16,1.16,0,1,1,1.16-1.16A1.162,1.162,0,0,1,268.344,109.49Z" transform="translate(-221.101 -78.676)" fill="#ff9100"/>
  <path id="Path_713" data-name="Path 713" d="M300.8,145.708a.916.916,0,0,0-.916.916v2.564a.916.916,0,0,0,1.832,0v-2.564A.916.916,0,0,0,300.8,145.708Z" transform="translate(-263.27 -130.675)" fill="#ff9100"/>
  <path id="Path_714" data-name="Path 714" d="M326.3,145.708a.916.916,0,0,0-.916.916v2.564a.916.916,0,1,0,1.832,0v-2.564A.916.916,0,0,0,326.3,145.708Z" transform="translate(-285.656 -130.675)" fill="#ff9100"/>
  <path id="Path_715" data-name="Path 715" d="M351.8,145.708a.916.916,0,0,0-.916.916v2.564a.916.916,0,0,0,1.832,0v-2.564A.916.916,0,0,0,351.8,145.708Z" transform="translate(-308.042 -130.675)" fill="#ff9100"/>
  <path id="Path_716" data-name="Path 716" d="M377.3,145.708a.916.916,0,0,0-.916.916v2.564a.916.916,0,0,0,1.832,0v-2.564A.916.916,0,0,0,377.3,145.708Z" transform="translate(-330.429 -130.675)" fill="#ff9100"/>
  <path id="Path_717" data-name="Path 717" d="M83.271,84.3a.916.916,0,0,0,.916-.916V81.07l.516.485a.916.916,0,0,0,1.255-1.334L83.9,78.284a.916.916,0,0,0-1.255,0L80.585,80.22a.916.916,0,1,0,1.255,1.334l.516-.485v2.319A.916.916,0,0,0,83.271,84.3Z" transform="translate(-70.492 -71.265)" fill="#ff9100"/>
  <path id="Path_718" data-name="Path 718" d="M143.942,84.3a.916.916,0,0,0,.916-.916V81.07l.516.485a.916.916,0,1,0,1.255-1.334l-2.059-1.936a.916.916,0,0,0-1.255,0l-2.059,1.936a.916.916,0,1,0,1.255,1.334l.516-.485v2.319A.916.916,0,0,0,143.942,84.3Z" transform="translate(-123.755 -71.265)" fill="#ff9100"/>
  <path id="Path_719" data-name="Path 719" d="M80.693,154.837a2.139,2.139,0,0,0-2.137-2.137H64.637a2.139,2.139,0,0,0-2.137,2.137v3.691a2.139,2.139,0,0,0,2.137,2.137H70.62a.916.916,0,0,0,0-1.832H64.637a.306.306,0,0,1-.305-.305v-3.691a.306.306,0,0,1,.305-.305h13.92a.306.306,0,0,1,.305.305v3.691a.306.306,0,0,1-.305.305H74.771a.916.916,0,1,0,0,1.832h3.785a2.139,2.139,0,0,0,2.137-2.137Z" transform="translate(-54.869 -136.813)" fill="#ff9100"/>
  <path id="Path_720" data-name="Path 720" d="M63.416,245.763h6.291a.916.916,0,1,0,0-1.832H63.416a.916.916,0,0,0,0,1.832Z" transform="translate(-54.869 -216.904)" fill="#ff9100"/>
  <path id="Path_721" data-name="Path 721" d="M63.416,272.33H79.778a.916.916,0,1,0,0-1.832H63.416a.916.916,0,0,0,0,1.832Z" transform="translate(-54.869 -240.227)" fill="#ff9100"/>
</svg>
