<svg id="services4" xmlns="http://www.w3.org/2000/svg" width="51.399" height="51.399" viewBox="0 0 51.399 51.399">
  <path id="Path_20" data-name="Path 20" d="M49.893,42.364H30.217V31.622A11.547,11.547,0,0,0,17.145,20.179l-2.856-6.125H34.233v5.521a1.506,1.506,0,0,0,1.506,1.506h1.506V25.6A1.506,1.506,0,0,0,38.75,27.1h1.506V33.63a1.506,1.506,0,1,0,3.012,0V27.1h1.506A1.506,1.506,0,0,0,46.279,25.6V21.082h1.506a1.506,1.506,0,0,0,1.506-1.506V3.514A3.518,3.518,0,0,0,45.777,0H37.746a3.519,3.519,0,0,0-3.477,3.012H5.622a5.519,5.519,0,0,0-5,7.855h0l7.5,16.081a11.478,11.478,0,0,0-.99,4.674V42.364H1.506A1.506,1.506,0,0,0,0,43.87v6.023A1.506,1.506,0,0,0,1.506,51.4H49.893A1.506,1.506,0,0,0,51.4,49.893V43.87A1.506,1.506,0,0,0,49.893,42.364ZM43.267,24.093H40.256V21.082h3.012ZM37.244,3.514a.5.5,0,0,1,.5-.5h8.031a.5.5,0,0,1,.5.5v2.51h-2.51a1.506,1.506,0,1,0,0,3.012h2.51v3.012h-2.51a1.506,1.506,0,1,0,0,3.012h2.51V18.07H37.244ZM18.672,23.089a8.543,8.543,0,0,1,8.533,8.533V42.364H10.139V31.622A8.543,8.543,0,0,1,18.672,23.089ZM34.233,6.023v5.019H12.885s-2.317-4.96-2.347-5.019ZM3.112,8.533a2.51,2.51,0,1,1,2.51,2.51A2.513,2.513,0,0,1,3.112,8.533Zm2.313,5.516c.065,0,.131.005.2.005a5.513,5.513,0,0,0,4.352-2.129L14.2,20.981a11.6,11.6,0,0,0-4.15,2.978ZM48.387,48.387H3.012V45.376H48.387Z" fill="#e61818"/>
  <path id="Path_21" data-name="Path 21" d="M136.521,271.043A5.521,5.521,0,1,0,131,265.521,5.528,5.528,0,0,0,136.521,271.043Zm0-8.031a2.51,2.51,0,1,1-2.51,2.51A2.513,2.513,0,0,1,136.521,263.012Z" transform="translate(-117.849 -233.899)" fill="#e61818"/>
</svg>
