<svg id="services1" xmlns="http://www.w3.org/2000/svg" width="66.439" height="66.445" viewBox="0 0 66.439 66.445">
  <g id="Group_1" data-name="Group 1" transform="translate(0 0)">
    <path id="Path_2" data-name="Path 2" d="M58.606,23.478a25.44,25.44,0,0,0-50.729,0,10.089,10.089,0,0,0-4.943,2.7A9.966,9.966,0,0,0,8.378,43.05a1.106,1.106,0,0,0,.5.138,1.329,1.329,0,0,0,.209-.022.654.654,0,0,0,.085-.027c.269.021.536.049.813.049H12.2a1.107,1.107,0,0,0,1.107-1.107V24.364A1.107,1.107,0,0,0,12.2,23.257H10.119a23.225,23.225,0,0,1,46.247,0H54.28a1.107,1.107,0,0,0-1.107,1.107V42.081a1.107,1.107,0,0,0,1.107,1.107h2.215V45.4c0,8.542-6.677,15.034-15.673,15.461a4.42,4.42,0,1,0,.027,2.215C51.093,62.633,58.709,55.2,58.709,45.4V42.935a10.126,10.126,0,0,0,4.839-2.664,9.976,9.976,0,0,0-4.942-16.792ZM11.095,25.472v15.5H9.988a8.22,8.22,0,0,1-.971-.058A7.751,7.751,0,0,1,9.04,25.525a7.888,7.888,0,0,1,.948-.053h1.107ZM36.563,64.227a2.215,2.215,0,1,1,2.215-2.215A2.215,2.215,0,0,1,36.563,64.227ZM57.469,40.915a8.1,8.1,0,0,1-.974.059H55.387v-15.5h1.107a7.751,7.751,0,0,1,.974,15.444Z" transform="translate(-0.021 0)" fill="#f60"/>
  </g>
</svg>
