<svg xmlns="http://www.w3.org/2000/svg" width="66.74" height="62.927" viewBox="0 0 66.74 62.927">
  <g id="services2" transform="translate(-2 -4)">
    <path id="Path_76" data-name="Path 76" d="M43.5,5.907H40.663a.953.953,0,0,1,0-1.907H43.5a.953.953,0,0,1,0,1.907Z" transform="translate(-1.756)" fill="#dd5959"/>
    <path id="Path_77" data-name="Path 77" d="M63.973,52.625H6.767A4.773,4.773,0,0,1,2,47.858V8.767A4.773,4.773,0,0,1,6.767,4H22.794a.953.953,0,1,1,0,1.907H6.767a2.86,2.86,0,0,0-2.86,2.86V47.858a2.86,2.86,0,0,0,2.86,2.86H63.973a2.86,2.86,0,0,0,2.86-2.86V8.767a2.86,2.86,0,0,0-2.86-2.86H48.413a.953.953,0,0,1,0-1.907h15.56A4.773,4.773,0,0,1,68.74,8.767V47.858A4.773,4.773,0,0,1,63.973,52.625Z" fill="#dd5959"/>
    <path id="Path_78" data-name="Path 78" d="M33.528,5.907H30.763a.953.953,0,1,1,0-1.907h2.765a.953.953,0,0,1,0,1.907Z" transform="translate(-1.295)" fill="#dd5959"/>
    <path id="Path_79" data-name="Path 79" d="M46.929,62.058H25.953A.953.953,0,0,1,25,61.1V53.953A.953.953,0,0,1,25.953,53H46.929a.953.953,0,0,1,.953.953V61.1A.953.953,0,0,1,46.929,62.058ZM26.907,60.151H45.976V54.907H26.907Z" transform="translate(-1.071 -2.282)" fill="#dd5959"/>
    <path id="Path_80" data-name="Path 80" d="M51.746,69.558h-31.1a.953.953,0,0,1-.953-.953V64.5a4,4,0,0,1,4-4H48.7a4,4,0,0,1,4,4v4.1a.953.953,0,0,1-.959.953ZM21.595,67.651h29.2V64.5a2.1,2.1,0,0,0-2.1-2.1H23.69a2.1,2.1,0,0,0-2.1,2.1Z" transform="translate(-0.824 -2.631)" fill="#dd5959"/>
    <path id="Path_81" data-name="Path 81" d="M67.787,43.407H2.953a.953.953,0,1,1,0-1.907H67.787a.953.953,0,1,1,0,1.907Z" transform="translate(0 -1.746)" fill="#dd5959"/>
    <path id="Path_82" data-name="Path 82" d="M13.682,48.824h-3a.953.953,0,0,1,0-1.907h3a.953.953,0,0,1,0,1.907Z" transform="translate(-0.36 -1.999)" fill="#dd5959"/>
    <path id="Path_83" data-name="Path 83" d="M60.222,42.41a.953.953,0,0,1-.937-.785,23.911,23.911,0,0,0-47.052,0,.954.954,0,0,1-1.877-.338,25.819,25.819,0,0,1,50.806,0,.953.953,0,0,1-.77,1.107A.936.936,0,0,1,60.222,42.41Z" transform="translate(-0.388 -0.749)" fill="#dd5959"/>
    <path id="Path_84" data-name="Path 84" d="M36.953,28.655A.953.953,0,0,1,36,27.7V26.109a.953.953,0,0,1,1.907,0V27.7A.953.953,0,0,1,36.953,28.655Z" transform="translate(-1.583 -0.985)" fill="#dd5959"/>
    <path id="Path_85" data-name="Path 85" d="M25.614,33.352a.953.953,0,0,1-.674-.279l-1.126-1.126A.953.953,0,1,1,25.163,30.6l1.126,1.126a.953.953,0,0,1-.674,1.628Z" transform="translate(-1.003 -1.226)" fill="#dd5959"/>
    <path id="Path_86" data-name="Path 86" d="M48.237,33.352a.953.953,0,0,1-.674-1.628L48.689,30.6a.953.953,0,1,1,1.348,1.348l-1.126,1.126A.953.953,0,0,1,48.237,33.352Z" transform="translate(-2.109 -1.226)" fill="#dd5959"/>
    <path id="Path_87" data-name="Path 87" d="M41.233,43.187a.953.953,0,0,1-.953-.953,3.546,3.546,0,1,0-7.092,0,.953.953,0,0,1-1.907,0,5.453,5.453,0,1,1,10.905,0A.953.953,0,0,1,41.233,43.187Z" transform="translate(-1.364 -1.527)" fill="#dd5959"/>
    <path id="Path_88" data-name="Path 88" d="M38.635,38.819a.953.953,0,0,1-.791-1.483l2.567-3.845A.954.954,0,1,1,42,34.551L39.429,38.39A.953.953,0,0,1,38.635,38.819Z" transform="translate(-1.662 -1.354)" fill="#dd5959"/>
  </g>
</svg>
