<svg xmlns="http://www.w3.org/2000/svg" width="96" height="96" viewBox="0 0 96 96">
  <g id="services2" transform="translate(-912 -2361)">
    <circle id="Ellipse_24" data-name="Ellipse 24" cx="48" cy="48" r="48" transform="translate(912 2361)" fill="#1cb230" opacity="0.06"/>
    <path id="ecology" d="M22.287,31.116c-.1.007-.207.01-.311.01A4.721,4.721,0,0,1,18.74,29.84l-4.784-4.414a1.831,1.831,0,0,1,2.483-2.691l4.793,4.422.021.02a1.046,1.046,0,0,0,1.507-.068l7.509-10.673a1.831,1.831,0,1,1,2.995,2.107L25.713,29.274q-.034.048-.07.093A4.719,4.719,0,0,1,22.287,31.116Zm5.759-27.5A20.025,20.025,0,0,1,43.214,21.639a1.831,1.831,0,0,0,1.825,1.709c.041,0,.083,0,.124,0a1.831,1.831,0,0,0,1.7-1.949A23.654,23.654,0,0,0,28.9.054a1.831,1.831,0,1,0-.85,3.562Zm-9.22,39.648A20.025,20.025,0,0,1,3.658,25.239,1.831,1.831,0,0,0,0,25.484,23.654,23.654,0,0,0,17.976,46.825a1.831,1.831,0,0,0,.85-3.562Zm22.86.45A9.548,9.548,0,0,1,34.9,46.875h-.052a9.236,9.236,0,0,1-5.89-2.138,27.7,27.7,0,0,1-2.81,1.212,1.831,1.831,0,0,1-1.208-3.457c.024-.009.9-.321,2.216-.958a11.125,11.125,0,0,1-.42-2.781,9.59,9.59,0,0,1,3.161-6.83c5.227-5.228,13.978-5.21,15.1-5.185A1.83,1.83,0,0,1,46.866,28.5c.015.4.295,9.739-5.18,15.215Zm1.46-13.252c-2.653.2-7.595.981-10.663,4.051a6.017,6.017,0,0,0-2.089,4.241,5.935,5.935,0,0,0,.09.93A26.117,26.117,0,0,0,36.36,34.7a1.831,1.831,0,1,1,2.785,2.377,29.74,29.74,0,0,1-6.589,5.634,5.923,5.923,0,0,0,2.312.5H34.9a5.983,5.983,0,0,0,4.2-2.089C42.163,38.056,42.949,33.116,43.146,30.46ZM.006,18.38c-.015-.4-.295-9.739,5.18-15.215A9.53,9.53,0,0,1,12.027,0a9.236,9.236,0,0,1,5.89,2.138A27.7,27.7,0,0,1,20.727.93a1.831,1.831,0,0,1,1.208,3.457c-.024.009-.9.321-2.216.958a11.125,11.125,0,0,1,.42,2.781,9.59,9.59,0,0,1-3.161,6.83c-4.872,4.873-12.805,5.188-14.772,5.188-.143,0-.255,0-.332,0H1.834A1.829,1.829,0,0,1,.006,18.38Zm3.72-1.962c2.653-.2,7.595-.981,10.663-4.051a6.017,6.017,0,0,0,2.089-4.241,5.934,5.934,0,0,0-.09-.93,26.117,26.117,0,0,0-5.876,4.981A1.831,1.831,0,1,1,7.727,9.8a29.74,29.74,0,0,1,6.589-5.634A5.923,5.923,0,0,0,12,3.666h-.028a5.983,5.983,0,0,0-4.2,2.089c-3.067,3.068-3.853,8.007-4.05,10.663Z" transform="translate(937 2385.997)" fill="#1cb230"/>
  </g>
</svg>
