<svg id="services5" xmlns="http://www.w3.org/2000/svg" width="64.53" height="57.001" viewBox="0 0 64.53 57.001">
  <path id="Shape" d="M58.077,43.076A6.479,6.479,0,0,0,52.7,45.946V40.957a2.135,2.135,0,0,0,2.151-2.119V34.6a.837.837,0,0,0-.075-.36v-.064a.59.59,0,0,0-.1-.18A11.978,11.978,0,0,0,45.171,29.3h-8.6a3.2,3.2,0,0,0-3.226,3.178v3.9C28.6,32.853,20.434,26.508,13.981,21.4V15.534a1.076,1.076,0,0,0-2.151,0v4.174L6.313,15.354a3.009,3.009,0,0,0,.14-.879v-5.3A3.2,3.2,0,0,0,3.226,6,3.2,3.2,0,0,0,0,9.178v5.3a3.2,3.2,0,0,0,3.226,3.178,3.261,3.261,0,0,0,1.839-.572c5.915,4.693,21.94,17.33,28.3,21.959a2.139,2.139,0,0,0,2.129,1.917v1.2l-2.248-.53a8.663,8.663,0,0,0-6.3-2.786L6.281,23.118,1.893,19.771a1.087,1.087,0,0,0-1.506.191,1.049,1.049,0,0,0,.194,1.5l3.226,2.4C1.473,25.9,1.183,29.3,1.075,31.264c-.516,5.455.366,10.085,2.592,13.623,3.861,6.133,11.013,7.606,16.541,7.722a8.6,8.6,0,0,0,10.809,2.119H54.56a6.38,6.38,0,1,0,3.517-11.652ZM2.151,14.474v-5.3a1.076,1.076,0,0,1,2.151,0v5.3a1.076,1.076,0,0,1-2.151,0ZM51.376,48.023l.4.1a6.734,6.734,0,0,0-.151,1.314,6.283,6.283,0,0,0,.871,3.178H33.577a8.279,8.279,0,0,0,1.3-8.474C38.836,45.12,46.537,46.921,51.376,48.023ZM52.7,38.838H35.491V35.661H52.7ZM35.491,32.483a1.067,1.067,0,0,1,1.076-1.059h8.6a9.772,9.772,0,0,1,6.077,2.119H35.491Zm2.151,8.474H50.548v4.7c-3.947-.9-9.163-2.119-12.906-3ZM5.5,43.775c-1.968-3.178-2.764-7.3-2.334-12.341.2-2.362.581-4.947,2.345-6.218l18.542,14.1a8.4,8.4,0,0,0-5.13,11.176C14.164,50.131,8.6,48.637,5.5,43.775Zm16.132,7.193-.086-.106a6.274,6.274,0,0,1-.417-6.41A6.459,6.459,0,0,1,26.6,40.957a1.343,1.343,0,0,0,.29,0,6.43,6.43,0,0,1,6.327,5.061,6.334,6.334,0,0,1-3.752,7.127,6.511,6.511,0,0,1-7.845-2.177Zm36.449,2.7a4.238,4.238,0,1,1,4.3-4.237A4.27,4.27,0,0,1,58.077,53.669Z" transform="translate(0 1.214)" fill="#00880f"/>
  <path id="Shape-2" data-name="Shape" d="M15,45.812a10.641,10.641,0,0,1-5.158-3.475c-2.4-3.126-2.717-7.755-2.549-11.074a1.2,1.2,0,0,0-2.4-.132c-.192,3.739.18,8.957,3.042,12.673a13.093,13.093,0,0,0,6.3,4.232,1.046,1.046,0,0,0,.385.072A1.218,1.218,0,0,0,15,45.7Z" transform="translate(0.98 -0.654)" fill="#00880f"/>
  <path id="Shape-3" data-name="Shape" d="M25.607,42a3.607,3.607,0,1,0,3.607,3.607A3.607,3.607,0,0,0,25.607,42Zm0,4.809a1.2,1.2,0,1,1,1.2-1.2A1.2,1.2,0,0,1,25.607,46.809Z" transform="translate(1.351 1.776)" fill="#00880f"/>
  <circle id="Oval" cx="1.276" cy="1.276" r="1.276" transform="translate(56.022 48.577)" fill="#00880f"/>
  <path id="Shape-4" data-name="Shape" d="M22.2,2.4h1.2a1.2,1.2,0,1,0,0-2.4H22.2a1.2,1.2,0,1,0,0,2.4Z" transform="translate(1.445)" fill="#00880f"/>
  <path id="Shape-5" data-name="Shape" d="M38.569,10.179a1.2,1.2,0,1,0,1.864-1.5c-.541-.673-1.118-1.323-1.7-1.936A1.207,1.207,0,1,0,37.03,8.447a20.131,20.131,0,0,1,1.539,1.731Z" transform="translate(2.494 1.292)" fill="#00880f"/>
  <path id="Shape-6" data-name="Shape" d="M42.789,18.509c.228.757.433,1.539.613,2.308a1.2,1.2,0,0,0,1.2.926h.277a1.2,1.2,0,0,0,.89-1.443c-.192-.818-.409-1.647-.661-2.4a1.2,1.2,0,1,0-2.3.7Z" transform="translate(2.986 1.107)" fill="#00880f"/>
  <path id="Shape-7" data-name="Shape" d="M41.575,15.216a1.2,1.2,0,0,0,1.082.685,1.287,1.287,0,0,0,.517-.108,1.2,1.2,0,0,0,.577-1.6,22.759,22.759,0,0,0-1.2-2.272,1.206,1.206,0,1,0-2.092,1.2c.409.661.782,1.419,1.118,2.092Z" transform="translate(2.776 0.743)" fill="#00880f"/>
  <path id="Shape-8" data-name="Shape" d="M27.02,2.909c.769.156,1.527.361,2.272.589a1.22,1.22,0,0,0,.673-2.345C29.148.9,28.318.685,27.465.5a1.2,1.2,0,0,0-1.419.926,1.2,1.2,0,0,0,.974,1.479Z" transform="translate(1.729 0.097)" fill="#00880f"/>
  <path id="Shape-9" data-name="Shape" d="M32.427,4.906c.685.385,1.347.794,2,1.2a1.2,1.2,0,0,0,1.371-1.972c-.709-.493-1.455-.95-2.2-1.371a1.219,1.219,0,1,0-1.166,2.14Z" transform="translate(2.131 0.529)" fill="#00880f"/>
  <path id="Shape-10" data-name="Shape" d="M43.941,24.313V25.48a1.2,1.2,0,0,0,1.274,1.13h.072a1.2,1.2,0,0,0,1.13-1.287V24.109a1.243,1.243,0,0,0-2.477.2Z" transform="translate(3.118 1.56)" fill="#00880f"/>
  <path id="Shape-11" data-name="Shape" d="M20.2,6.4h1.2a1.2,1.2,0,1,0,.06-2.4H20.2a1.2,1.2,0,0,0,0,2.4Z" transform="translate(1.306 0.809)" fill="#00880f"/>
  <path id="Shape-12" data-name="Shape" d="M29.774,7.714a1.2,1.2,0,0,0,.313,1.659,17.338,17.338,0,0,1,1.791,1.467,1.226,1.226,0,0,0,1.7-1.767,19.839,19.839,0,0,0-2.02-1.647,1.2,1.2,0,0,0-1.779.289Z" transform="translate(1.991 1.447)" fill="#00880f"/>
  <path id="Shape-13" data-name="Shape" d="M38.82,21.726a1.2,1.2,0,0,0,.842-1.467c-.216-.83-.481-1.647-.757-2.4a1.208,1.208,0,0,0-2.272.818c.265.733.5,1.491.709,2.248a1.2,1.2,0,0,0,1.2.89.986.986,0,0,0,.277-.084Z" transform="translate(2.549 1.113)" fill="#00880f"/>
  <path id="Shape-14" data-name="Shape" d="M24.931,6.989a18.792,18.792,0,0,1,2.2.709,1.13,1.13,0,0,0,.445.084,1.2,1.2,0,0,0,.433-2.321,23.627,23.627,0,0,0-2.465-.806,1.206,1.206,0,0,0-.613,2.333Z" transform="translate(1.6 0.934)" fill="#00880f"/>
  <path id="Shape-15" data-name="Shape" d="M34.3,11.8a1.2,1.2,0,0,0-.265,1.671,15.838,15.838,0,0,1,1.2,1.984,1.2,1.2,0,0,0,1.046.613,1.287,1.287,0,0,0,.589-.144,1.2,1.2,0,0,0,.457-1.647c-.421-.757-.89-1.491-1.359-2.176A1.2,1.2,0,0,0,34.3,11.8Z" transform="translate(2.322 0.763)" fill="#00880f"/>
  <path id="Shape-16" data-name="Shape" d="M39.217,26.588h.06a1.2,1.2,0,0,0,1.142-1.2,5.026,5.026,0,0,0-.1-1.2,1.2,1.2,0,1,0-2.393.228c0,.4.06.782.084,1.142a1.2,1.2,0,0,0,1.2,1.034Z" transform="translate(2.691 1.574)" fill="#00880f"/>
  <path id="Shape-17" data-name="Shape" d="M33.229,26.607H33.3a1.2,1.2,0,0,0,1.13-1.287,8.041,8.041,0,0,0-.144-1.274,1.214,1.214,0,0,0-2.4.337c.1.661.12,1.07.12,1.094A1.2,1.2,0,0,0,33.229,26.607Z" transform="translate(2.257 1.561)" fill="#00880f"/>
  <path id="Shape-18" data-name="Shape" d="M23.579,8.861a1.2,1.2,0,1,0-.794,2.272,13.142,13.142,0,0,1,2.056.9,1.2,1.2,0,0,0,1.142-2.116,16.568,16.568,0,0,0-2.4-1.058Z" transform="translate(1.468 0.601)" fill="#00880f"/>
  <path id="Shape-19" data-name="Shape" d="M29.109,12.443A1.2,1.2,0,1,0,27.366,14.1a15.871,15.871,0,0,1,1.443,1.743,1.2,1.2,0,0,0,.974.5,1.274,1.274,0,0,0,.709-.228,1.2,1.2,0,0,0,.265-1.683A19.117,19.117,0,0,0,29.109,12.443Z" transform="translate(1.842 0.801)" fill="#00880f"/>
  <path id="Shape-20" data-name="Shape" d="M31.143,21.012a1.2,1.2,0,0,0,1.2.83.95.95,0,0,0,.361,0,1.2,1.2,0,0,0,.782-1.5c-.265-.83-.565-1.623-.878-2.4a1.207,1.207,0,0,0-2.224.938A14.9,14.9,0,0,1,31.143,21.012Z" transform="translate(2.105 1.126)" fill="#00880f"/>
  <path id="Shape-21" data-name="Shape" d="M18.2,10.4h1.2A1.2,1.2,0,0,0,19.477,8H18.2a1.2,1.2,0,0,0,0,2.4Z" transform="translate(1.169 1.619)" fill="#00880f"/>
</svg>
