<svg xmlns="http://www.w3.org/2000/svg" width="63.72" height="57" viewBox="0 0 63.72 57">
  <g id="services4" transform="translate(0 -27)">
    <g id="XMLID_1174_" transform="translate(0 27)">
      <path id="XMLID_1177_" d="M63.355,34.312l-6.969-6.949a1.244,1.244,0,0,0-1.757,0l-6.969,6.949a1.244,1.244,0,0,0-.366.881V44.05H40.074V35.193a1.245,1.245,0,0,0-.366-.881l-6.969-6.949a1.244,1.244,0,0,0-1.757,0l-6.969,6.949a1.244,1.244,0,0,0-.366.881V44.05H16.428V35.193a1.245,1.245,0,0,0-.366-.881L9.092,27.363a1.244,1.244,0,0,0-1.757,0L.366,34.312A1.245,1.245,0,0,0,0,35.193V82.755A1.245,1.245,0,0,0,1.245,84H15.183a1.245,1.245,0,0,0,1.245-1.245V73.421h7.218v9.334A1.245,1.245,0,0,0,24.891,84H38.83a1.245,1.245,0,0,0,1.245-1.245V73.421h7.218v9.334A1.245,1.245,0,0,0,48.537,84H62.476a1.245,1.245,0,0,0,1.245-1.245V61.1a1.245,1.245,0,0,0-2.489,0v20.41H49.782V35.71L55.507,30l5.725,5.708V49.9a1.245,1.245,0,1,0,2.489,0V35.193A1.244,1.244,0,0,0,63.355,34.312Zm-23.28,19.2h7.218V63.963H40.074Zm7.218-6.969v4.48H40.074v-4.48ZM16.428,53.509h7.218V63.963H16.428Zm7.218-6.969v4.48H16.428v-4.48ZM13.939,81.511H2.489V35.71L8.214,30l5.725,5.708Zm2.489-10.579v-4.48h7.218v4.48ZM37.585,81.511H26.135V35.71L31.86,30l5.725,5.708Zm2.489-10.579v-4.48h7.218v4.48Z" transform="translate(0 -27)" fill="#00880f"/>
      <path id="XMLID_1279_" d="M57.318,192.82a1.317,1.317,0,1,0,.932.385A1.327,1.327,0,0,0,57.318,192.82Z" transform="translate(-48.617 -172.239)" fill="#00880f"/>
      <path id="XMLID_1280_" d="M247.318,192.82a1.317,1.317,0,1,0,.932.385A1.327,1.327,0,0,0,247.318,192.82Z" transform="translate(-215.458 -172.239)" fill="#00880f"/>
      <path id="XMLID_1281_" d="M438.25,193.2a1.319,1.319,0,1,0,.386.933A1.327,1.327,0,0,0,438.25,193.2Z" transform="translate(-382.299 -172.239)" fill="#00880f"/>
      <path id="XMLID_1282_" d="M57.318,352a1.319,1.319,0,1,0,.932.386A1.328,1.328,0,0,0,57.318,352Z" transform="translate(-48.617 -311.662)" fill="#00880f"/>
      <path id="XMLID_1465_" d="M247.318,352a1.319,1.319,0,1,0,.932.386A1.328,1.328,0,0,0,247.318,352Z" transform="translate(-215.458 -311.662)" fill="#00880f"/>
      <path id="XMLID_1466_" d="M437.318,352a1.319,1.319,0,1,0,.932.386A1.328,1.328,0,0,0,437.318,352Z" transform="translate(-382.299 -311.662)" fill="#00880f"/>
      <path id="XMLID_1467_" d="M493.318,246a1.319,1.319,0,1,0,.932.386A1.328,1.328,0,0,0,493.318,246Z" transform="translate(-430.916 -218.818)" fill="#00880f"/>
    </g>
  </g>
</svg>
