<svg xmlns="http://www.w3.org/2000/svg" xmlns:xlink="http://www.w3.org/1999/xlink" width="30.752" height="52.384" viewBox="0 0 30.752 52.384">
  <defs>
    <linearGradient id="linear-gradient" x1="0.5" x2="0.5" y2="1" gradientUnits="objectBoundingBox">
      <stop offset="0" stop-color="#ff4495"/>
      <stop offset="1" stop-color="#ff6d6d"/>
    </linearGradient>
  </defs>
  <path id="services2" d="M30.9,5.859a.778.778,0,1,0-1.48.479,5.734,5.734,0,0,1,.044,3.4L25.6,22.86H24.258q1.361-7.034,2.725-14.068A11.268,11.268,0,0,0,26.6,3,5.661,5.661,0,0,1,28.213,4.25a.778.778,0,1,0,1.156-1.04A7.188,7.188,0,0,0,25.413.956a48.138,48.138,0,0,0-19.079,0A7.3,7.3,0,0,0,.8,10.176L1.982,14.21l2.544,8.65a2.645,2.645,0,0,0-1.139,5.011c-.03.587-.045,1.184-.045,1.782a32.94,32.94,0,0,0,1.5,9.992.778.778,0,1,0,1.48-.478A31.377,31.377,0,0,1,4.9,29.653c0-.5.012-1.005.034-1.5H26.817c.022.5.034,1,.034,1.5A30.79,30.79,0,0,1,25.14,40a17.379,17.379,0,0,1-4.157,6.777H10.763a16.041,16.041,0,0,1-3.412-4.959.778.778,0,0,0-1.413.651A18.727,18.727,0,0,0,8.646,46.8a2.8,2.8,0,0,0,.38,5.582H22.72A2.8,2.8,0,0,0,23.1,46.8c3.306-3.878,5.307-10.241,5.307-17.15,0-.6-.015-1.195-.044-1.782a2.645,2.645,0,0,0-1.139-5.01l3.729-12.684A7.284,7.284,0,0,0,30.9,5.859ZM23.969,49.581A1.25,1.25,0,0,1,22.72,50.83H9.026a1.249,1.249,0,0,1,0-2.5H22.72A1.25,1.25,0,0,1,23.969,49.581ZM25.456,8.5q-1.391,7.181-2.782,14.364h-2.71l1.195-14.15a22.9,22.9,0,0,0-.42-6.9q1.947.205,3.887.574a9.4,9.4,0,0,1,.83,6.109ZM19.09,1.669a20.442,20.442,0,0,1,.518,6.909L18.4,22.86H13.345L12.139,8.578a20.43,20.43,0,0,1,.519-6.909,46.311,46.311,0,0,1,6.432,0ZM9.073,22.86,6.291,8.5a9.394,9.394,0,0,1,.83-6.109q1.939-.369,3.888-.574a22.883,22.883,0,0,0-.42,6.9l1.195,14.15ZM2.287,9.737a5.783,5.783,0,0,1,.6-4.609A5.664,5.664,0,0,1,5.151,3a11.265,11.265,0,0,0-.386,5.791L7.489,22.86H6.146L3.474,13.771ZM28.268,25.506A1.092,1.092,0,0,1,27.177,26.6H4.57a1.091,1.091,0,1,1,0-2.181H27.177a1.092,1.092,0,0,1,1.091,1.091Zm0,0" transform="translate(-0.499 -0.001)" fill="url(#linear-gradient)"/>
</svg>
