<svg id="services1" xmlns="http://www.w3.org/2000/svg" width="75.043" height="74.903" viewBox="0 0 75.043 74.903">
  <path id="Path_3" data-name="Path 3" d="M75.043,62.135V8.544a150.639,150.639,0,0,1-22.072,4.131V8.825L37.522.475l-15.45,8.35v3.85A150.544,150.544,0,0,1,0,8.544V62.135H30.5L29.03,70.964H24.279v4.414H50.764V70.964H46.013l-1.471-8.829ZM26.486,14.4l8.829,6.243V29.76l-8.829-5.886Zm13.243,6.243L48.557,14.4v9.469L39.729,29.76Zm6.858-10.256L37.522,16.8l-9.065-6.41,9.065-4.9ZM22.071,17.115v7.026l-3.547,3.547,3.121,3.121L24.56,27.9l10.754,7.17v7.206h4.414V35.065L50.483,27.9,53.4,30.81l3.121-3.121-3.547-3.547V17.115A148.464,148.464,0,0,0,70.629,14.17V48.893H4.414V14.17a148.464,148.464,0,0,0,17.657,2.946ZM4.414,57.721V53.307H70.629v4.414H4.414ZM41.538,70.964H33.506l1.471-8.829h5.089Z" transform="translate(0 -0.475)" fill="#cbcbcb"/>
</svg>
