<svg id="services1" xmlns="http://www.w3.org/2000/svg" width="44.053" height="44.052" viewBox="0 0 44.053 44.052">
  <path id="Path_22" data-name="Path 22" d="M70.629,52.558A.629.629,0,0,1,70,51.928V50.059a.629.629,0,1,1,1.259,0v1.869A.629.629,0,0,1,70.629,52.558Z" transform="translate(-27.205 -19.582)" fill="#fff"/>
  <path id="Path_23" data-name="Path 23" d="M61.733,46.054h-15.1A.629.629,0,0,1,46,45.425V2.63a.629.629,0,0,1,.944-.544l15.1,8.811a.629.629,0,0,1,.315.544v10.4a.629.629,0,1,1-1.259,0V11.8L47.259,3.726V44.8H61.1V38.754a.629.629,0,1,1,1.259,0v6.671A.629.629,0,0,1,61.733,46.054Z" transform="translate(-18.309 -2.002)" fill="#fff"/>
  <path id="Path_24" data-name="Path 24" d="M70.629,42.61A.629.629,0,0,1,70,41.981V40.149a.629.629,0,1,1,1.259,0v1.831A.629.629,0,0,1,70.629,42.61Z" transform="translate(-27.205 -15.909)" fill="#fff"/>
  <path id="Path_25" data-name="Path 25" d="M64.629,26.535A.629.629,0,0,1,64,25.906V24.3a.629.629,0,1,1,1.259,0v1.61A.629.629,0,0,1,64.629,26.535Z" transform="translate(-24.981 -10.033)" fill="#fff"/>
  <path id="Path_26" data-name="Path 26" d="M58.629,26.535A.629.629,0,0,1,58,25.906V24.3a.629.629,0,1,1,1.259,0v1.61A.629.629,0,0,1,58.629,26.535Z" transform="translate(-22.757 -10.033)" fill="#fff"/>
  <path id="Path_27" data-name="Path 27" d="M52.629,26.535A.629.629,0,0,1,52,25.906V24.3a.629.629,0,0,1,1.259,0v1.61A.629.629,0,0,1,52.629,26.535Z" transform="translate(-20.533 -10.033)" fill="#fff"/>
  <path id="Path_28" data-name="Path 28" d="M64.629,37.683A.629.629,0,0,1,64,37.053v-1.61a.629.629,0,1,1,1.259,0v1.61A.629.629,0,0,1,64.629,37.683Z" transform="translate(-24.981 -14.164)" fill="#fff"/>
  <path id="Path_29" data-name="Path 29" d="M58.629,37.683A.629.629,0,0,1,58,37.053v-1.61a.629.629,0,1,1,1.259,0v1.61A.629.629,0,0,1,58.629,37.683Z" transform="translate(-22.757 -14.164)" fill="#fff"/>
  <path id="Path_30" data-name="Path 30" d="M52.629,37.683A.629.629,0,0,1,52,37.053v-1.61a.629.629,0,0,1,1.259,0v1.61A.629.629,0,0,1,52.629,37.683Z" transform="translate(-20.533 -14.164)" fill="#fff"/>
  <path id="Path_31" data-name="Path 31" d="M64.629,48.83A.629.629,0,0,1,64,48.2V46.59a.629.629,0,1,1,1.259,0V48.2a.629.629,0,0,1-.629.629Z" transform="translate(-24.981 -18.296)" fill="#fff"/>
  <path id="Path_32" data-name="Path 32" d="M58.629,48.83A.629.629,0,0,1,58,48.2V46.59a.629.629,0,1,1,1.259,0V48.2a.629.629,0,0,1-.629.629Z" transform="translate(-22.757 -18.296)" fill="#fff"/>
  <path id="Path_33" data-name="Path 33" d="M52.629,48.83A.629.629,0,0,1,52,48.2V46.59a.629.629,0,1,1,1.259,0V48.2a.629.629,0,0,1-.629.629Z" transform="translate(-20.533 -18.296)" fill="#fff"/>
  <path id="Path_34" data-name="Path 34" d="M64.629,59.977A.629.629,0,0,1,64,59.348v-1.61a.629.629,0,1,1,1.259,0v1.61A.629.629,0,0,1,64.629,59.977Z" transform="translate(-24.981 -22.428)" fill="#fff"/>
  <path id="Path_35" data-name="Path 35" d="M58.629,59.977A.629.629,0,0,1,58,59.348v-1.61a.629.629,0,1,1,1.259,0v1.61A.629.629,0,0,1,58.629,59.977Z" transform="translate(-22.757 -22.428)" fill="#fff"/>
  <path id="Path_36" data-name="Path 36" d="M52.629,59.977A.629.629,0,0,1,52,59.348v-1.61a.629.629,0,1,1,1.259,0v1.61A.629.629,0,0,1,52.629,59.977Z" transform="translate(-20.533 -22.428)" fill="#fff"/>
  <path id="Path_37" data-name="Path 37" d="M17.733,46.054H2.629A.629.629,0,0,1,2,45.425V11.441a.629.629,0,0,1,.315-.544l15.1-8.811a.629.629,0,0,1,.944.544V45.425A.629.629,0,0,1,17.733,46.054ZM3.259,44.8H17.1V3.726L3.259,11.8Z" transform="translate(-2 -2.002)" fill="#fff"/>
  <path id="Path_38" data-name="Path 38" d="M8.629,26.535A.629.629,0,0,1,8,25.906V24.3a.629.629,0,1,1,1.259,0v1.61A.629.629,0,0,1,8.629,26.535Z" transform="translate(-4.224 -10.033)" fill="#fff"/>
  <path id="Path_39" data-name="Path 39" d="M14.629,26.535A.629.629,0,0,1,14,25.906V24.3a.629.629,0,1,1,1.259,0v1.61A.629.629,0,0,1,14.629,26.535Z" transform="translate(-6.448 -10.033)" fill="#fff"/>
  <path id="Path_40" data-name="Path 40" d="M20.629,26.535A.629.629,0,0,1,20,25.906V24.3a.629.629,0,1,1,1.259,0v1.61A.629.629,0,0,1,20.629,26.535Z" transform="translate(-8.672 -10.033)" fill="#fff"/>
  <path id="Path_41" data-name="Path 41" d="M8.629,37.683A.629.629,0,0,1,8,37.053v-1.61a.629.629,0,0,1,1.259,0v1.61A.629.629,0,0,1,8.629,37.683Z" transform="translate(-4.224 -14.164)" fill="#fff"/>
  <path id="Path_42" data-name="Path 42" d="M14.629,37.683A.629.629,0,0,1,14,37.053v-1.61a.629.629,0,0,1,1.259,0v1.61A.629.629,0,0,1,14.629,37.683Z" transform="translate(-6.448 -14.164)" fill="#fff"/>
  <path id="Path_43" data-name="Path 43" d="M20.629,37.683A.629.629,0,0,1,20,37.053v-1.61a.629.629,0,0,1,1.259,0v1.61A.629.629,0,0,1,20.629,37.683Z" transform="translate(-8.672 -14.164)" fill="#fff"/>
  <path id="Path_44" data-name="Path 44" d="M8.629,48.83A.629.629,0,0,1,8,48.2V46.59a.629.629,0,1,1,1.259,0V48.2a.629.629,0,0,1-.629.629Z" transform="translate(-4.224 -18.296)" fill="#fff"/>
  <path id="Path_45" data-name="Path 45" d="M14.629,48.83A.629.629,0,0,1,14,48.2V46.59a.629.629,0,1,1,1.259,0V48.2a.629.629,0,0,1-.629.629Z" transform="translate(-6.448 -18.296)" fill="#fff"/>
  <path id="Path_46" data-name="Path 46" d="M20.629,48.83A.629.629,0,0,1,20,48.2V46.59a.629.629,0,1,1,1.259,0V48.2a.629.629,0,0,1-.629.629Z" transform="translate(-8.672 -18.296)" fill="#fff"/>
  <path id="Path_47" data-name="Path 47" d="M8.629,59.977A.629.629,0,0,1,8,59.348v-1.61a.629.629,0,1,1,1.259,0v1.61A.629.629,0,0,1,8.629,59.977Z" transform="translate(-4.224 -22.428)" fill="#fff"/>
  <path id="Path_48" data-name="Path 48" d="M14.629,59.977A.629.629,0,0,1,14,59.348v-1.61a.629.629,0,1,1,1.259,0v1.61A.629.629,0,0,1,14.629,59.977Z" transform="translate(-6.448 -22.428)" fill="#fff"/>
  <path id="Path_49" data-name="Path 49" d="M20.629,59.977A.629.629,0,0,1,20,59.348v-1.61a.629.629,0,1,1,1.259,0v1.61A.629.629,0,0,1,20.629,59.977Z" transform="translate(-8.672 -22.428)" fill="#fff"/>
  <path id="Path_50" data-name="Path 50" d="M39.216,26.866a.629.629,0,0,1-.378-.126c-3.981-2.986-7.851-2.986-11.831,0a.629.629,0,0,1-.755-1.007c4.427-3.32,8.915-3.32,13.342,0a.629.629,0,0,1-.378,1.133Z" transform="translate(-10.896 -9.876)" fill="#fff"/>
  <path id="Path_51" data-name="Path 51" d="M39.216,34.144a.629.629,0,0,1-.393-.138c-3.97-3.176-7.83-3.176-11.8,0a.63.63,0,1,1-.787-.983c4.437-3.549,8.937-3.549,13.373,0a.629.629,0,0,1-.393,1.121Z" transform="translate(-10.896 -12.514)" fill="#fff"/>
</svg>
