<svg xmlns="http://www.w3.org/2000/svg" width="40.781" height="40.201" viewBox="0 0 40.781 40.201">
  <g id="top-cat3" transform="translate(0 -3.628)">
    <path id="Path_237" data-name="Path 237" d="M75.45,263.974a.6.6,0,0,0,.6-.6V259.24a.6.6,0,0,0-1.2,0v4.134A.6.6,0,0,0,75.45,263.974Z" transform="translate(-68.863 -234.615)" fill="#27cb8b"/>
    <path id="Path_238" data-name="Path 238" d="M75.45,173.264a.6.6,0,0,0,.6-.6V171l1.422-.858a.6.6,0,0,0-.62-1.027l-1.712,1.033a.6.6,0,0,0-.29.514v2A.6.6,0,0,0,75.45,173.264Z" transform="translate(-68.863 -152.173)" fill="#27cb8b"/>
    <path id="Path_239" data-name="Path 239" d="M140.14,120.062a.6.6,0,0,0,.309-.086l3.462-2.09a.6.6,0,1,0-.62-1.027l-3.462,2.09a.6.6,0,0,0,.311,1.114Z" transform="translate(-128.379 -104.094)" fill="#27cb8b"/>
    <path id="Path_240" data-name="Path 240" d="M312.092,117.94l3.434,2.089a.6.6,0,0,0,.624-1.025l-3.434-2.089a.6.6,0,0,0-.623,1.025Z" transform="translate(-286.865 -104.145)" fill="#27cb8b"/>
    <path id="Path_241" data-name="Path 241" d="M397.947,170.165l1.42.864v1.662a.6.6,0,1,0,1.2,0v-2a.6.6,0,0,0-.288-.513l-1.708-1.039a.6.6,0,1,0-.623,1.025Z" transform="translate(-365.853 -152.194)" fill="#27cb8b"/>
    <path id="Path_242" data-name="Path 242" d="M419.619,258.67a.6.6,0,0,0-.6.6V263.4a.6.6,0,1,0,1.2,0V259.27A.6.6,0,0,0,419.619,258.67Z" transform="translate(-385.504 -234.643)" fill="#27cb8b"/>
    <path id="Path_243" data-name="Path 243" d="M315.525,426.111l-3.434,2.089a.6.6,0,1,0,.623,1.025l3.434-2.089a.6.6,0,0,0-.623-1.025Z" transform="translate(-286.864 -388.611)" fill="#27cb8b"/>
    <path id="Path_244" data-name="Path 244" d="M229.821,478.335l-1.4.85-1.4-.846a.6.6,0,0,0-.62,1.027l1.712,1.033a.6.6,0,0,0,.622,0l1.708-1.039a.6.6,0,1,0-.623-1.025Z" transform="translate(-208.027 -436.658)" fill="#27cb8b"/>
    <path id="Path_245" data-name="Path 245" d="M143.911,428.237l-3.462-2.09a.6.6,0,1,0-.62,1.027l3.462,2.09a.6.6,0,0,0,.62-1.027Z" transform="translate(-128.378 -388.645)" fill="#27cb8b"/>
    <path id="Path_246" data-name="Path 246" d="M248.035,181.61a.6.6,0,0,0,.6-.6v-.461a.6.6,0,0,0-1.2,0v.461A.6.6,0,0,0,248.035,181.61Z" transform="translate(-227.644 -162.219)" fill="#27cb8b"/>
    <path id="Path_247" data-name="Path 247" d="M248.035,224.618a.6.6,0,0,0,.6-.6v-.461a.6.6,0,0,0-1.2,0v.461A.6.6,0,0,0,248.035,224.618Z" transform="translate(-227.644 -201.787)" fill="#27cb8b"/>
    <path id="Path_248" data-name="Path 248" d="M38.271,35.065a2.5,2.5,0,0,0-1.67.638l-1.886-1.078V32.885a.6.6,0,0,0-1.2,0v1.055l-2.161-1.235c0-.014,0-.027,0-.041V20.718a1.2,1.2,0,0,0-.571-1.016l-9.776-5.947-.017-.01V11.217l.8.489a.6.6,0,0,0,.623-1.025L20.99,9.813V8.576a2.51,2.51,0,1,0-1.2,0V9.82l-1.415.854A.6.6,0,1,0,19,11.7l.8-.48v2.523l-.016.009L9.921,19.7a1.2,1.2,0,0,0-.575,1.018v3.692a.6.6,0,0,0,1.2,0V21.45l9.245,5.581V38.238L10.665,32.73c-.005-.01-.01-.021-.016-.031a.6.6,0,0,0-.1-.133v-5.6a.6.6,0,1,0-1.2,0v5.695c0,.029,0,.058,0,.087L7.187,33.986V32.893a.6.6,0,1,0-1.2,0v1.779L4.181,35.7a2.505,2.505,0,1,0,.681.993l1.825-1.043,1.3.786a.6.6,0,0,0,.62-1.027l-.729-.44,2.147-1.227,9.748,5.884a1.2,1.2,0,0,0,.188.092.6.6,0,0,0,.856,0,1.191,1.191,0,0,0,.188-.092l3.861-2.349a.6.6,0,1,0-.623-1.025l-3.255,1.98V27.029l9.165-5.575V32.659l-3.7,2.252a.6.6,0,1,0,.624,1.025l3.638-2.213,2.143,1.224-.763.464a.6.6,0,1,0,.623,1.025l1.33-.809L35.92,36.7a2.51,2.51,0,1,0,2.351-1.631ZM2.51,38.887a1.311,1.311,0,1,1,1.311-1.311A1.312,1.312,0,0,1,2.51,38.887ZM19.08,6.138a1.311,1.311,0,1,1,1.311,1.311A1.312,1.312,0,0,1,19.08,6.138Zm.711,9.007v.631a.6.6,0,1,0,1.2,0v-.627L29.6,20.387l-8.611,5.238v-.7a.6.6,0,1,0-1.2,0v.707l-8.684-5.242Zm18.48,23.741a1.311,1.311,0,1,1,1.311-1.311A1.312,1.312,0,0,1,38.271,38.887Z" fill="#27cb8b"/>
  </g>
</svg>
