<svg xmlns="http://www.w3.org/2000/svg" width="59.794" height="66.438" viewBox="0 0 59.794 66.438">
  <g id="services2" transform="translate(0)">
    <path id="Path_3" data-name="Path 3" d="M221.288,62.644a6.644,6.644,0,1,0-6.644,6.644A6.644,6.644,0,0,0,221.288,62.644Zm-11.073,0a4.429,4.429,0,1,1,4.429,4.429A4.429,4.429,0,0,1,210.215,62.644Z" transform="translate(-184.747 -50.463)" fill="#f60"/>
    <path id="Path_4" data-name="Path 4" d="M179.545,46.8a1.107,1.107,0,0,0,1.27,0,35.239,35.239,0,0,0,5.737-5.3c3.8-4.37,5.808-8.976,5.808-13.322a12.18,12.18,0,1,0-24.361,0c0,4.346,2.009,8.952,5.808,13.322A35.237,35.237,0,0,0,179.545,46.8Zm.635-28.59a9.977,9.977,0,0,1,9.966,9.966c0,7.923-7.68,14.537-9.966,16.33-2.29-1.791-9.966-8.392-9.966-16.33A9.977,9.977,0,0,1,180.18,18.215Z" transform="translate(-150.283 -16)" fill="#f60"/>
    <path id="Path_5" data-name="Path 5" d="M0,0H2.215V2.317H0Z" transform="matrix(0.294, -0.956, 0.956, 0.294, 15.188, 57.522)" fill="#f60"/>
    <path id="Path_6" data-name="Path 6" d="M0,0H2.215V2.317H0Z" transform="matrix(0.294, -0.956, 0.956, 0.294, 19.616, 58.88)" fill="#f60"/>
    <path id="Path_7" data-name="Path 7" d="M0,0H2.215V2.317H0Z" transform="matrix(0.294, -0.956, 0.956, 0.294, 24.046, 60.247)" fill="#f60"/>
    <path id="Path_8" data-name="Path 8" d="M99.013,168.542,82.4,163.431l-.651,2.117,13.17,4.052L69.9,177.3l-25.025-7.7,13.17-4.052-.651-2.117-16.61,5.111A1.107,1.107,0,0,0,40,169.6v29.9a1.107,1.107,0,0,0,.782,1.058l28.79,8.858a1.107,1.107,0,0,0,.651,0l28.79-8.858a1.107,1.107,0,0,0,.782-1.058V169.6a1.107,1.107,0,0,0-.782-1.058Zm-56.8,2.558,26.575,8.177v27.58l-26.575-8.177ZM71,206.856v-27.58L97.58,171.1v27.58Z" transform="translate(-40 -143.025)" fill="#f60"/>
    <path id="Path_9" data-name="Path 9" d="M0,0H2.317V2.215H0Z" transform="matrix(0.956, -0.294, 0.294, 0.956, 43.974, 55.429)" fill="#f60"/>
    <path id="Path_10" data-name="Path 10" d="M0,0H2.317V2.215H0Z" transform="matrix(0.956, -0.294, 0.294, 0.956, 48.402, 54.071)" fill="#f60"/>
    <path id="Path_11" data-name="Path 11" d="M0,0H2.317V2.215H0Z" transform="matrix(0.956, -0.294, 0.294, 0.956, 52.834, 52.704)" fill="#f60"/>
    <path id="Path_12" data-name="Path 12" d="M116.18,269.619a1.107,1.107,0,0,0,1.107-1.107v-5.537a1.107,1.107,0,0,0-.782-1.058l-11.073-3.407A1.107,1.107,0,0,0,104,259.568V265.1a1.107,1.107,0,0,0,.782,1.058l11.073,3.407A1.107,1.107,0,0,0,116.18,269.619Zm-1.107-2.607-8.858-2.726v-3.219l8.858,2.726Z" transform="translate(-95.141 -224.901)" fill="#f60"/>
    <path id="Path_13" data-name="Path 13" d="M325.288,265.1v-5.537a1.107,1.107,0,0,0-1.433-1.058l-11.073,3.407a1.107,1.107,0,0,0-.782,1.058v5.536a1.107,1.107,0,0,0,1.433,1.058l11.073-3.407A1.107,1.107,0,0,0,325.288,265.1Zm-2.215-.818-8.858,2.726v-3.22l8.858-2.725Z" transform="translate(-274.352 -224.901)" fill="#f60"/>
  </g>
</svg>
