<svg xmlns="http://www.w3.org/2000/svg" width="66.972" height="67.272" viewBox="0 0 66.972 67.272">
  <g id="services2" transform="translate(0)">
    <path id="Path_159" data-name="Path 159" d="M58.406,60.808H9.153a2.4,2.4,0,0,1-2.4-2.4V25.37L33.779,6.75,60.808,25.37V58.406A2.4,2.4,0,0,1,58.406,60.808Z" transform="translate(2.56 4.662)" fill="#f3f3f1"/>
    <g id="Group_57" data-name="Group 57" transform="translate(20.121 37.841)">
      <path id="Path_160" data-name="Path 160" d="M18,23.75H34.217V36.964H18Z" transform="translate(-1.783 -9.334)" fill="#2fdf84"/>
      <path id="Path_161" data-name="Path 161" d="M14.75,17.75H30.367V32.165H14.75Z" transform="translate(-6.341 -17.75)" fill="#2fdf84"/>
      <path id="Path_162" data-name="Path 162" d="M11.25,23.75H27.467V36.964H11.25Z" transform="translate(-11.25 -9.334)" fill="#2fdf84"/>
    </g>
    <path id="Path_163" data-name="Path 163" d="M12.156,58.406V25.37L36.482,8.612l-2.7-1.862L6.75,25.37V58.406a2.4,2.4,0,0,0,2.4,2.4h5.406A2.4,2.4,0,0,1,12.156,58.406Z" transform="translate(2.56 4.662)" fill="#d5dbe1"/>
    <path id="Path_164" data-name="Path 164" d="M18,23.75h5.406V36.964H18Z" transform="translate(18.339 28.506)" fill="#00b871"/>
    <path id="Path_165" data-name="Path 165" d="M14.75,17.75h5.406V32.165H14.75Z" transform="translate(13.781 20.091)" fill="#00b871"/>
    <path id="Path_166" data-name="Path 166" d="M11.25,23.75h5.406V36.964H11.25Z" transform="translate(8.871 28.506)" fill="#00b871"/>
    <g id="Group_58" data-name="Group 58" transform="translate(0 0)">
      <path id="Path_167" data-name="Path 167" d="M31.354,15.708a3.6,3.6,0,1,1,3.6-3.6A3.608,3.608,0,0,1,31.354,15.708Zm0-4.805a1.2,1.2,0,1,0,1.2,1.2A1.2,1.2,0,0,0,31.354,10.9Z" transform="translate(32.014 7.117)" fill="#a4afc1"/>
      <path id="Path_168" data-name="Path 168" d="M6.375,2h2.4V6.805h-2.4Z" transform="translate(2.034 -2)" fill="#a4afc1"/>
      <path id="Path_169" data-name="Path 169" d="M6.375,7.75h2.4v4.805h-2.4Z" transform="translate(2.034 6.065)" fill="#a4afc1"/>
      <path id="Path_170" data-name="Path 170" d="M2.875,5.25H7.68v2.4H2.875Z" transform="translate(-2.875 2.558)" fill="#a4afc1"/>
      <path id="Path_171" data-name="Path 171" d="M8.625,5.25H13.43v2.4H8.625Z" transform="translate(5.19 2.558)" fill="#a4afc1"/>
    </g>
    <path id="Path_172" data-name="Path 172" d="M35.269,39.818H19.052a1.8,1.8,0,0,1-1.8-1.8V24.8a1.8,1.8,0,0,1,1.8-1.8H35.269a1.8,1.8,0,0,1,1.8,1.8V38.016A1.8,1.8,0,0,1,35.269,39.818Zm-14.416-3.6H33.467V26.6H20.854Z" transform="translate(17.287 27.454)" fill="#171717"/>
    <path id="Path_173" data-name="Path 173" d="M31.419,35.019H15.8a1.8,1.8,0,0,1-1.8-1.8V18.8A1.8,1.8,0,0,1,15.8,17H31.419a1.8,1.8,0,0,1,1.8,1.8V33.217A1.8,1.8,0,0,1,31.419,35.019ZM17.6,31.416H29.617V20.6H17.6Z" transform="translate(12.729 19.039)" fill="#171717"/>
    <path id="Path_174" data-name="Path 174" d="M28.519,39.818H12.3a1.8,1.8,0,0,1-1.8-1.8V24.8A1.8,1.8,0,0,1,12.3,23H28.519a1.8,1.8,0,0,1,1.8,1.8V38.016A1.8,1.8,0,0,1,28.519,39.818ZM14.1,36.214H26.717V26.6H14.1Z" transform="translate(7.82 27.454)" fill="#171717"/>
    <path id="Path_175" data-name="Path 175" d="M17.25,17.75h3.6v3.6h-3.6Z" transform="translate(17.287 20.091)"/>
    <path id="Path_176" data-name="Path 176" d="M14,23.75h3.6v3.6H14Z" transform="translate(12.729 28.506)"/>
    <path id="Path_177" data-name="Path 177" d="M20.5,23.75h3.6v3.6H20.5Z" transform="translate(21.845 28.506)"/>
    <path id="Path_178" data-name="Path 178" d="M59.458,63.663H10.2a4.209,4.209,0,0,1-4.2-4.2V26.423a1.8,1.8,0,0,1,.781-1.485L33.81,6.318a1.8,1.8,0,0,1,2.045,0l27.029,18.62a1.809,1.809,0,0,1,.778,1.485V59.459A4.209,4.209,0,0,1,59.458,63.663ZM9.6,27.37V59.459a.6.6,0,0,0,.6.6H59.458a.6.6,0,0,0,.6-.6V27.37L34.831,9.992Z" transform="translate(1.508 3.609)" fill="#171717"/>
  </g>
</svg>
