<svg id="services2" xmlns="http://www.w3.org/2000/svg" width="44.038" height="41.521" viewBox="0 0 44.038 41.521">
  <path id="Path_13" data-name="Path 13" d="M42.208,5.258H40.339a.629.629,0,1,1,0-1.258h1.868a.629.629,0,1,1,0,1.258Z" transform="translate(-15.986 -4)" fill="#192839"/>
  <path id="Path_14" data-name="Path 14" d="M42.892,36.085H5.146A3.149,3.149,0,0,1,2,32.939V7.146A3.149,3.149,0,0,1,5.146,4H15.721a.629.629,0,1,1,0,1.258H5.146A1.887,1.887,0,0,0,3.258,7.146V32.939a1.887,1.887,0,0,0,1.887,1.887H42.892a1.887,1.887,0,0,0,1.887-1.887V7.146a1.887,1.887,0,0,0-1.887-1.887H32.625a.629.629,0,0,1,0-1.258H42.892a3.149,3.149,0,0,1,3.146,3.146V32.939A3.149,3.149,0,0,1,42.892,36.085Z" transform="translate(-2 -4)" fill="#192839"/>
  <path id="Path_15" data-name="Path 15" d="M32.264,5.258H30.439a.629.629,0,0,1,0-1.258h1.824a.629.629,0,1,1,0,1.258Z" transform="translate(-12.314 -4)" fill="#192839"/>
  <path id="Path_16" data-name="Path 16" d="M39.47,58.977H25.629A.629.629,0,0,1,25,58.347V53.629A.629.629,0,0,1,25.629,53H39.47a.629.629,0,0,1,.629.629v4.718A.629.629,0,0,1,39.47,58.977ZM26.258,57.718H38.84v-3.46H26.258Z" transform="translate(-10.53 -22.174)" fill="#192839"/>
  <path id="Path_17" data-name="Path 17" d="M40.841,66.477H20.317a.629.629,0,0,1-.629-.629V63.142A2.642,2.642,0,0,1,22.33,60.5h16.5a2.642,2.642,0,0,1,2.642,2.642v2.705a.629.629,0,0,1-.633.629ZM20.946,65.218H40.212V63.142a1.384,1.384,0,0,0-1.384-1.384h-16.5a1.384,1.384,0,0,0-1.384,1.384Z" transform="translate(-8.56 -24.955)" fill="#192839"/>
  <path id="Path_18" data-name="Path 18" d="M45.409,42.758H2.629a.629.629,0,1,1,0-1.258h42.78a.629.629,0,1,1,0,1.258Z" transform="translate(-2 -17.908)" fill="#192839"/>
  <path id="Path_19" data-name="Path 19" d="M12.337,48.175H10.358a.629.629,0,1,1,0-1.258h1.979a.629.629,0,1,1,0,1.258Z" transform="translate(-4.867 -19.917)" fill="#192839"/>
  <path id="Path_20" data-name="Path 20" d="M43.254,34.815a.629.629,0,0,1-.618-.518,15.777,15.777,0,0,0-31.047,0,.629.629,0,0,1-1.239-.223,17.036,17.036,0,0,1,33.524,0,.629.629,0,0,1-.508.73A.618.618,0,0,1,43.254,34.815Z" transform="translate(-5.093 -9.965)" fill="#192839"/>
  <path id="Path_21" data-name="Path 21" d="M36.629,27.465A.629.629,0,0,1,36,26.836V25.785a.629.629,0,0,1,1.258,0v1.051A.629.629,0,0,1,36.629,27.465Z" transform="translate(-14.61 -11.847)" fill="#192839"/>
  <path id="Path_22" data-name="Path 22" d="M24.907,32.32a.629.629,0,0,1-.445-.184l-.743-.743a.629.629,0,1,1,.89-.89l.743.743a.629.629,0,0,1-.445,1.074Z" transform="translate(-9.987 -13.761)" fill="#192839"/>
  <path id="Path_23" data-name="Path 23" d="M47.913,32.32a.629.629,0,0,1-.445-1.074l.743-.743a.629.629,0,1,1,.89.89l-.743.743A.629.629,0,0,1,47.913,32.32Z" transform="translate(-18.795 -13.761)" fill="#192839"/>
  <path id="Path_24" data-name="Path 24" d="M37.848,41.008a.629.629,0,0,1-.629-.629,2.34,2.34,0,1,0-4.679,0,.629.629,0,0,1-1.258,0,3.6,3.6,0,0,1,7.2,0A.629.629,0,0,1,37.848,41.008Z" transform="translate(-12.86 -16.158)" fill="#192839"/>
  <path id="Path_25" data-name="Path 25" d="M38.311,36.862a.629.629,0,0,1-.522-.978l1.694-2.537a.629.629,0,0,1,1.047.7l-1.694,2.533A.629.629,0,0,1,38.311,36.862Z" transform="translate(-15.234 -14.781)" fill="#192839"/>
</svg>
