<svg xmlns="http://www.w3.org/2000/svg" width="96" height="96" viewBox="0 0 96 96">
  <g id="services4" transform="translate(-1360 -2361)">
    <circle id="Ellipse_25" data-name="Ellipse 25" cx="48" cy="48" r="48" transform="translate(1360 2361)" fill="#1cb230" opacity="0.06"/>
    <path id="iceberg" d="M40.613,26.928l-7.3,11.928-.028.045a4.16,4.16,0,0,1-3.382,1.887h-.1a4.159,4.159,0,0,1-2.608-.921l-3.331,5.109-.01.016a4.1,4.1,0,0,1-3.424,1.833H20.4a4.1,4.1,0,0,1-3.428-1.89L5.5,27.148A1.829,1.829,0,1,1,8.58,25.166l11.464,17.79a.441.441,0,0,0,.382.212.435.435,0,0,0,.381-.2l4.1-6.292-2.4-3.778A1.829,1.829,0,0,1,25.6,30.938l3.822,6.016a.5.5,0,0,0,.8-.036l7.277-11.9a1.829,1.829,0,1,1,3.121,1.909Zm6.213-7.814A1.829,1.829,0,0,1,45,20.944H1.829a1.829,1.829,0,0,1,0-3.658H6.045l9.918-15.4A4.1,4.1,0,0,1,19.389,0h.035a4.1,4.1,0,0,1,3.424,1.833l.013.021,2.013,3.109.492-.774q.03-.048.064-.094a4.161,4.161,0,0,1,6.854.172l8.577,13.019H45a1.829,1.829,0,0,1,1.829,1.829ZM10.4,17.286H36.48L29.224,6.272a.5.5,0,0,0-.81-.057L24.591,12.23A1.829,1.829,0,1,1,21.5,10.268L22.716,8.36,19.8,3.855a.457.457,0,0,0-.761.013Z" transform="translate(1385 2386)" fill="#1cb230"/>
  </g>
</svg>
