<svg xmlns="http://www.w3.org/2000/svg" width="84.987" height="67.272" viewBox="0 0 84.987 67.272">
  <g id="services3" transform="translate(0)">
    <path id="Path_137" data-name="Path 137" d="M18.739,17.465,18.007,17V51.337l23.1-2.8V31.716H27.792Z" transform="translate(28.458 13.834)" fill="#f3f3f1"/>
    <path id="Path_138" data-name="Path 138" d="M18,16.75l9.8,15.416H46.725L41.116,19.553Z" transform="translate(28.451 13.383)" fill="#2fdf84"/>
    <path id="Path_139" data-name="Path 139" d="M17.989,16.753v0l0,0Z" transform="translate(28.42 13.383)" fill="#f3f3f1"/>
    <path id="Path_140" data-name="Path 140" d="M23.081,32.138H9.744V48.955l23.105,2.8V16.766Z" transform="translate(13.56 13.412)" fill="#f3f3f1"/>
    <path id="Path_141" data-name="Path 141" d="M36.472,16.75l-9.8,15.416H7.75l5.609-12.613Z" transform="translate(9.965 13.383)" fill="#2fdf84"/>
    <path id="Path_142" data-name="Path 142" d="M24.314,26.241l-5.575-8.776L18.007,17V51.337l6.307-.765Z" transform="translate(28.458 13.834)" fill="#d5dbe1"/>
    <path id="Path_143" data-name="Path 143" d="M18,16.75l9.8,15.416h6.307L24.837,17.58Z" transform="translate(28.451 13.383)" fill="#00b871"/>
    <path id="Path_144" data-name="Path 144" d="M35.945,17.58l.527-.83-23.113,2.8L7.75,32.166h6.307l5.609-12.613Z" transform="translate(9.965 13.383)" fill="#00b871"/>
    <path id="Path_145" data-name="Path 145" d="M16.051,39.068V22.25H9.744V39.068l23.105,2.8v-.765Z" transform="translate(13.56 23.299)" fill="#d5dbe1"/>
    <path id="Path_146" data-name="Path 146" d="M24.27,26.691V16.766L14.5,32.138h6.307Z" transform="translate(22.139 13.412)" fill="#d5dbe1"/>
    <g id="Group_56" data-name="Group 56" transform="translate(0 11.213)">
      <path id="Path_147" data-name="Path 147" d="M32.954,32.892a4.2,4.2,0,1,1,4.2-4.2A4.21,4.21,0,0,1,32.954,32.892Zm0-5.606a1.4,1.4,0,1,0,1.4,1.4A1.406,1.406,0,0,0,32.954,27.286Z" transform="translate(47.828 16.113)" fill="#a4afc1"/>
      <path id="Path_148" data-name="Path 148" d="M4.93,10h2.8v5.606H4.93Z" transform="translate(4.88 -10)" fill="#a4afc1"/>
      <path id="Path_149" data-name="Path 149" d="M4.93,15.75h2.8v5.606H4.93Z" transform="translate(4.88 0.367)" fill="#a4afc1"/>
      <path id="Path_150" data-name="Path 150" d="M1.43,13.25H7.036v2.8H1.43Z" transform="translate(-1.43 -4.14)" fill="#a4afc1"/>
      <path id="Path_151" data-name="Path 151" d="M7.18,13.25h5.606v2.8H7.18Z" transform="translate(8.937 -4.14)" fill="#a4afc1"/>
    </g>
    <path id="Path_152" data-name="Path 152" d="M34.2,55.232a1.874,1.874,0,0,1-.252-.017l-23.105-2.8a2.1,2.1,0,0,1-1.85-2.085V33.509h4.2V48.466l18.9,2.29V18.092h2.074l-1.418-1.528a2.12,2.12,0,0,1,2.279-.381A2.1,2.1,0,0,1,36.3,18.092V53.13a2.105,2.105,0,0,1-.709,1.575,2.08,2.08,0,0,1-1.39.527Z" transform="translate(12.208 12.04)"/>
    <path id="Path_153" data-name="Path 153" d="M19.359,53.439a2.1,2.1,0,0,1-2.1-2.1V17h4.2V48.962l18.9-2.29V31.716h4.2V48.534a2.1,2.1,0,0,1-1.847,2.085l-23.1,2.8A1.982,1.982,0,0,1,19.359,53.439Z" transform="translate(27.106 13.834)" fill="#171717"/>
    <path id="Path_154" data-name="Path 154" d="M48.077,35.621H29.149a2.1,2.1,0,0,1-1.774-.975L17.581,19.229a2.1,2.1,0,0,1,2.027-3.215l23.113,2.8a2.1,2.1,0,0,1,1.671,1.231L50,32.661a2.109,2.109,0,0,1-1.923,2.96ZM30.3,31.416H44.843l-3.809-8.569L23.512,20.723Z" transform="translate(27.099 12.031)" fill="#171717"/>
    <path id="Path_155" data-name="Path 155" d="M28.031,35.619H9.1A2.105,2.105,0,0,1,7.18,32.662l5.609-12.613a2.094,2.094,0,0,1,1.671-1.231l23.113-2.8A2.1,2.1,0,0,1,39.6,19.23L29.805,34.647a2.1,2.1,0,0,1-1.774.973Zm-15.694-4.2H26.876l6.794-10.691L16.149,22.849Z" transform="translate(8.612 12.032)" fill="#171717"/>
    <path id="Path_156" data-name="Path 156" d="M17.25,6.75h4.2V24.969h-4.2Z" transform="translate(27.093 -4.647)" fill="#171717"/>
    <path id="Path_157" data-name="Path 157" d="M32.512,16.778l-7.829-6.024-7.829,6.021-2.562-3.333L23.4,6.435a2.1,2.1,0,0,1,2.562,0l9.11,7.007Z" transform="translate(21.762 -6)" fill="#171717"/>
  </g>
</svg>
