<svg xmlns="http://www.w3.org/2000/svg" width="45.83" height="39.741" viewBox="0 0 45.83 39.741">
  <path id="top-cat1" d="M53.83,60.318a.739.739,0,0,0-.487-.695l-10.6-3.855V43.422h-.029a.732.732,0,0,0-.458-.893L31.167,38.5a.729.729,0,0,0-.5,0L19.575,42.529a.741.741,0,0,0-.468.534h-.019v12.7l-10.6,3.855a.741.741,0,0,0-.468.534H8v13.1h.018a.738.738,0,0,0,.468.856l11.088,4.031a.726.726,0,0,0,.5,0l10.836-3.94,10.836,3.94a.726.726,0,0,0,.5,0l11.088-4.031a.738.738,0,0,0,.459-.5h.028v-13.1s0-.131,0-.2ZM19.088,76.4,9.478,72.9V61.373l9.61,3.495Zm.739-12.835L10.9,60.318l8.867-3.225,8.926,3.246ZM30.176,72.9,20.566,76.4V64.867l9.61-3.495Zm0-13.642-9.61-3.495V44.279l9.61,3.495ZM21.99,43.224l8.925-3.245,8.925,3.245-8.925,3.245Zm19.274,1.055V55.768l-9.61,3.495V47.774Zm0,32.119L31.654,72.9V61.373l9.61,3.495ZM42,63.563l-8.868-3.224,8.926-3.246,8.867,3.225ZM52.352,72.9,42.742,76.4V64.867l9.61-3.495Z" transform="translate(-8 -38.453)" fill="#27cb8b"/>
</svg>
