<svg xmlns="http://www.w3.org/2000/svg" width="66.438" height="66.438" viewBox="0 0 66.438 66.438">
  <g id="services3" transform="translate(0)">
    <path id="Path_24" data-name="Path 24" d="M67.691,13.134,35.58,2.061a1.091,1.091,0,0,0-.722,0L2.746,13.134A1.107,1.107,0,0,0,2,14.18V67.33a1.107,1.107,0,0,0,1.107,1.107H7.536A1.107,1.107,0,0,0,8.644,67.33V28.575h53.15V67.33A1.107,1.107,0,0,0,62.9,68.438H67.33a1.107,1.107,0,0,0,1.107-1.107V14.18a1.107,1.107,0,0,0-.746-1.046ZM4.215,14.97l31-10.691,31,10.691v4.747H4.215ZM6.429,66.223H4.215V21.931H6.429ZM8.644,26.361V21.931h53.15v4.429ZM66.223,66.223H64.008V21.931h2.215Z" transform="translate(-2 -1.999)" fill="#f60"/>
    <path id="Path_25" data-name="Path 25" d="M32.429,16.858A4.429,4.429,0,1,0,28,12.429,4.429,4.429,0,0,0,32.429,16.858Zm0-6.644a2.215,2.215,0,1,1-2.215,2.215A2.215,2.215,0,0,1,32.429,10.215Z" transform="translate(0.79 -1.356)" fill="#f60"/>
    <path id="Path_26" data-name="Path 26" d="M57.614,63.433H53.184V46.824a1.107,1.107,0,0,0-1.107-1.107H44.326V29.107A1.107,1.107,0,0,0,43.219,28H25.5a1.107,1.107,0,0,0-1.107,1.107V45.717H16.644a1.107,1.107,0,0,0-1.107,1.107V63.433H11.107a1.107,1.107,0,0,0,0,2.215H57.614a1.107,1.107,0,0,0,0-2.215Zm-15.5-15.5h2.215v5.959l-.612-.307a1.107,1.107,0,0,0-.99,0l-.612.307ZM35.468,30.215v5.959l-.612-.307a1.107,1.107,0,0,0-.99,0l-.612.307V30.215Zm-8.858,0h4.429v7.751a1.107,1.107,0,0,0,1.6,1l1.72-.866,1.72.86a1.107,1.107,0,0,0,1.6-.991V30.215h4.429v15.5h-15.5ZM25.5,47.931h1.107v5.959L26,53.584a1.107,1.107,0,0,0-.99,0l-.612.307V47.931Zm-7.751,0H22.18v7.751a1.107,1.107,0,0,0,1.6,1l1.72-.866,1.72.86a1.107,1.107,0,0,0,1.6-.991V47.931h4.429v15.5h-15.5Zm17.717,0H39.9v7.751a1.107,1.107,0,0,0,1.6,1l1.72-.866,1.72.86a1.107,1.107,0,0,0,1.6-.991V47.931H50.97v15.5h-15.5Z" transform="translate(-1.142 0.79)" fill="#f60"/>
  </g>
</svg>
