<svg id="services1" xmlns="http://www.w3.org/2000/svg" width="43.104" height="44.083" viewBox="0 0 43.104 44.083">
  <path id="Path_7" data-name="Path 7" d="M68.62,40.963a.629.629,0,0,1-.6-.818,18.23,18.23,0,0,0,.553-2.225.629.629,0,1,1,1.237.228,19.349,19.349,0,0,1-.593,2.38.629.629,0,0,1-.6.435Z" transform="translate(-26.86 -15.086)" fill="#192839"/>
  <path id="Path_8" data-name="Path 8" d="M36.532,46.011H14.073a.629.629,0,0,1-.629-.629V40.871a1.851,1.851,0,0,0-1.85-1.85H9.782a2.906,2.906,0,0,1-2.906-2.9V30.56H3.239a.629.629,0,0,1-.561-.912l4.2-8.323a19.5,19.5,0,0,1,38.835-2.46.629.629,0,0,1-1.247.165A18.248,18.248,0,0,0,8.134,21.475a.624.624,0,0,1-.068.283L4.261,29.3H7.5a.629.629,0,0,1,.629.629v6.19a1.647,1.647,0,0,0,1.648,1.642h1.812A3.111,3.111,0,0,1,14.7,40.871v3.882H35.9a17.633,17.633,0,0,1,1.2-6.078.629.629,0,1,1,1.173.455,16.342,16.342,0,0,0-1.119,5.919v.333a.629.629,0,0,1-.629.629Z" transform="translate(-2.611 -1.927)" fill="#192839"/>
  <path id="Path_9" data-name="Path 9" d="M62.419,52.137a.629.629,0,0,1-.489-1.024l.052-.063c.116-.144.228-.283.346-.423.366-.44.713-.9,1.033-1.361a.629.629,0,1,1,1.036.714c-.34.494-.712.983-1.1,1.455-.114.135-.221.268-.332.405l-.053.063a.629.629,0,0,1-.49.235Z" transform="translate(-24.56 -19.384)" fill="#192839"/>
  <path id="Path_10" data-name="Path 10" d="M49.052,34.252a.629.629,0,0,1-.445-1.074l3.195-3.2-3.195-3.2a.629.629,0,1,1,.89-.89l3.639,3.64a.629.629,0,0,1,0,.89L49.5,34.068A.629.629,0,0,1,49.052,34.252Z" transform="translate(-19.602 -10.75)" fill="#192839"/>
  <path id="Path_11" data-name="Path 11" d="M28.583,34.252a.629.629,0,0,1-.445-.184L24.5,30.428a.629.629,0,0,1,0-.89l3.645-3.64a.629.629,0,1,1,.89.89l-3.2,3.2,3.2,3.2a.629.629,0,0,1-.445,1.074Z" transform="translate(-10.66 -10.75)" fill="#192839"/>
  <path id="Path_12" data-name="Path 12" d="M34.877,36.244a.621.621,0,0,1-.181-.026.629.629,0,0,1-.422-.783l5.1-16.986a.629.629,0,0,1,1.205.361L35.48,35.8A.629.629,0,0,1,34.877,36.244Z" transform="translate(-14.345 -7.888)" fill="#192839"/>
</svg>
