<svg xmlns="http://www.w3.org/2000/svg" width="61.372" height="62.767" viewBox="0 0 61.372 62.767">
  <g id="services3" transform="translate(-2.611 -1.927)">
    <path id="Path_89" data-name="Path 89" d="M68.886,42.471a.9.9,0,0,1-.853-1.164,25.955,25.955,0,0,0,.787-3.168.9.9,0,0,1,1.762.324,27.551,27.551,0,0,1-.844,3.389.9.9,0,0,1-.853.62Z" transform="translate(-6.816 -3.699)" fill="#4aa8c6"/>
    <path id="Path_90" data-name="Path 90" d="M50.909,64.695H18.931a.9.9,0,0,1-.9-.9V57.376A2.636,2.636,0,0,0,15.4,54.743h-2.58a4.138,4.138,0,0,1-4.138-4.129V42.7H3.506a.9.9,0,0,1-.8-1.3L8.684,29.546a27.768,27.768,0,0,1,55.294-3.5.9.9,0,0,1-1.775.235,25.982,25.982,0,0,0-51.728,3.484.888.888,0,0,1-.1.4L4.961,40.9H9.579a.9.9,0,0,1,.9.9v8.814a2.345,2.345,0,0,0,2.347,2.338H15.4a4.429,4.429,0,0,1,4.425,4.425V62.9H50.013a25.106,25.106,0,0,1,1.714-8.654A.9.9,0,1,1,53.4,54.9,23.268,23.268,0,0,0,51.8,63.324V63.8a.9.9,0,0,1-.9.9Z" transform="translate(0)" fill="#4aa8c6"/>
    <path id="Path_91" data-name="Path 91" d="M62.685,53.469a.9.9,0,0,1-.7-1.458l.074-.09c.165-.205.325-.4.493-.6.521-.627,1.016-1.279,1.471-1.938A.9.9,0,1,1,65.5,50.4c-.485.7-1.014,1.4-1.572,2.071-.162.192-.314.382-.472.577l-.075.09a.9.9,0,0,1-.7.334Z" transform="translate(-6.17 -4.907)" fill="#4aa8c6"/>
    <path id="Path_92" data-name="Path 92" d="M49.319,37.871a.9.9,0,0,1-.633-1.529l4.549-4.549-4.549-4.549a.9.9,0,1,1,1.267-1.267l5.182,5.183a.9.9,0,0,1,0,1.267l-5.182,5.183A.9.9,0,0,1,49.319,37.871Z" transform="translate(-4.776 -2.48)" fill="#4aa8c6"/>
    <path id="Path_93" data-name="Path 93" d="M30.392,37.871a.9.9,0,0,1-.633-.262l-5.184-5.183a.9.9,0,0,1,0-1.267l5.19-5.183a.9.9,0,1,1,1.267,1.267l-4.555,4.549,4.55,4.549a.9.9,0,0,1-.633,1.529Z" transform="translate(-2.263 -2.48)" fill="#4aa8c6"/>
    <path id="Path_94" data-name="Path 94" d="M35.144,43.977a.884.884,0,0,1-.257-.038.9.9,0,0,1-.6-1.115l7.256-24.185a.9.9,0,0,1,1.716.514L36,43.338A.9.9,0,0,1,35.144,43.977Z" transform="translate(-3.298 -1.676)" fill="#4aa8c6"/>
  </g>
</svg>
