<svg xmlns="http://www.w3.org/2000/svg" width="53.46" height="44.052" viewBox="0 0 53.46 44.052">
  <g id="services2" transform="translate(0)">
    <path id="Path_81" data-name="Path 81" d="M2.764,34.936A.764.764,0,0,1,2,34.172V31.9a.764.764,0,1,1,1.527,0v2.268A.764.764,0,0,1,2.764,34.936Z" transform="translate(-2 -13.59)" fill="#fff"/>
    <path id="Path_82" data-name="Path 82" d="M46.929,52.211H2.764A.764.764,0,0,1,2,51.447v-9.8a.764.764,0,0,1,1.527,0v9.035H46.165V10.006L28.779,16.181a.771.771,0,0,1-.444.02L3.527,9.906V21.128a.764.764,0,0,1-1.527,0V8.924a.764.764,0,0,1,.952-.74l25.535,6.48L46.677,8.2a.764.764,0,0,1,1.02.719V51.447a.764.764,0,0,1-.768.764Z" transform="translate(-2 -8.16)" fill="#fff"/>
    <path id="Path_83" data-name="Path 83" d="M2.764,44.852A.764.764,0,0,1,2,44.088V41.874a.764.764,0,0,1,1.527,0v2.215A.764.764,0,0,1,2.764,44.852Z" transform="translate(-2 -15.946)" fill="#fff"/>
    <path id="Path_84" data-name="Path 84" d="M49.347,26.046a.764.764,0,0,1-.764-.764v-.833a.764.764,0,0,1,1.527,0v.833A.764.764,0,0,1,49.347,26.046Z" transform="translate(-13.007 -11.829)" fill="#fff"/>
    <path id="Path_85" data-name="Path 85" d="M37.564,26.046a.764.764,0,0,1-.764-.764v-.833a.764.764,0,1,1,1.527,0v.833A.764.764,0,0,1,37.564,26.046Z" transform="translate(-10.223 -11.829)" fill="#fff"/>
    <path id="Path_86" data-name="Path 86" d="M25.787,26.046a.764.764,0,0,1-.764-.764v-.833a.764.764,0,0,1,1.527,0v.833A.764.764,0,0,1,25.787,26.046Z" transform="translate(-7.44 -11.829)" fill="#fff"/>
    <path id="Path_87" data-name="Path 87" d="M14.008,26.046a.764.764,0,0,1-.764-.764v-.833a.764.764,0,0,1,1.527,0v.833A.764.764,0,0,1,14.008,26.046Z" transform="translate(-4.657 -11.829)" fill="#fff"/>
    <path id="Path_88" data-name="Path 88" d="M49.347,32.991a.764.764,0,0,1-.764-.764v-.833a.764.764,0,0,1,1.527,0v.833A.764.764,0,0,1,49.347,32.991Z" transform="translate(-13.007 -13.47)" fill="#fff"/>
    <path id="Path_89" data-name="Path 89" d="M37.564,32.991a.764.764,0,0,1-.764-.764v-.833a.764.764,0,1,1,1.527,0v.833A.764.764,0,0,1,37.564,32.991Z" transform="translate(-10.223 -13.47)" fill="#fff"/>
    <path id="Path_90" data-name="Path 90" d="M25.787,32.991a.764.764,0,0,1-.764-.764v-.833a.764.764,0,1,1,1.527,0v.833A.764.764,0,0,1,25.787,32.991Z" transform="translate(-7.44 -13.47)" fill="#fff"/>
    <path id="Path_91" data-name="Path 91" d="M14.008,32.991a.764.764,0,0,1-.764-.764v-.833a.764.764,0,1,1,1.527,0v.833A.764.764,0,0,1,14.008,32.991Z" transform="translate(-4.657 -13.47)" fill="#fff"/>
    <path id="Path_92" data-name="Path 92" d="M49.347,39.937a.764.764,0,0,1-.764-.764V38.34a.764.764,0,0,1,1.527,0v.833A.764.764,0,0,1,49.347,39.937Z" transform="translate(-13.007 -15.111)" fill="#fff"/>
    <path id="Path_93" data-name="Path 93" d="M37.564,39.937a.764.764,0,0,1-.764-.764V38.34a.764.764,0,1,1,1.527,0v.833A.764.764,0,0,1,37.564,39.937Z" transform="translate(-10.223 -15.111)" fill="#fff"/>
    <path id="Path_94" data-name="Path 94" d="M25.787,39.937a.764.764,0,0,1-.764-.764V38.34a.764.764,0,0,1,1.527,0v.833A.764.764,0,0,1,25.787,39.937Z" transform="translate(-7.44 -15.111)" fill="#fff"/>
    <path id="Path_95" data-name="Path 95" d="M14.008,39.937a.764.764,0,0,1-.764-.764V38.34a.764.764,0,0,1,1.527,0v.833A.764.764,0,0,1,14.008,39.937Z" transform="translate(-4.657 -15.111)" fill="#fff"/>
    <path id="Path_96" data-name="Path 96" d="M35.443,61.574h-10.9a.764.764,0,0,1-.764-.764V48.543a.764.764,0,0,1,.764-.764h10.9a.764.764,0,0,1,.764.764V60.81A.764.764,0,0,1,35.443,61.574ZM25.3,60.046h9.378V49.306H25.3Z" transform="translate(-7.145 -17.522)" fill="#fff"/>
    <path id="Path_97" data-name="Path 97" d="M68.36,55.564H60.591a.764.764,0,0,1-.764-.764V23.111a.764.764,0,0,1,.764-.764H68.36a.764.764,0,0,1,.764.764V54.8A.764.764,0,0,1,68.36,55.564Zm-7.006-1.527H67.6V23.874H61.354Z" transform="translate(-15.664 -11.512)" fill="#fff"/>
  </g>
</svg>
