<svg xmlns="http://www.w3.org/2000/svg" width="96" height="96" viewBox="0 0 96 96">
  <g id="services3" transform="translate(-1360 -2361)">
    <circle id="Ellipse_25" data-name="Ellipse 25" cx="48" cy="48" r="48" transform="translate(1360 2361)" fill="#1cb230" opacity="0.06"/>
    <path id="love" d="M23.793,21.531a1.9,1.9,0,0,1-1.232-1.275h0l0,.01a9.607,9.607,0,0,0-9.416-6.452c-4.259,0-9.336,1.862-9.336,10.734,0,3.467,2.23,8.046,6.448,13.241a84.344,84.344,0,0,0,11.43,11.345,1.905,1.905,0,1,1-2.412,2.95A88.348,88.348,0,0,1,7.3,40.191C2.456,34.225,0,28.962,0,24.548c0-4.795,1.3-8.518,3.853-11.066A12.807,12.807,0,0,1,13.147,10a13.286,13.286,0,0,1,10.419,4.564c.323.373.61.745.866,1.108.266-.367.564-.744.9-1.123A13.339,13.339,0,0,1,35.63,10a12.807,12.807,0,0,1,9.294,3.478c2.557,2.548,3.853,6.271,3.853,11.066a16.717,16.717,0,0,1-1.671,6.82,1.905,1.905,0,0,1-3.471-1.574,13,13,0,0,0,1.331-5.247c0-8.871-5.077-10.734-9.336-10.734a10.038,10.038,0,0,0-9.432,6.5,1.905,1.905,0,0,1-2.406,1.214ZM43.38,53.585a9.935,9.935,0,0,1-7.065,3.291h-.054a9.611,9.611,0,0,1-6.13-2.225,28.825,28.825,0,0,1-2.925,1.262,1.905,1.905,0,0,1-1.258-3.6c.025-.009.934-.334,2.306-1a11.577,11.577,0,0,1-.438-2.894,9.979,9.979,0,0,1,3.29-7.108c5.412-5.413,14.455-5.422,15.7-5.4a1.905,1.905,0,0,1,1.964,1.827s0,0,0,.006c.015.411.306,10.134-5.391,15.833ZM44.9,39.794c-2.761.2-7.9,1.021-11.1,4.215a6.261,6.261,0,0,0-2.174,4.414,6.176,6.176,0,0,0,.094.967,27.177,27.177,0,0,0,6.115-5.184,1.905,1.905,0,1,1,2.9,2.474,30.947,30.947,0,0,1-6.857,5.863,6.163,6.163,0,0,0,2.406.521h.029a6.226,6.226,0,0,0,4.37-2.174C43.877,47.7,44.7,42.558,44.9,39.794Z" transform="translate(1384 2375.996)" fill="#1cb230"/>
  </g>
</svg>
