<svg id="services3" xmlns="http://www.w3.org/2000/svg" width="44.038" height="44.038" viewBox="0 0 44.038 44.038">
  <path id="Path_40" data-name="Path 40" d="M45.528,71.258H43.659a.629.629,0,1,1,0-1.258h1.868a.629.629,0,1,1,0,1.258Z" transform="translate(-17.218 -27.221)" fill="#192839"/>
  <path id="Path_41" data-name="Path 41" d="M44.15,46.038H34.714a.629.629,0,1,1,0-1.258H44.15a.629.629,0,0,0,.629-.629V3.887a.629.629,0,0,0-.629-.629H3.887a.629.629,0,0,0-.629.629V44.15a.629.629,0,0,0,.629.629H17.81a.629.629,0,1,1,0,1.258H3.887A1.887,1.887,0,0,1,2,44.15V3.887A1.887,1.887,0,0,1,3.887,2H44.15a1.887,1.887,0,0,1,1.887,1.887V44.15A1.887,1.887,0,0,1,44.15,46.038Z" transform="translate(-2 -2)" fill="#192839"/>
  <path id="Path_42" data-name="Path 42" d="M35.584,71.258H33.759a.629.629,0,1,1,0-1.258h1.824a.629.629,0,1,1,0,1.258Z" transform="translate(-13.546 -27.221)" fill="#192839"/>
  <path id="Path_43" data-name="Path 43" d="M45.409,18.258H2.629a.629.629,0,1,1,0-1.258h42.78a.629.629,0,1,1,0,1.258Z" transform="translate(-2 -7.563)" fill="#192839"/>
  <path id="Path_44" data-name="Path 44" d="M61.268,11.357A2.087,2.087,0,1,1,63.352,9.27a2.087,2.087,0,0,1-2.084,2.087Zm0-2.915a.829.829,0,1,0,.825.829.829.829,0,0,0-.825-.829Z" transform="translate(-23.207 -3.922)" fill="#192839"/>
  <path id="Path_45" data-name="Path 45" d="M51.6,11.357A2.087,2.087,0,1,1,53.69,9.27,2.087,2.087,0,0,1,51.6,11.357Zm0-2.915a.829.829,0,1,0,.829.829A.829.829,0,0,0,51.6,8.441Z" transform="translate(-19.623 -3.922)" fill="#192839"/>
  <path id="Path_46" data-name="Path 46" d="M41.941,11.357A2.087,2.087,0,1,1,44.028,9.27,2.087,2.087,0,0,1,41.941,11.357Zm0-2.915a.829.829,0,1,0,.829.829A.829.829,0,0,0,41.941,8.441Z" transform="translate(-16.04 -3.922)" fill="#192839"/>
  <path id="Path_47" data-name="Path 47" d="M24.125,10.758H8.817a.629.629,0,0,1,0-1.258H24.125a.629.629,0,1,1,0,1.258Z" transform="translate(-4.295 -4.782)" fill="#192839"/>
  <path id="Path_48" data-name="Path 48" d="M40.065,48.151H18.046a2.469,2.469,0,0,1-2.466-2.466V32.828a2.469,2.469,0,0,1,2.466-2.466H40.065a2.469,2.469,0,0,1,2.466,2.466V45.685A2.469,2.469,0,0,1,40.065,48.151ZM18.046,31.62a1.209,1.209,0,0,0-1.208,1.208V45.685a1.209,1.209,0,0,0,1.208,1.208H40.065a1.209,1.209,0,0,0,1.208-1.208V32.828a1.209,1.209,0,0,0-1.208-1.208Z" transform="translate(-7.037 -12.519)" fill="#192839"/>
  <path id="Path_49" data-name="Path 49" d="M32.21,46.362a1.645,1.645,0,0,1-.812-.216,1.628,1.628,0,0,1-.836-1.433V38.945a1.646,1.646,0,0,1,2.494-1.412l4.807,2.883a1.647,1.647,0,0,1,0,2.825l-4.807,2.883A1.639,1.639,0,0,1,32.21,46.362Zm0-7.807a.4.4,0,0,0-.194.052.377.377,0,0,0-.2.338v5.768a.389.389,0,0,0,.588.333l4.807-2.883a.389.389,0,0,0,0-.667l-4.8-2.883a.377.377,0,0,0-.2-.055Z" transform="translate(-12.593 -15.092)" fill="#192839"/>
</svg>
