<svg xmlns="http://www.w3.org/2000/svg" xmlns:xlink="http://www.w3.org/1999/xlink" width="49.443" height="45.398" viewBox="0 0 49.443 45.398">
  <defs>
    <linearGradient id="linear-gradient" x1="0.5" x2="0.5" y2="1" gradientUnits="objectBoundingBox">
      <stop offset="0" stop-color="#ff4495"/>
      <stop offset="1" stop-color="#ff6d6d"/>
    </linearGradient>
  </defs>
  <g id="services3" transform="translate(0)">
    <g id="Group_12" data-name="Group 12" transform="translate(0 0)">
      <g id="Group_11" data-name="Group 11">
        <path id="Path_18" data-name="Path 18" d="M49.04,24.953l-2.174-1.338a.845.845,0,0,0-1.025.107l-1.19,1.131a4.621,4.621,0,0,1-4.1,1.188,5.3,5.3,0,0,0-10.459-1q-.562,2.383-1.286,4.718h-.335a6.835,6.835,0,0,0-4.8,1.955,5.154,5.154,0,0,1-3.619,1.474H2.535a8.232,8.232,0,0,1,0-7.257H27.048a.845.845,0,1,0,0-1.691H2.023a.845.845,0,0,0-.737.431,9.923,9.923,0,0,0-.076,9.635l.07.129a.846.846,0,0,0,.743.443H20.055a6.835,6.835,0,0,0,4.8-1.955,5.15,5.15,0,0,1,3.407-1.469A73.271,73.271,0,0,1,12.729,57.7a3.973,3.973,0,0,0-.016,5.4l1.767,1.937a4.009,4.009,0,0,0,2.938,1.3h.015a3.988,3.988,0,0,0,2.919-1.273A83.8,83.8,0,0,0,39.365,31.452h2.783a7.542,7.542,0,0,0,7.265-5.557A.845.845,0,0,0,49.04,24.953ZM38.852,26.569c0,.011,0,.021,0,.032a3.686,3.686,0,0,1-.075.445A82.02,82.02,0,0,1,19.112,63.917a2.262,2.262,0,0,1-1.678.731h-.009a2.284,2.284,0,0,1-1.7-.752L13.961,61.96a2.292,2.292,0,0,1,.011-3.115A74.832,74.832,0,0,0,31.741,25.432a3.611,3.611,0,0,1,6.493-1.237A3.533,3.533,0,0,1,38.852,26.569Zm3.3,3.193H39.833q.27-1.016.515-2.039a6.306,6.306,0,0,0,5.468-1.644l.718-.683,1.052.648A5.851,5.851,0,0,1,42.148,29.762Z" transform="translate(0 -20.94)" fill="url(#linear-gradient)"/>
      </g>
    </g>
    <g id="Group_14" data-name="Group 14" transform="translate(14.989 38.508)">
      <g id="Group_13" data-name="Group 13">
        <ellipse id="Ellipse_3" data-name="Ellipse 3" cx="0.941" cy="0.941" rx="0.941" ry="0.941" fill="url(#linear-gradient)"/>
      </g>
    </g>
  </g>
</svg>
