<svg xmlns="http://www.w3.org/2000/svg" width="51.399" height="51.399" viewBox="0 0 51.399 51.399">
  <g id="services3" transform="translate(0)">
    <path id="Path_18" data-name="Path 18" d="M50.165,121.656,44.5,117.948,43.471,99.413A3.616,3.616,0,0,0,39.862,96H30.811A3.616,3.616,0,0,0,27.2,99.413l-.951,17.1-6.183-4.048-.053-.033a2.61,2.61,0,0,0-3.953,2.238v5.687L4.006,112.469l-.053-.033A2.61,2.61,0,0,0,0,114.674v21.482a1.606,1.606,0,0,0,1.606,1.606H49.793a1.606,1.606,0,0,0,1.606-1.606V123.874A2.624,2.624,0,0,0,50.165,121.656ZM30.41,99.592a.4.4,0,0,1,.4-.379h9.051a.4.4,0,0,1,.4.379l.9,16.171-5.03-3.293-.053-.033a2.61,2.61,0,0,0-3.953,2.238v5.687l-2.768-1.812Zm-27.2,16.2,12.85,8.412v10.349H3.212Zm16.062,8.085v-8.085l12.85,8.412v10.349H19.275Zm28.912,10.675H35.337v-18.76l12.85,8.412Z" transform="translate(0 -86.363)" fill="#e61818"/>
    <path id="Path_19" data-name="Path 19" d="M16.062,15.259H4.819a4.819,4.819,0,0,1,0-9.637h.8v-.8a4.819,4.819,0,1,1,9.637,0v.8h.8a4.819,4.819,0,0,1,0,9.637ZM4.819,8.834a1.606,1.606,0,0,0,0,3.212H16.062a1.606,1.606,0,0,0,0-3.212H13.653a1.606,1.606,0,0,1-1.606-1.606V4.819a1.606,1.606,0,1,0-3.212,0V7.228A1.606,1.606,0,0,1,7.228,8.834Z" transform="translate(0)" fill="#e61818"/>
  </g>
</svg>
