<svg xmlns="http://www.w3.org/2000/svg" width="78" height="78" viewBox="0 0 78 78">
  <g id="services2" transform="translate(-335 -1174)">
    <circle id="Ellipse_8" data-name="Ellipse 8" cx="39" cy="39" r="39" transform="translate(335 1174)" fill="#1a1c1e"/>
    <g id="monitor-screen_1_" data-name="monitor-screen (1)" transform="translate(353.513 1193.427)">
      <path id="Path_13" data-name="Path 13" d="M42.036,5.172H40.3A.586.586,0,1,1,40.3,4h1.74a.586.586,0,1,1,0,1.172Z" transform="translate(-17.617 -4)" fill="#fff"/>
      <path id="Path_14" data-name="Path 14" d="M40.081,33.879H4.929A2.933,2.933,0,0,1,2,30.95V6.929A2.933,2.933,0,0,1,4.929,4h9.848a.586.586,0,1,1,0,1.172H4.929A1.758,1.758,0,0,0,3.172,6.929V30.95a1.758,1.758,0,0,0,1.758,1.758H40.081a1.758,1.758,0,0,0,1.758-1.758V6.929a1.758,1.758,0,0,0-1.758-1.758H30.52A.586.586,0,0,1,30.52,4h9.561A2.933,2.933,0,0,1,43.01,6.929V30.95A2.933,2.933,0,0,1,40.081,33.879Z" transform="translate(-2 -4)" fill="#fff"/>
      <path id="Path_15" data-name="Path 15" d="M32.095,5.172H30.4A.586.586,0,0,1,30.4,4h1.7a.586.586,0,1,1,0,1.172Z" transform="translate(-13.517 -4)" fill="#fff"/>
      <path id="Path_16" data-name="Path 16" d="M38.475,58.566H25.586A.586.586,0,0,1,25,57.98V53.586A.586.586,0,0,1,25.586,53H38.475a.586.586,0,0,1,.586.586V57.98A.586.586,0,0,1,38.475,58.566Zm-12.3-1.172H37.889V54.172H26.172Z" transform="translate(-11.525 -24.293)" fill="#fff"/>
      <path id="Path_17" data-name="Path 17" d="M39.387,66.066H20.274a.586.586,0,0,1-.586-.586V62.961A2.461,2.461,0,0,1,22.149,60.5H37.516a2.461,2.461,0,0,1,2.461,2.461V65.48a.586.586,0,0,1-.589.586ZM20.86,64.894H38.8V62.961a1.289,1.289,0,0,0-1.289-1.289H22.147a1.289,1.289,0,0,0-1.289,1.289Z" transform="translate(-9.325 -27.399)" fill="#fff"/>
      <path id="Path_18" data-name="Path 18" d="M42.425,42.672H2.586a.586.586,0,1,1,0-1.172H42.425a.586.586,0,1,1,0,1.172Z" transform="translate(-2 -19.53)" fill="#fff"/>
      <path id="Path_19" data-name="Path 19" d="M12.158,48.089H10.315a.586.586,0,1,1,0-1.172h1.843a.586.586,0,1,1,0,1.172Z" transform="translate(-5.201 -21.774)" fill="#fff"/>
      <path id="Path_20" data-name="Path 20" d="M40.991,33.8a.586.586,0,0,1-.576-.482,14.693,14.693,0,0,0-28.912,0,.586.586,0,0,1-1.154-.207,15.865,15.865,0,0,1,31.219,0,.586.586,0,0,1-.473.68A.575.575,0,0,1,40.991,33.8Z" transform="translate(-5.454 -10.66)" fill="#fff"/>
      <path id="Path_21" data-name="Path 21" d="M36.586,27.306A.586.586,0,0,1,36,26.72v-.978a.586.586,0,0,1,1.172,0v.978A.586.586,0,0,1,36.586,27.306Z" transform="translate(-16.081 -12.761)" fill="#fff"/>
      <path id="Path_22" data-name="Path 22" d="M24.813,32.183a.586.586,0,0,1-.414-.172l-.692-.692a.586.586,0,1,1,.828-.828l.692.692a.586.586,0,0,1-.414,1Z" transform="translate(-10.918 -14.9)" fill="#fff"/>
      <path id="Path_23" data-name="Path 23" d="M47.87,32.183a.586.586,0,0,1-.414-1l.692-.692a.586.586,0,1,1,.828.828l-.692.692A.586.586,0,0,1,47.87,32.183Z" transform="translate(-20.754 -14.9)" fill="#fff"/>
      <path id="Path_24" data-name="Path 24" d="M37.4,40.717a.586.586,0,0,1-.586-.586,2.179,2.179,0,0,0-4.358,0,.586.586,0,0,1-1.172,0,3.351,3.351,0,0,1,6.7,0A.586.586,0,0,1,37.4,40.717Z" transform="translate(-14.126 -17.576)" fill="#fff"/>
      <path id="Path_25" data-name="Path 25" d="M38.268,36.6a.586.586,0,0,1-.486-.911l1.577-2.363a.586.586,0,0,1,.975.651l-1.578,2.359A.586.586,0,0,1,38.268,36.6Z" transform="translate(-16.778 -16.038)" fill="#fff"/>
    </g>
  </g>
</svg>
