<svg xmlns="http://www.w3.org/2000/svg" width="48.485" height="40.012" viewBox="0 0 48.485 40.012">
  <g id="top-cat4" transform="translate(0 -11.184)">
    <path id="Path_257" data-name="Path 257" d="M37.548,22.137h-.9v-8.4a2.56,2.56,0,0,0-2.557-2.557h-1.9l-.027,0a.644.644,0,0,0-.13.019l-.043.013a.671.671,0,0,0-.114.048c-.008,0-.017.006-.025.011A50.486,50.486,0,0,1,5.9,18.467H4.451A4.456,4.456,0,0,0,0,22.917v6.55a4.456,4.456,0,0,0,4.451,4.45H5.492L2.963,48.65A2.178,2.178,0,0,0,5.109,51.2h3.46a2.173,2.173,0,0,0,2.147-1.809l.8-4.621h1.364a2.172,2.172,0,0,0,2.147-1.809L15.65,39.3a2.177,2.177,0,0,0-2.15-2.546h-.614l.393-2.287a50.467,50.467,0,0,1,18.546,6.62l.016.009.016.009h0a.661.661,0,0,0,.156.067l.009,0a.662.662,0,0,0,.172.025h1.894a2.56,2.56,0,0,0,2.557-2.557V30.251h.9a2.939,2.939,0,0,0,2.936-2.936V25.072a2.939,2.939,0,0,0-2.936-2.934ZM1.326,29.467v-6.55a3.128,3.128,0,0,1,3.125-3.125H5.9A51.8,51.8,0,0,0,31.532,13l0,26.38a51.8,51.8,0,0,0-18.67-6.316.093.093,0,0,1-.017,0,.241.241,0,0,0-.029,0,51.764,51.764,0,0,0-6.924-.47H4.451a3.128,3.128,0,0,1-3.125-3.125ZM13.5,38.08a.852.852,0,0,1,.84,1l-.628,3.656a.85.85,0,0,1-.84.708H11.736l.689-4.008.232-1.352ZM9.409,49.163a.851.851,0,0,1-.84.708H5.109a.852.852,0,0,1-.84-1l2.567-14.94a50.512,50.512,0,0,1,5.128.358ZM35.322,38.646a1.233,1.233,0,0,1-1.231,1.231H32.86V12.51h1.231a1.233,1.233,0,0,1,1.231,1.231Zm3.835-11.331a1.612,1.612,0,0,1-1.61,1.61h-.9V23.463h.9a1.611,1.611,0,0,1,1.61,1.61Z" transform="translate(0 0)" fill="#27cb8b"/>
    <path id="Path_258" data-name="Path 258" d="M22.487,46.955a.663.663,0,0,0,.807-.647V35.651A.663.663,0,0,0,22.487,35a53.592,53.592,0,0,1-11.622,1.28H9.42A1.422,1.422,0,0,0,8,37.7v6.55a1.422,1.422,0,0,0,1.42,1.42h1.444a53.6,53.6,0,0,1,11.622,1.28Zm-13.161-2.7V37.7a.1.1,0,0,1,.095-.095h1.444a54.9,54.9,0,0,0,11.1-1.14v9.015a54.909,54.909,0,0,0-11.1-1.136H9.42A.1.1,0,0,1,9.326,44.254Z" transform="translate(-4.97 -14.787)" fill="#27cb8b"/>
    <path id="Path_259" data-name="Path 259" d="M119.028,49.059h-3.741a.663.663,0,0,0,0,1.326h3.741a.663.663,0,1,0,0-1.326Z" transform="translate(-71.206 -23.528)" fill="#27cb8b"/>
    <path id="Path_260" data-name="Path 260" d="M110.513,34.512a.66.66,0,0,0,.469-.194l2.645-2.645a.663.663,0,1,0-.937-.937l-2.645,2.645a.663.663,0,0,0,.469,1.131Z" transform="translate(-68.24 -12.025)" fill="#27cb8b"/>
    <path id="Path_261" data-name="Path 261" d="M110.979,60.787a.663.663,0,0,0-.937.938l2.645,2.645a.663.663,0,1,0,.937-.938Z" transform="translate(-68.238 -30.693)" fill="#27cb8b"/>
  </g>
</svg>
