<svg id="services2" xmlns="http://www.w3.org/2000/svg" width="57.001" height="57.001" viewBox="0 0 57.001 57.001">
  <g id="Group_679" data-name="Group 679" transform="translate(23.75 11.875)">
    <g id="Group_678" data-name="Group 678">
      <path id="Path_706" data-name="Path 706" d="M245.4,118.54h-3.27c-.065-.165-.133-.329-.207-.494l2.314-2.313a1.188,1.188,0,0,0,0-1.679l-5.039-5.039a1.188,1.188,0,0,0-1.679,0L235.2,111.33c-.165-.072-.329-.141-.494-.208v-3.269a1.188,1.188,0,0,0-1.188-1.188H226.4a1.188,1.188,0,0,0-1.188,1.188v3.269c-.165.066-.329.135-.494.208l-2.313-2.314a1.188,1.188,0,0,0-1.679,0l-5.039,5.039a1.188,1.188,0,0,0,0,1.679L218,118.046c-.074.165-.141.329-.207.494h-3.27a1.188,1.188,0,0,0-1.188,1.188v7.125a1.188,1.188,0,0,0,1.188,1.188h3.27c.065.165.133.329.207.494l-2.314,2.313a1.188,1.188,0,0,0,0,1.679l5.039,5.039a1.188,1.188,0,0,0,1.679,0l2.313-2.314c.165.072.329.141.494.208v3.269a1.188,1.188,0,0,0,1.188,1.188h7.125a1.188,1.188,0,0,0,1.188-1.188v-3.269c.165-.066.329-.135.494-.208l2.313,2.314a1.188,1.188,0,0,0,1.679,0l5.039-5.039a1.188,1.188,0,0,0,0-1.679l-2.314-2.313c.074-.165.141-.329.207-.494h3.27a1.188,1.188,0,0,0,1.188-1.188v-7.125A1.188,1.188,0,0,0,245.4,118.54Zm-1.187,7.125h-2.919a1.188,1.188,0,0,0-1.133.831,10.786,10.786,0,0,1-.724,1.731,1.188,1.188,0,0,0,.213,1.389l2.07,2.07-3.359,3.359-2.069-2.071a1.187,1.187,0,0,0-1.389-.213,10.627,10.627,0,0,1-1.733.724,1.188,1.188,0,0,0-.831,1.133v2.92h-4.75v-2.919a1.188,1.188,0,0,0-.831-1.133,10.635,10.635,0,0,1-1.733-.724,1.188,1.188,0,0,0-1.389.213l-2.07,2.07-3.359-3.359,2.071-2.07a1.187,1.187,0,0,0,.213-1.389,10.782,10.782,0,0,1-.724-1.731,1.188,1.188,0,0,0-1.133-.831h-2.92v-4.75h2.919a1.188,1.188,0,0,0,1.133-.831,10.785,10.785,0,0,1,.724-1.731,1.188,1.188,0,0,0-.213-1.389l-2.07-2.07,3.359-3.359,2.069,2.071a1.188,1.188,0,0,0,1.389.213,10.629,10.629,0,0,1,1.733-.724,1.188,1.188,0,0,0,.831-1.133v-2.92h4.749v2.919a1.188,1.188,0,0,0,.831,1.133,10.637,10.637,0,0,1,1.733.724,1.188,1.188,0,0,0,1.389-.213l2.07-2.07,3.359,3.359-2.071,2.07a1.187,1.187,0,0,0-.213,1.389,10.785,10.785,0,0,1,.724,1.731,1.188,1.188,0,0,0,1.133.831h2.92v4.75Z" transform="translate(-213.333 -106.665)" fill="#ff9100"/>
    </g>
  </g>
  <g id="Group_681" data-name="Group 681" transform="translate(34.438 22.563)">
    <g id="Group_680" data-name="Group 680">
      <path id="Path_707" data-name="Path 707" d="M315.272,202.667a5.938,5.938,0,1,0,5.938,5.938A5.938,5.938,0,0,0,315.272,202.667Zm0,9.5a3.563,3.563,0,1,1,3.563-3.563A3.563,3.563,0,0,1,315.272,212.167Z" transform="translate(-309.334 -202.667)" fill="#ff9100"/>
    </g>
  </g>
  <g id="Group_683" data-name="Group 683">
    <g id="Group_682" data-name="Group 682">
      <path id="Path_708" data-name="Path 708" d="M42.75,9.5V5.938A5.945,5.945,0,0,0,36.813,0H10.688a1.188,1.188,0,0,0-.84.348l-9.5,9.5a1.188,1.188,0,0,0-.348.84V51.063A5.945,5.945,0,0,0,5.938,57H36.813a5.945,5.945,0,0,0,5.938-5.938V47.5H40.375v3.563a3.563,3.563,0,0,1-3.563,3.563H5.938a3.563,3.563,0,0,1-3.563-3.563V11.179l8.8-8.8H36.813a3.563,3.563,0,0,1,3.563,3.563V9.5Z" fill="#ff9100"/>
    </g>
  </g>
  <g id="Group_685" data-name="Group 685" transform="translate(5.938 1.188)">
    <g id="Group_684" data-name="Group 684">
      <path id="Path_709" data-name="Path 709" d="M56.9,10.667v7.125a1.188,1.188,0,0,1-1.188,1.188H53.333v2.375h2.375a3.563,3.563,0,0,0,3.563-3.563V10.667Z" transform="translate(-53.333 -10.667)" fill="#ff9100"/>
    </g>
  </g>
  <g id="Group_687" data-name="Group 687" transform="translate(10.688 27.313)">
    <g id="Group_686" data-name="Group 686">
      <rect id="Rectangle_286" data-name="Rectangle 286" width="10.688" height="2.375" fill="#ff9100"/>
    </g>
  </g>
  <g id="Group_689" data-name="Group 689" transform="translate(5.938 27.313)">
    <g id="Group_688" data-name="Group 688">
      <rect id="Rectangle_287" data-name="Rectangle 287" width="2.375" height="2.375" fill="#ff9100"/>
    </g>
  </g>
  <g id="Group_691" data-name="Group 691" transform="translate(13.063 35.625)">
    <g id="Group_690" data-name="Group 690">
      <rect id="Rectangle_288" data-name="Rectangle 288" width="9.5" height="2.375" fill="#ff9100"/>
    </g>
  </g>
  <g id="Group_693" data-name="Group 693" transform="translate(8.313 35.625)">
    <g id="Group_692" data-name="Group 692">
      <rect id="Rectangle_289" data-name="Rectangle 289" width="2.375" height="2.375" fill="#ff9100"/>
    </g>
  </g>
  <g id="Group_695" data-name="Group 695" transform="translate(13.063 19)">
    <g id="Group_694" data-name="Group 694">
      <rect id="Rectangle_290" data-name="Rectangle 290" width="9.5" height="2.375" fill="#ff9100"/>
    </g>
  </g>
  <g id="Group_697" data-name="Group 697" transform="translate(8.313 19)">
    <g id="Group_696" data-name="Group 696">
      <rect id="Rectangle_291" data-name="Rectangle 291" width="2.375" height="2.375" fill="#ff9100"/>
    </g>
  </g>
  <g id="Group_699" data-name="Group 699" transform="translate(4.75 46.313)">
    <g id="Group_698" data-name="Group 698">
      <path id="Path_710" data-name="Path 710" d="M46.23,419.563a1.188,1.188,0,0,1-1.188-1.188V416H42.667v2.375a3.563,3.563,0,0,0,3.563,3.563H48.6v-2.375Z" transform="translate(-42.667 -416)" fill="#ff9100"/>
    </g>
  </g>
  <g id="Group_701" data-name="Group 701" transform="translate(13.063 49.876)">
    <g id="Group_700" data-name="Group 700">
      <rect id="Rectangle_292" data-name="Rectangle 292" width="2.375" height="2.375" fill="#ff9100"/>
    </g>
  </g>
</svg>
