<svg id="top-cat2" xmlns="http://www.w3.org/2000/svg" width="45.332" height="39.995" viewBox="0 0 45.332 39.995">
  <path id="Path_249" data-name="Path 249" d="M120.59,190.734a.745.745,0,0,1-.484-.179l-4.843-4.124a.749.749,0,0,1,0-1.14l4.843-4.124a.748.748,0,1,1,.97,1.139l-4.173,3.554,4.173,3.554a.749.749,0,0,1-.486,1.318Zm0,0" transform="translate(-102.705 -161.638)" fill="#27cb8b"/>
  <path id="Path_250" data-name="Path 250" d="M250.456,190.734a.749.749,0,0,1-.486-1.318l4.173-3.554-4.173-3.554a.748.748,0,0,1,.97-1.139l4.843,4.124a.749.749,0,0,1,0,1.14l-4.843,4.124A.745.745,0,0,1,250.456,190.734Zm0,0" transform="translate(-223.01 -161.638)" fill="#27cb8b"/>
  <path id="Path_251" data-name="Path 251" d="M189.7,168.852a.761.761,0,0,1-.155-.016.749.749,0,0,1-.578-.887l3.018-14.33a.748.748,0,1,1,1.465.309l-3.018,14.33A.748.748,0,0,1,189.7,168.852Zm0,0" transform="translate(-168.752 -136.664)" fill="#27cb8b"/>
  <path id="Path_252" data-name="Path 252" d="M40.307,40H5.025A5.031,5.031,0,0,1,0,34.97V5.025A5.031,5.031,0,0,1,5.025,0H40.307a5.031,5.031,0,0,1,5.025,5.025V34.97A5.031,5.031,0,0,1,40.307,40ZM5.025,1.5A3.532,3.532,0,0,0,1.5,5.025V34.97A3.532,3.532,0,0,0,5.025,38.5H40.307a3.532,3.532,0,0,0,3.528-3.528V5.025A3.532,3.532,0,0,0,40.307,1.5Zm0,0" transform="translate(0 0)" fill="#27cb8b"/>
  <path id="Path_253" data-name="Path 253" d="M44.584,99.587H.748a.748.748,0,1,1,0-1.5H44.584a.748.748,0,1,1,0,1.5Zm0,0" transform="translate(0 -87.603)" fill="#27cb8b"/>
  <path id="Path_254" data-name="Path 254" d="M99.818,39.026a2.368,2.368,0,1,1,2.368-2.368A2.372,2.372,0,0,1,99.818,39.026Zm0-3.24a.872.872,0,1,0,.872.872A.873.873,0,0,0,99.818,35.786Zm0,0" transform="translate(-87.031 -30.623)" fill="#27cb8b"/>
  <path id="Path_255" data-name="Path 255" d="M31.755,38.811a2.368,2.368,0,1,1,2.368-2.368A2.371,2.371,0,0,1,31.755,38.811Zm0-3.24a.872.872,0,1,0,.872.872A.873.873,0,0,0,31.755,35.571Zm0,0" transform="translate(-26.245 -30.431)" fill="#27cb8b"/>
  <path id="Path_256" data-name="Path 256" d="M167.884,39.24a2.368,2.368,0,1,1,2.368-2.368A2.371,2.371,0,0,1,167.884,39.24Zm0-3.24a.872.872,0,1,0,.872.872A.872.872,0,0,0,167.884,36Zm0,0" transform="translate(-147.819 -30.815)" fill="#27cb8b"/>
</svg>
