<svg xmlns="http://www.w3.org/2000/svg" width="110" height="110" viewBox="0 0 110 110">
  <g id="services3" transform="translate(-1203 -3104)">
    <circle id="Ellipse_9" data-name="Ellipse 9" cx="55" cy="55" r="55" transform="translate(1203 3104)" fill="#c30047" opacity="0.06"/>
    <g id="book" transform="translate(1225 3135)">
      <g id="Group_36" data-name="Group 36" transform="translate(0 0)">
        <path id="Path_31" data-name="Path 31" d="M65.44,62.288h-4.4v-1.5a1.294,1.294,0,0,0-.931-1.294,36.437,36.437,0,0,0-9.326-1.19c-5.174,0-12.224,1.164-17.437,6.468C28.173,59.416,21.072,58.3,15.911,58.3a36.437,36.437,0,0,0-9.326,1.19,1.294,1.294,0,0,0-.931,1.294v1.488H1.294A1.294,1.294,0,0,0,0,63.568v41.316a1.29,1.29,0,0,0,1.927,1.125c.129-.065,13.065-7.14,31.123-2.587h.31a1.3,1.3,0,0,0,.31,0c18.11-4.592,31.045,2.471,31.123,2.587a1.294,1.294,0,0,0,1.94-1.112V63.581A1.293,1.293,0,0,0,65.44,62.288ZM2.587,102.827V64.875H5.679V97.317A1.294,1.294,0,0,0,7.166,98.61a56.606,56.606,0,0,1,8.085-.647A33.554,33.554,0,0,1,26.3,99.632,47.554,47.554,0,0,0,2.587,102.827Zm12.664-7.438a56.914,56.914,0,0,0-7.037.453V61.809a35.677,35.677,0,0,1,7.671-.854c4.838,0,11.513,1.112,16.143,6.338l.039,32.222C29.376,97.757,24.125,95.389,15.251,95.389Zm19.4-28.1c4.631-5.174,11.306-6.338,16.143-6.338a35.833,35.833,0,0,1,7.671.854V95.842a56.9,56.9,0,0,0-7-.466c-8.822,0-14.087,2.367-16.816,4.126Zm29.48,35.534a47.563,47.563,0,0,0-23.762-3.2,33.634,33.634,0,0,1,11.1-1.669,56.59,56.59,0,0,1,8.136.634A1.294,1.294,0,0,0,61.094,97.3V64.875h3.092Z" transform="translate(0 -58.303)" fill="#c30047"/>
      </g>
    </g>
  </g>
</svg>
