<svg xmlns="http://www.w3.org/2000/svg" width="106.608" height="90.428" viewBox="0 0 106.608 90.428">
  <g id="services2" transform="translate(-901 -1316)">
    <circle id="Ellipse_2" data-name="Ellipse 2" cx="45" cy="45" r="45" transform="translate(901 1316)" fill="#ffeee9"/>
    <g id="hamburger" transform="translate(912 1328)">
      <g id="Group_15" data-name="Group 15" transform="translate(64.61 18.673)">
        <g id="Group_14" data-name="Group 14">
          <path id="Path_10" data-name="Path 10" d="M352.922,146.547a1.868,1.868,0,0,0-2.641,0l-3.735,3.735a1.867,1.867,0,0,0,2.641,2.641l3.735-3.735A1.868,1.868,0,0,0,352.922,146.547Z" transform="translate(-345.999 -146)" fill="#fe5f41"/>
        </g>
      </g>
      <g id="Group_17" data-name="Group 17" transform="translate(19.794 18.673)">
        <g id="Group_16" data-name="Group 16">
          <path id="Path_11" data-name="Path 11" d="M112.922,146.547a1.868,1.868,0,0,0-2.641,0l-3.735,3.735a1.867,1.867,0,1,0,2.641,2.641l3.735-3.735A1.868,1.868,0,0,0,112.922,146.547Z" transform="translate(-105.999 -146)" fill="#fe5f41"/>
        </g>
      </g>
      <g id="Group_19" data-name="Group 19" transform="translate(55.273 11.204)">
        <g id="Group_18" data-name="Group 18">
          <path id="Path_12" data-name="Path 12" d="M302.922,106.547a1.868,1.868,0,0,0-2.641,0l-3.735,3.735a1.867,1.867,0,0,0,2.641,2.641l3.735-3.735A1.868,1.868,0,0,0,302.922,106.547Z" transform="translate(-295.999 -106)" fill="#fe5f41"/>
        </g>
      </g>
      <g id="Group_21" data-name="Group 21" transform="translate(32.865 11.204)">
        <g id="Group_20" data-name="Group 20">
          <path id="Path_13" data-name="Path 13" d="M182.922,106.547a1.868,1.868,0,0,0-2.641,0l-3.735,3.735a1.867,1.867,0,0,0,2.641,2.641l3.735-3.735A1.868,1.868,0,0,0,182.922,106.547Z" transform="translate(-175.999 -106)" fill="#fe5f41"/>
        </g>
      </g>
      <g id="Group_23" data-name="Group 23" transform="translate(42.202 18.673)">
        <g id="Group_22" data-name="Group 22">
          <path id="Path_14" data-name="Path 14" d="M232.922,146.547a1.868,1.868,0,0,0-2.641,0l-3.735,3.735a1.867,1.867,0,0,0,2.641,2.641l3.735-3.735A1.868,1.868,0,0,0,232.922,146.547Z" transform="translate(-225.999 -146)" fill="#fe5f41"/>
        </g>
      </g>
      <g id="Group_25" data-name="Group 25" transform="translate(0 0)">
        <g id="Group_24" data-name="Group 24">
          <path id="Path_15" data-name="Path 15" d="M95.608,103.888a5.608,5.608,0,0,0-5.6-5.6H88.138V92.267c.077-.067.155-.131.231-.2a9.486,9.486,0,0,1,5.395-1.832,1.867,1.867,0,0,0-.023-3.735h-.024a14.252,14.252,0,0,0-5.578,1.319V82.925a5.594,5.594,0,0,0,3.461-5.87A35.508,35.508,0,0,0,56.394,46H39.214A35.508,35.508,0,0,0,4.009,77.054a5.594,5.594,0,0,0,3.461,5.871v4.812A13.993,13.993,0,0,0,1.843,86.5a1.867,1.867,0,0,0,.024,3.735h.025A9.291,9.291,0,0,1,7.418,92.06l.052.045v6.18H5.6a5.6,5.6,0,0,0-.919,11.127,5.31,5.31,0,0,0-.063,3.606,16.8,16.8,0,0,0,15.921,11.409H75.067a16.8,16.8,0,0,0,15.922-11.41,5.308,5.308,0,0,0-.063-3.6A5.6,5.6,0,0,0,95.608,103.888ZM7.715,77.516a31.768,31.768,0,0,1,31.5-27.781h17.18a31.768,31.768,0,0,1,31.5,27.782,1.886,1.886,0,0,1-1.747,2.088l-.037,0c-.032,0-.064,0-.1,0H9.594A1.891,1.891,0,0,1,7.715,77.516ZM77.166,89.307a9.788,9.788,0,0,0-13.721,0,6.065,6.065,0,0,1-8.687,0,9.788,9.788,0,0,0-13.721,0,6.065,6.065,0,0,1-8.687,0,9.788,9.788,0,0,0-13.721,0,5.958,5.958,0,0,1-7.424.944v-6.9H84.4V90.36A5.979,5.979,0,0,1,77.166,89.307Zm7.238,5.1v3.876H11.2V94.354a9.4,9.4,0,0,0,3.081.524,10.156,10.156,0,0,0,6.86-2.811,6.065,6.065,0,0,1,8.687,0,9.788,9.788,0,0,0,13.721,0,6.065,6.065,0,0,1,8.687,0,9.788,9.788,0,0,0,13.721,0,6.065,6.065,0,0,1,8.687,0A9.813,9.813,0,0,0,84.4,94.41Zm3.048,17.41a13.07,13.07,0,0,1-12.384,8.874H20.541a13.069,13.069,0,0,1-12.384-8.873,1.85,1.85,0,0,1,1.826-2.331H85.625A1.85,1.85,0,0,1,87.451,111.82Zm2.555-6.065H5.6a1.867,1.867,0,0,1,0-3.735h84.4a1.867,1.867,0,1,1,0,3.735Z" transform="translate(0 -46)" fill="#fe5f41"/>
        </g>
      </g>
    </g>
  </g>
</svg>
