<svg id="services3" xmlns="http://www.w3.org/2000/svg" width="64.422" height="74.903" viewBox="0 0 64.422 74.903">
  <path id="Path_14" data-name="Path 14" d="M98.982,23.287l-1.566-7.825-4.359,1.745c-3.825,1.531-7.9,2.965-12.152,4.273A58.832,58.832,0,0,0,72.458,6.363L67.643,0,64.478,3.469A171.3,171.3,0,0,1,47.075,19.9,31.279,31.279,0,0,0,36.588,37.063,30.8,30.8,0,0,0,38.944,57.4L47.41,74.9h9.259a56.567,56.567,0,0,0,21.28-3.689A34.809,34.809,0,0,0,92,61.077c7.537-9.194,10.016-22.615,6.98-37.79Zm-7.472-.779a107.25,107.25,0,0,1-10.783,17.22A137.615,137.615,0,0,1,65.519,56.506,146.851,146.851,0,0,1,50.981,68.537v-13.9a26.451,26.451,0,0,1,5.781-16.6,26.867,26.867,0,0,1,14.527-9.352c2.311-.57,4.582-1.171,6.779-1.791l0,.012,2.006-.591.057-.017h0c3.938-1.161,7.748-2.432,11.375-3.788ZM40.87,38.022a26.867,26.867,0,0,1,9.007-14.744A176.521,176.521,0,0,0,67.327,6.856l1.632,2.156a54.68,54.68,0,0,1,7.725,13.711c-2.09.588-4.25,1.158-6.446,1.7A31.279,31.279,0,0,0,53.323,35.308a30.8,30.8,0,0,0-6.732,19.333v8.49l-3.7-7.643A26.451,26.451,0,0,1,40.87,38.022ZM88.608,58.294A30.47,30.47,0,0,1,76.3,67.148a52.246,52.246,0,0,1-19.628,3.367h-.958A153.425,153.425,0,0,0,68.449,59.776,142.1,142.1,0,0,0,84.18,42.438a112.455,112.455,0,0,0,10.75-16.96C97.308,38.784,95.081,50.4,88.608,58.294Z" transform="translate(-35.823 0)" fill="#cbcbcb"/>
</svg>
