<svg xmlns="http://www.w3.org/2000/svg" width="73.901" height="62.767" viewBox="0 0 73.901 62.767">
  <g id="services1" transform="translate(0 -38.566)">
    <path id="Path_73" data-name="Path 73" d="M73.9,52.714A14.164,14.164,0,0,0,59.753,38.566h-35.6a1.082,1.082,0,0,0,0,2.163h35.6a11.984,11.984,0,1,1,0,23.969H48.12a18.147,18.147,0,0,0-34.48-.013,11.983,11.983,0,0,1,.508-23.956h4.566a1.082,1.082,0,1,0,0-2.163H14.148a14.148,14.148,0,0,0-1.07,28.255A18.2,18.2,0,0,0,14.3,77.755a1.082,1.082,0,0,0,1.975-.883,16.026,16.026,0,0,1-1-10.011H41.633a1.082,1.082,0,0,0,0-2.163H15.93a15.982,15.982,0,1,1,2.913,16.177A1.082,1.082,0,0,0,17.215,82.3a18.132,18.132,0,0,0,23.761,3.127l3.069,3.069a2.094,2.094,0,0,0,.138,2.8l8.452,8.452a5.4,5.4,0,0,0,7.638-7.638l-8.452-8.452a2.091,2.091,0,0,0-2.805-.138l-3.069-3.069a18.128,18.128,0,0,0,2.738-13.593H59.753A14.163,14.163,0,0,0,73.9,52.714ZM58.743,93.643a3.238,3.238,0,0,1-4.579,4.579l-8.4-8.4,4.579-4.579Zm-11.264-8.6-1.912,1.912L42.711,84.1a18.311,18.311,0,0,0,1.912-1.912Z" transform="translate(0)" fill="#4b92ff"/>
    <circle id="Ellipse_1" data-name="Ellipse 1" cx="1.208" cy="1.208" r="1.208" transform="translate(6.547 51.506)" fill="#4b92ff"/>
    <circle id="Ellipse_2" data-name="Ellipse 2" cx="1.208" cy="1.208" r="1.208" transform="translate(11.063 51.506)" fill="#4b92ff"/>
    <circle id="Ellipse_3" data-name="Ellipse 3" cx="1.208" cy="1.208" r="1.208" transform="translate(15.579 51.506)" fill="#4b92ff"/>
    <path id="Path_74" data-name="Path 74" d="M363.654,82.083a9.194,9.194,0,1,0-9.194,9.194A9.2,9.2,0,0,0,363.654,82.083Zm-16.224,0a7.03,7.03,0,1,1,7.03,7.03A7.038,7.038,0,0,1,347.43,82.083Z" transform="translate(-295.432 -29.369)" fill="#4b92ff"/>
    <path id="Path_75" data-name="Path 75" d="M388.143,117.339a1.082,1.082,0,0,0-1.53,0l-2.886,2.886-1.143-1.143a1.082,1.082,0,1,0-1.53,1.53l1.908,1.908a1.082,1.082,0,0,0,1.53,0l3.65-3.65a1.082,1.082,0,0,0,0-1.53Z" transform="translate(-325.783 -67.132)" fill="#4b92ff"/>
  </g>
</svg>
