<svg id="services1" xmlns="http://www.w3.org/2000/svg" width="57.001" height="57.001" viewBox="0 0 57.001 57.001">
  <path id="Path_722" data-name="Path 722" d="M17.622,256.278A.95.95,0,0,0,16,256.95v26.6a.95.95,0,0,0,.95.95h26.6a.95.95,0,0,0,.672-1.622ZM17.9,282.6V259.243L41.257,282.6Z" transform="translate(-16 -227.499)" fill="#ff9100"/>
  <path id="Path_723" data-name="Path 723" d="M64.95,377.5h7.6a.95.95,0,0,0,.672-1.622l-7.6-7.6A.95.95,0,0,0,64,368.95v7.6A.95.95,0,0,0,64.95,377.5Zm.95-6.257,4.357,4.357H65.9Z" transform="translate(-58.3 -326.199)" fill="#ff9100"/>
  <path id="Path_724" data-name="Path 724" d="M104,48h1.9v1.9H104Z" transform="translate(-93.55 -44.2)" fill="#ff9100"/>
  <path id="Path_725" data-name="Path 725" d="M136,48h1.9v1.9H136Z" transform="translate(-121.75 -44.2)" fill="#ff9100"/>
  <path id="Path_726" data-name="Path 726" d="M168,48h1.9v1.9H168Z" transform="translate(-149.95 -44.2)" fill="#ff9100"/>
  <path id="Path_727" data-name="Path 727" d="M176.565,131.883a.936.936,0,0,0-.565.867V143.2a.95.95,0,0,0,.564.868l8.55,3.8a.946.946,0,0,0,.772,0h0l8.55-3.8A.95.95,0,0,0,195,143.2V132.75a.936.936,0,0,0-.565-.867h0l-8.55-3.8a.951.951,0,0,0-.772,0l-8.55,3.8Zm7.985,13.655-6.65-2.956v-8.371l6.65,2.956Zm8.55-2.956-6.65,2.956v-8.371l6.65-2.956Zm-7.6-12.593,6.211,2.76-6.211,2.76-6.211-2.76Z" transform="translate(-157 -114.7)" fill="#ff9100"/>
  <path id="Path_728" data-name="Path 728" d="M248,320h1.9v4.75H248Z" transform="translate(-220.45 -283.9)" fill="#ff9100"/>
  <path id="Path_729" data-name="Path 729" d="M248,72h1.9v4.75H248Z" transform="translate(-220.45 -65.35)" fill="#ff9100"/>
  <path id="Path_730" data-name="Path 730" d="M0,0H1.9V4.409H0Z" transform="translate(11.935 16.063) rotate(-64.46)" fill="#ff9100"/>
  <path id="Path_731" data-name="Path 731" d="M0,0H4.409V1.9H0Z" transform="translate(40.248 16.236) rotate(-25.54)" fill="#ff9100"/>
  <path id="Path_732" data-name="Path 732" d="M0,0H4.409V1.9H0Z" transform="translate(11.935 31.433) rotate(-25.54)" fill="#ff9100"/>
  <path id="Path_733" data-name="Path 733" d="M121.4,59.7h-5.7V44.894l5.585-5.585a3.637,3.637,0,0,0-5.144-5.143l-.441.441V26.45a.95.95,0,0,0-.278-.672l-9.5-9.5A.95.95,0,0,0,105.25,16H75.8A3.8,3.8,0,0,0,72,19.8V47.35h1.9V19.8a1.9,1.9,0,0,1,1.9-1.9h28.5v5.7a3.8,3.8,0,0,0,3.8,3.8h5.7v9.107L98.879,51.429a.951.951,0,0,0-.26.485l-.95,4.75a.95.95,0,0,0,1.118,1.118l4.75-.95a.95.95,0,0,0,.485-.26l9.778-9.778V59.7h-19a.95.95,0,0,0-.95.95V63.5H89.1v1.9h4.75v2.85a.95.95,0,0,0,.95.95h26.6a.95.95,0,0,0,.95-.95v-7.6a.95.95,0,0,0-.95-.95ZM106.2,23.6V19.244l6.257,6.257H108.1A1.9,1.9,0,0,1,106.2,23.6Zm-5.307,28.5L115.7,37.294l2.456,2.456L103.35,54.557ZM118.714,35a1.737,1.737,0,0,1,1.228,2.965l-.441.441-2.456-2.456.441-.441A1.725,1.725,0,0,1,118.714,35Zm-18.58,19.027,1.29,1.29-1.612.322ZM120.451,67.3H95.75V61.6h1.9v1.9h1.9V61.6h1.9v1.9h1.9V61.6h1.9v1.9h1.9V61.6h1.9v1.9h1.9V61.6h1.9v1.9h1.9V61.6h1.9v1.9h1.9V61.6h1.9Z" transform="translate(-65.35 -16)" fill="#ff9100"/>
</svg>
