<svg id="stack1" xmlns="http://www.w3.org/2000/svg" xmlns:xlink="http://www.w3.org/1999/xlink" width="40.152" height="40.152" viewBox="0 0 40.152 40.152">
  <defs>
    <linearGradient id="linear-gradient" x1="0.5" x2="0.5" y2="1" gradientUnits="objectBoundingBox">
      <stop offset="0" stop-color="#ff4495"/>
      <stop offset="1" stop-color="#ff6d6d"/>
    </linearGradient>
  </defs>
  <path id="Path_247" data-name="Path 247" d="M22.894,16.73H7.837A.837.837,0,0,1,7,15.894V.837A.837.837,0,0,1,7.837,0H22.894a.837.837,0,0,1,.837.837V15.894A.837.837,0,0,1,22.894,16.73ZM8.673,15.057H22.057V1.673H8.673Z" transform="translate(4.711)" fill="url(#linear-gradient)"/>
  <path id="Path_248" data-name="Path 248" d="M15.856,6.692H10.837A.837.837,0,0,1,10,5.856V.837A.837.837,0,0,1,10.837,0h5.019a.837.837,0,0,1,.837.837V5.856A.837.837,0,0,1,15.856,6.692ZM11.673,5.019h3.346V1.673H11.673Z" transform="translate(6.73)" fill="url(#linear-gradient)"/>
  <path id="Path_249" data-name="Path 249" d="M18.73,25.73H2.837A.837.837,0,0,1,2,24.894V9.837A.837.837,0,0,1,2.837,9H18.73a.837.837,0,0,1,.837.837V24.894A.837.837,0,0,1,18.73,25.73ZM3.673,24.057H17.894V10.673H3.673Z" transform="translate(1.346 6.057)" fill="url(#linear-gradient)"/>
  <path id="Path_250" data-name="Path 250" d="M10.856,15.692H5.837A.837.837,0,0,1,5,14.856V9.837A.837.837,0,0,1,5.837,9h5.019a.837.837,0,0,1,.837.837v5.019A.837.837,0,0,1,10.856,15.692ZM6.673,14.019h3.346V10.673H6.673Z" transform="translate(3.365 6.057)" fill="url(#linear-gradient)"/>
  <path id="Path_251" data-name="Path 251" d="M28.23,25.73H12.337a.837.837,0,0,1-.837-.837V9.837A.837.837,0,0,1,12.337,9H28.23a.837.837,0,0,1,.837.837V24.894A.837.837,0,0,1,28.23,25.73ZM13.173,24.057H27.394V10.673H13.173Z" transform="translate(7.74 6.057)" fill="url(#linear-gradient)"/>
  <path id="Path_252" data-name="Path 252" d="M20.856,15.692H15.837A.837.837,0,0,1,15,14.856V9.837A.837.837,0,0,1,15.837,9h5.019a.837.837,0,0,1,.837.837v5.019A.837.837,0,0,1,20.856,15.692Zm-4.183-1.673h3.346V10.673H16.673Z" transform="translate(10.095 6.057)" fill="url(#linear-gradient)"/>
  <path id="Path_253" data-name="Path 253" d="M39.316,28.038H32.624a.837.837,0,0,1-.837-.837v-2.51H25.1V27.2a.837.837,0,0,1-.837.837H15.894a.837.837,0,0,1-.837-.837v-2.51H8.365V27.2a.837.837,0,0,1-.837.837H.837A.837.837,0,0,1,0,27.2V18.837A.837.837,0,0,1,.837,18H39.316a.837.837,0,0,1,.837.837V27.2A.837.837,0,0,1,39.316,28.038ZM33.46,26.365h5.019V19.673H1.673v6.692H6.692v-2.51a.837.837,0,0,1,.837-.837h8.365a.837.837,0,0,1,.837.837v2.51h6.692v-2.51a.837.837,0,0,1,.837-.837h8.365a.837.837,0,0,1,.837.837Z" transform="translate(0 12.114)" fill="url(#linear-gradient)"/>
</svg>
