<svg xmlns="http://www.w3.org/2000/svg" xmlns:xlink="http://www.w3.org/1999/xlink" width="55.785" height="39.975" viewBox="0 0 55.785 39.975">
  <defs>
    <linearGradient id="linear-gradient" x1="0.5" x2="0.5" y2="1" gradientUnits="objectBoundingBox">
      <stop offset="0" stop-color="#ff4495"/>
      <stop offset="1" stop-color="#ff6d6d"/>
    </linearGradient>
  </defs>
  <path id="stack4" d="M6.649,24.138a.976.976,0,0,0-.478,1.277l2.194,4.709a.973.973,0,0,0,1.287.478l16.574-7.741-1.5,15.7a.975.975,0,0,0,.321.819,4.255,4.255,0,0,0,2.574.975,3.134,3.134,0,0,0,.77-.1c1.345-.351,2.389-1.55,3.1-3.6l6.522-19.313,12.917-6.025c3.8-1.774,5.762-5.371,4.446-8.179A4.936,4.936,0,0,0,51.563.477,9.037,9.037,0,0,0,46.24,1.3L31.333,8.286,15.306,2.018c-2.018-.76-3.617-.741-4.738.069A3.976,3.976,0,0,0,9.115,5.235a.976.976,0,0,0,.419.771l10.792,7.419-6.181,2.925L3.782,13.717a.975.975,0,0,0-1.082.468L.117,18.835a.975.975,0,0,0,.507,1.375L8.3,23.378Zm4.464-19.39A1.668,1.668,0,0,1,11.7,3.695c.556-.4,1.57-.341,2.925.165L28.9,9.427l-6.513,3.042ZM2.339,18.825l1.7-3.012,9.973,2.476a.977.977,0,0,0,.644-.058L47.069,3.09a7.126,7.126,0,0,1,4.163-.663,3.053,3.053,0,0,1,2.379,1.54c.818,1.755-.79,4.319-3.51,5.586L38.869,14.819l.683-2.019a.991.991,0,1,0-1.882-.624L29.647,36.052c-.478,1.356-1.073,2.165-1.735,2.34a1.65,1.65,0,0,1-1.189-.224l1.95-20.473a.979.979,0,0,0-1.95-.185l-.3,3.129-16.73,7.8L8.316,25.513l2.749-1.287a.975.975,0,0,0,0-1.784Zm0,0" transform="translate(0.001 -0.376)" fill="url(#linear-gradient)"/>
</svg>
