<svg xmlns="http://www.w3.org/2000/svg" xmlns:xlink="http://www.w3.org/1999/xlink" width="52.58" height="40.007" viewBox="0 0 52.58 40.007">
  <defs>
    <linearGradient id="linear-gradient" x1="0.5" x2="0.5" y2="1" gradientUnits="objectBoundingBox">
      <stop offset="0" stop-color="#ff4495"/>
      <stop offset="1" stop-color="#ff6d6d"/>
    </linearGradient>
  </defs>
  <g id="stack2" transform="translate(0 -41.75)">
    <g id="Group_153" data-name="Group 153" transform="translate(0 41.75)">
      <path id="Path_257" data-name="Path 257" d="M50.833,52.666,29.873,42.428a8.584,8.584,0,0,0-6.685,0L1.747,52.666A2.583,2.583,0,0,0,0,54.955c0,.542.241,1.506,1.747,2.289l1.747.843v9.637a2.951,2.951,0,0,0-1.867,2.71,2.99,2.99,0,0,0,1.807,2.71L.723,81.757H8.312L5.6,73.144a2.918,2.918,0,0,0-.06-5.421V59.111l3.192,1.566V73.2a.971.971,0,0,0,.181.542,21.874,21.874,0,0,0,17.346,8.01,21.749,21.749,0,0,0,17.286-8.01.971.971,0,0,0,.181-.542V60.737l7.107-3.493a2.583,2.583,0,0,0,1.747-2.289A2.692,2.692,0,0,0,50.833,52.666ZM41.8,72.9A20.14,20.14,0,0,1,26.26,79.89,20.14,20.14,0,0,1,10.721,72.9V61.52l12.467,5.963a8.122,8.122,0,0,0,3.313.663,7.334,7.334,0,0,0,3.373-.723L41.8,61.58ZM49.99,55.557l-7.227,3.553a.692.692,0,0,0-.663.361L29.03,65.8a6.687,6.687,0,0,1-5.059,0L7.89,58.087l18.49-2.168a.938.938,0,1,0-.181-1.867L4.758,56.581,2.59,55.557a1.215,1.215,0,0,1-.663-.542c0-.06.12-.3.663-.542l21.441-10.3a6.222,6.222,0,0,1,2.469-.482,6.1,6.1,0,0,1,2.53.482L49.99,54.413c.542.241.663.482.663.6A1.656,1.656,0,0,1,49.99,55.557Z" transform="translate(0 -41.75)" fill="url(#linear-gradient)"/>
    </g>
  </g>
</svg>
