<svg width="24" height="24" viewBox="0 0 24 24" fill="none" xmlns="http://www.w3.org/2000/svg">
<g clip-path="url(#clip0_379_9225)">
<path d="M24 12.0003C23.9999 9.70667 23.3426 7.46112 22.1057 5.52957C20.8689 3.59802 19.1044 2.06138 17.0213 1.10164C14.9381 0.141904 12.6236 -0.200731 10.3517 0.114314C8.07983 0.42936 5.94584 1.38889 4.20245 2.87927C2.45906 4.36964 1.17931 6.32843 0.514748 8.52365C-0.14981 10.7189 -0.171331 13.0586 0.452734 15.2656C1.0768 17.4727 2.3203 19.4547 4.03598 20.9769C5.75167 22.4991 7.86765 23.4977 10.1333 23.8545V15.4669H7.07733V12.0003H10.1333V9.35672C10.1333 6.34872 11.9111 4.68828 14.6578 4.68828C15.5577 4.70087 16.4555 4.7793 17.344 4.92294V7.87583H15.8311C14.3396 7.87583 13.8756 8.80028 13.8756 9.74961V12.0003H17.2036L16.6702 15.4669H13.8756V23.8527C16.6978 23.4058 19.268 21.9665 21.1239 19.7939C22.9798 17.6212 23.9996 14.8577 24 12.0003Z" fill="#4676ED"/>
<path d="M16.671 15.4666L17.2043 11.9982H13.8763V9.74928C13.8763 8.79994 14.3403 7.8755 15.8319 7.8755H17.3448V4.92261C16.4563 4.77897 15.5585 4.70053 14.6586 4.68794C11.9119 4.68794 10.1341 6.34839 10.1341 9.35639V11.9999H7.07812V15.4666H10.1341V23.8524C11.3769 24.0468 12.6424 24.0468 13.8852 23.8524V15.4666H16.671Z" fill="white"/>
</g>
<defs>
<clipPath id="clip0_379_9225">
<rect width="24" height="24" fill="white"/>
</clipPath>
</defs>
</svg>