<svg width="24" height="24" viewBox="0 0 24 24" fill="none" xmlns="http://www.w3.org/2000/svg">
<g clip-path="url(#clip0_379_9215)">
<path fill-rule="evenodd" clip-rule="evenodd" d="M1.32031 6.61936C1.81989 5.54264 2.52584 4.60321 3.35362 3.75313C5.2268 1.82935 7.49483 0.59735 10.1796 0.177142C13.9373 -0.411046 17.3004 0.457151 20.2067 2.90923C20.3903 3.06419 20.4357 3.15476 20.236 3.34633C19.2102 4.33055 18.2007 5.33096 17.1851 6.32543C17.0809 6.42747 17.0106 6.552 16.8255 6.38583C14.2668 4.0887 10.0903 4.11487 7.37135 6.59242C6.43791 7.44302 5.77414 8.46237 5.33956 9.63088C5.27614 9.59021 5.2095 9.55392 5.1497 9.50879C3.8728 8.54617 2.59662 7.58263 1.32031 6.61936Z" fill="#D7282A"/>
<path fill-rule="evenodd" clip-rule="evenodd" d="M5.31174 14.3224C5.6785 15.2351 6.13433 16.0982 6.81172 16.8312C8.53419 18.6951 10.6693 19.4991 13.2274 19.2389C14.416 19.118 15.4989 18.7236 16.5108 18.1175C16.6079 18.2025 16.7003 18.2934 16.8026 18.3718C17.9868 19.2777 19.1725 20.1817 20.3578 21.0862C19.0508 22.3025 17.5076 23.1122 15.7715 23.5423C11.6784 24.556 7.90547 23.9153 4.55508 21.3247C3.16996 20.2537 2.08048 18.9307 1.3125 17.3647C2.64571 16.3506 3.97873 15.3365 5.31174 14.3224Z" fill="#45AC43"/>
<path fill-rule="evenodd" clip-rule="evenodd" d="M20.357 21.0862C19.1717 20.1817 17.9859 19.2776 16.8017 18.3718C16.6994 18.2934 16.607 18.2025 16.5099 18.1175C17.3124 17.5174 17.9821 16.8076 18.4219 15.9058C18.5972 15.5463 18.7205 15.1699 18.837 14.7894C18.9173 14.5271 18.8925 14.425 18.5612 14.4278C16.5885 14.4442 14.6156 14.436 12.6427 14.4359C12.2248 14.4359 12.2245 14.4356 12.2245 14.0122C12.2243 12.702 12.2309 11.3918 12.2188 10.0816C12.2165 9.82891 12.2617 9.73183 12.552 9.73267C16.1908 9.74305 19.8297 9.74079 23.4686 9.73596C23.665 9.7357 23.7885 9.75001 23.8226 9.98413C24.2754 13.1025 23.9124 16.0821 22.2467 18.8341C21.7367 19.6765 21.124 20.4459 20.357 21.0862Z" fill="#5D7FBE"/>
<path fill-rule="evenodd" clip-rule="evenodd" d="M5.30908 14.3224C3.97606 15.3364 2.64304 16.3506 1.3099 17.3647C0.658882 16.1788 0.283377 14.9048 0.108124 13.5778C-0.195411 11.2787 0.138188 9.06665 1.13353 6.9571C1.18819 6.8412 1.25747 6.73194 1.3199 6.61946C2.5962 7.58261 3.87238 8.5462 5.14928 9.50871C5.20908 9.55376 5.27572 9.59012 5.33914 9.63079C4.8045 11.1915 4.83114 12.7555 5.30908 14.3224Z" fill="#F4C300"/>
</g>
<defs>
<clipPath id="clip0_379_9215">
<rect width="24" height="24" fill="white"/>
</clipPath>
</defs>
</svg>