<svg width="24" height="24" viewBox="0 0 24 24" fill="none" xmlns="http://www.w3.org/2000/svg">
<path fill-rule="evenodd" clip-rule="evenodd" d="M12 0C5.38125 0 0 5.38125 0 12C0 18.6187 5.38125 24 12 24C18.6187 24 24 18.6187 24 12C24 5.38125 18.6187 0 12 0Z" fill="#4BAE4F"/>
<path fill-rule="evenodd" clip-rule="evenodd" d="M17.8032 7.9547C18.0938 8.24532 18.0938 8.72345 17.8032 9.01408L10.772 16.0453C10.6267 16.1906 10.4345 16.2656 10.2423 16.2656C10.0501 16.2656 9.85791 16.1906 9.7126 16.0453L6.19697 12.5297C5.90635 12.2391 5.90635 11.7609 6.19697 11.4703C6.4876 11.1797 6.96572 11.1797 7.25635 11.4703L10.2423 14.4563L16.7438 7.9547C17.0345 7.65939 17.5126 7.65939 17.8032 7.9547Z" fill="white"/>
</svg>