<svg width="24" height="24" viewBox="0 0 24 24" fill="none" xmlns="http://www.w3.org/2000/svg">
<path d="M12 0C5.38293 0 0 5.38293 0 12C0 18.6171 5.38293 24 12 24C18.6171 24 24 18.6171 24 12C24 5.38293 18.6171 0 12 0Z" fill="white"/>
<path d="M16.4189 15.0049C16.8099 15.396 16.8099 16.0279 16.4189 16.4191C16.2239 16.6141 15.9679 16.712 15.7118 16.712C15.4558 16.712 15.1998 16.6141 15.0048 16.4191L11.9999 13.4139L8.99492 16.4191C8.79991 16.6141 8.54393 16.712 8.28795 16.712C8.03178 16.712 7.7758 16.6141 7.5808 16.4191C7.18987 16.0279 7.18987 15.396 7.5808 15.0049L10.5859 12L7.5808 8.99504C7.18987 8.60393 7.18987 7.97203 7.5808 7.58092C7.97191 7.18999 8.60381 7.18999 8.99492 7.58092L11.9999 10.586L15.0048 7.58092C15.3959 7.18999 16.0278 7.18999 16.4189 7.58092C16.8099 7.97203 16.8099 8.60393 16.4189 8.99504L13.4138 12L16.4189 15.0049Z" fill="#F44336"/>
</svg>