<svg xmlns="http://www.w3.org/2000/svg" width="48.015" height="46.862" viewBox="0 0 48.015 46.862">
  <g id="services3" transform="translate(0 0)">
    <g id="Group_14764" data-name="Group 14764" transform="translate(0 8.177)">
      <g id="Group_14763" data-name="Group 14763">
        <path id="Path_75092" data-name="Path 75092" d="M34.839,89.355a.839.839,0,0,0-.98.661l-1.675,8.958C23.116,118.9.8,126.351.576,126.424a.817.817,0,0,0-.533,1.039.841.841,0,0,0,.8.563.866.866,0,0,0,.266-.042c.232-.076,23.308-7.762,32.657-28.434a.8.8,0,0,0,.058-.185l1.693-9.054A.824.824,0,0,0,34.839,89.355Z" transform="translate(0 -89.341)" fill="#76a713"/>
      </g>
    </g>
    <g id="Group_14766" data-name="Group 14766" transform="translate(28.991)">
      <g id="Group_14765" data-name="Group 14765">
        <path id="Path_75093" data-name="Path 75093" d="M317.258.13a.863.863,0,0,0-.592-.118C313.212.578,310.3,3.8,309.41,8.025s.5,8.3,3.457,10.138a.857.857,0,0,0,.452.129.936.936,0,0,0,.139-.011c3.455-.566,6.371-3.786,7.257-8.013S320.211,1.966,317.258.13Zm1.806,9.809c-.706,3.371-2.966,6.054-5.563,6.656-2.146-1.542-3.147-4.87-2.441-8.241S314.027,2.3,316.623,1.7C318.77,3.24,319.77,6.568,319.064,9.939Z" transform="translate(-309.146 -0.002)" fill="#76a713"/>
      </g>
    </g>
    <g id="Group_14768" data-name="Group 14768" transform="translate(14.287 12.798)">
      <g id="Group_14767" data-name="Group 14767">
        <path id="Path_75094" data-name="Path 75094" d="M165.05,149.079c-.751-4.72-3.8-8.43-7.58-9.231a.861.861,0,0,0-.6.09c-3.358,1.876-5.109,6.308-4.358,11.029s3.8,8.43,7.58,9.231a.856.856,0,0,0,.6-.09C164.049,158.233,165.8,153.8,165.05,149.079Zm-4.916,9.436c-2.918-.8-5.342-3.949-5.954-7.8s.718-7.566,3.251-9.183c2.918.8,5.342,3.948,5.954,7.8S162.667,156.9,160.135,158.515Z" transform="translate(-152.343 -139.829)" fill="#76a713"/>
      </g>
    </g>
    <g id="Group_14770" data-name="Group 14770" transform="translate(27.283 19.105)">
      <g id="Group_14769" data-name="Group 14769">
        <path id="Path_75095" data-name="Path 75095" d="M311.523,212.619c-2.13-3.143-6.781-4.572-11.579-3.552s-8.414,4.206-9,7.93a.807.807,0,0,0,.13.579c1.672,2.468,4.9,3.878,8.526,3.878a14.689,14.689,0,0,0,3.053-.326c4.8-1.019,8.415-4.206,9-7.93A.807.807,0,0,0,311.523,212.619Zm-9.231,6.9c-3.914.832-7.81-.231-9.626-2.59.639-2.88,3.723-5.425,7.636-6.257s7.809.231,9.626,2.59C309.289,216.144,306.205,218.69,302.292,219.521Z" transform="translate(-290.931 -208.741)" fill="#76a713"/>
      </g>
    </g>
    <g id="Group_14772" data-name="Group 14772" transform="translate(13.577 35.631)">
      <g id="Group_14771" data-name="Group 14771">
        <path id="Path_75096" data-name="Path 75096" d="M162.492,395.23c-.838-3.071-4.156-5.426-8.258-5.86s-7.861,1.173-9.358,4a.806.806,0,0,0-.066.589c.838,3.071,4.157,5.426,8.258,5.86a12.635,12.635,0,0,0,1.322.07c3.569,0,6.7-1.55,8.037-4.067A.806.806,0,0,0,162.492,395.23Zm-9.243,2.952c-3.214-.34-5.916-2.1-6.714-4.34,1.274-2.018,4.3-3.175,7.517-2.836s5.916,2.1,6.714,4.34C159.493,397.364,156.463,398.52,153.249,398.182Z" transform="translate(-144.782 -389.3)" fill="#76a713"/>
      </g>
    </g>
    <g id="Group_14774" data-name="Group 14774" transform="translate(19.461 22.17)">
      <g id="Group_14773" data-name="Group 14773">
        <path id="Path_75097" data-name="Path 75097" d="M209.085,242.626a.855.855,0,0,0-1.154-.286.811.811,0,0,0-.294,1.127,17.513,17.513,0,0,1,1.857,9.214.83.83,0,0,0,.8.859h.04a.833.833,0,0,0,.841-.784A18.92,18.92,0,0,0,209.085,242.626Z" transform="translate(-207.518 -242.224)" fill="#76a713"/>
      </g>
    </g>
    <g id="Group_14776" data-name="Group 14776" transform="translate(27.076 24.639)">
      <g id="Group_14775" data-name="Group 14775">
        <path id="Path_75098" data-name="Path 75098" d="M299.656,269.722a.848.848,0,0,0-1.094-.459,27.89,27.89,0,0,1-9,1.587.822.822,0,1,0,0,1.644,29.238,29.238,0,0,0,9.619-1.7A.816.816,0,0,0,299.656,269.722Z" transform="translate(-288.724 -269.203)" fill="#76a713"/>
      </g>
    </g>
  </g>
</svg>
