<svg id="services2" xmlns="http://www.w3.org/2000/svg" width="49.184" height="49.641" viewBox="0 0 49.184 49.641">
  <g id="Group_14762" data-name="Group 14762">
    <g id="Icons_copy" data-name="Icons copy">
      <path id="Path_75081" data-name="Path 75081" d="M47.159,43.642V40.577l.845-.1a3.265,3.265,0,1,0-.863-6.473L6.093,40.228a6.59,6.59,0,0,0-4.268,2.525.827.827,0,0,0,.155,1.16,6.584,6.584,0,0,0,4.013,1.363,6.675,6.675,0,0,0,.768-.044L45.5,40.767v2.875a2.692,2.692,0,0,1-2.689,2.689H20.684a2.482,2.482,0,1,0,0,4.964h12.41V49.641H20.684a.827.827,0,1,1,0-1.655H42.815a4.348,4.348,0,0,0,4.344-4.344ZM6.571,43.587a4.943,4.943,0,0,1-2.813-.5,4.941,4.941,0,0,1,2.583-1.221l41.048-6.221a1.611,1.611,0,1,1,.426,3.193l-.656.075V37.23H45.5V39.1Z" transform="translate(-1.655 -1.655)" fill="#76a713"/>
      <rect id="Rectangle_8672" data-name="Rectangle 8672" width="1.655" height="1.655" transform="translate(33.094 47.986)" fill="#76a713"/>
      <path id="Path_75082" data-name="Path 75082" d="M35.621,33.07A15.72,15.72,0,1,0,23.032,6.894L24.265,8A14.065,14.065,0,1,1,35.53,31.418Z" transform="translate(-1.655 -1.655)" fill="#76a713"/>
      <path id="Path_75083" data-name="Path 75083" d="M36.529,28.821A11.584,11.584,0,1,0,28.511,7.613L29.4,9.006a9.929,9.929,0,1,1,6.874,18.179Z" transform="translate(-1.655 -1.655)" fill="#76a713"/>
      <path id="Path_75084" data-name="Path 75084" d="M34.748,9.928A2.482,2.482,0,1,0,37.23,12.41a2.482,2.482,0,0,0-2.482-2.482Zm0,3.309a.827.827,0,1,1,.827-.827A.827.827,0,0,1,34.748,13.237Z" transform="translate(-1.655 -1.655)" fill="#76a713"/>
      <path id="Path_75085" data-name="Path 75085" d="M39.712,19.856a2.482,2.482,0,1,0-2.482-2.482,2.482,2.482,0,0,0,2.482,2.482Zm0-3.309a.827.827,0,1,1-.827.827A.827.827,0,0,1,39.712,16.547Z" transform="translate(-1.655 -1.655)" fill="#76a713"/>
      <path id="Path_75086" data-name="Path 75086" d="M2.944,27.542a4.945,4.945,0,0,1,.8,1.374,5.137,5.137,0,0,1,0,1.66,4.752,4.752,0,0,0,.325,2.881,4.786,4.786,0,0,0,2.357,1.736,5.04,5.04,0,0,1,1.413.815,5.048,5.048,0,0,1,.815,1.413c.1.214.2.436.307.654l1.48-.74c-.1-.19-.185-.389-.281-.6a6.243,6.243,0,0,0-1.151-1.9,6.24,6.24,0,0,0-1.9-1.151A3.583,3.583,0,0,1,5.5,32.629a3.564,3.564,0,0,1-.11-1.9,6.352,6.352,0,0,0-.053-2.244,6.123,6.123,0,0,0-1.051-1.91,3.594,3.594,0,0,1-.877-1.759,3.6,3.6,0,0,1,.877-1.759,6.115,6.115,0,0,0,1.051-1.91,6.342,6.342,0,0,0,.053-2.244,3.563,3.563,0,0,1,.11-1.9,3.581,3.581,0,0,1,1.61-1.058A6.241,6.241,0,0,0,9.01,14.8a6.244,6.244,0,0,0,1.151-1.9,3.583,3.583,0,0,1,1.058-1.61,3.562,3.562,0,0,1,1.9-.11,6.355,6.355,0,0,0,2.244-.053,6.123,6.123,0,0,0,1.91-1.051A3.6,3.6,0,0,1,19.029,9.2a3.6,3.6,0,0,1,1.759.877,6.115,6.115,0,0,0,1.91,1.051,6.352,6.352,0,0,0,2.244.053,3.567,3.567,0,0,1,1.9.11A3.581,3.581,0,0,1,27.9,12.9a6.241,6.241,0,0,0,1.151,1.9,6.242,6.242,0,0,0,1.9,1.151,3.583,3.583,0,0,1,1.61,1.058,3.564,3.564,0,0,1,.11,1.9,6.352,6.352,0,0,0,.053,2.244,6.124,6.124,0,0,0,1.051,1.91,3.6,3.6,0,0,1,.876,1.759,3.6,3.6,0,0,1-.877,1.759,6.115,6.115,0,0,0-1.051,1.91,6.342,6.342,0,0,0-.053,2.244,3.563,3.563,0,0,1-.11,1.9,3.581,3.581,0,0,1-1.61,1.058,9.982,9.982,0,0,0-1.262.648l.893,1.393a8.647,8.647,0,0,1,1.054-.535,4.785,4.785,0,0,0,2.357-1.736,4.751,4.751,0,0,0,.325-2.881,5.135,5.135,0,0,1,0-1.66,4.949,4.949,0,0,1,.8-1.375A4.821,4.821,0,0,0,36.3,24.82,4.819,4.819,0,0,0,35.114,22.1a4.944,4.944,0,0,1-.8-1.374,5.137,5.137,0,0,1,0-1.66,4.752,4.752,0,0,0-.325-2.881,4.786,4.786,0,0,0-2.357-1.736,5.04,5.04,0,0,1-1.413-.815,5.048,5.048,0,0,1-.815-1.413,4.784,4.784,0,0,0-1.736-2.357,4.75,4.75,0,0,0-2.881-.325,5.13,5.13,0,0,1-1.66,0,4.949,4.949,0,0,1-1.375-.8A4.818,4.818,0,0,0,19.029,7.55a4.819,4.819,0,0,0-2.722,1.186,4.945,4.945,0,0,1-1.374.8,5.143,5.143,0,0,1-1.66,0,4.752,4.752,0,0,0-2.881.325,4.786,4.786,0,0,0-1.736,2.357,5.04,5.04,0,0,1-.815,1.413,5.048,5.048,0,0,1-1.413.815A4.784,4.784,0,0,0,4.07,16.183a4.751,4.751,0,0,0-.325,2.881,5.135,5.135,0,0,1,0,1.66,4.949,4.949,0,0,1-.8,1.375A4.818,4.818,0,0,0,1.758,24.82,4.819,4.819,0,0,0,2.944,27.542Z" transform="translate(-1.655 -1.655)" fill="#76a713"/>
      <path id="Path_75087" data-name="Path 75087" d="M19.029,13.237A11.583,11.583,0,1,0,30.612,24.82,11.583,11.583,0,0,0,19.029,13.237Zm0,21.511a9.928,9.928,0,1,1,9.928-9.928A9.928,9.928,0,0,1,19.029,34.748Z" transform="translate(-1.655 -1.655)" fill="#76a713"/>
      <path id="Path_75088" data-name="Path 75088" d="M19.029,22.338a2.482,2.482,0,1,0-2.482-2.482,2.482,2.482,0,0,0,2.482,2.482Zm0-3.309a.827.827,0,1,1-.827.827.827.827,0,0,1,.827-.827Z" transform="translate(-1.655 -1.655)" fill="#76a713"/>
      <path id="Path_75089" data-name="Path 75089" d="M14.065,22.338a2.482,2.482,0,1,0,2.482,2.482A2.482,2.482,0,0,0,14.065,22.338Zm0,3.309a.827.827,0,1,1,.827-.827.827.827,0,0,1-.827.827Z" transform="translate(-1.655 -1.655)" fill="#76a713"/>
      <path id="Path_75090" data-name="Path 75090" d="M19.029,27.3a2.482,2.482,0,1,0,2.482,2.482A2.482,2.482,0,0,0,19.029,27.3Zm0,3.309a.827.827,0,1,1,.827-.827A.827.827,0,0,1,19.029,30.612Z" transform="translate(-1.655 -1.655)" fill="#76a713"/>
      <path id="Path_75091" data-name="Path 75091" d="M23.993,22.338a2.482,2.482,0,1,0,2.482,2.482,2.482,2.482,0,0,0-2.482-2.482Zm0,3.309a.827.827,0,1,1,.827-.827.827.827,0,0,1-.827.827Z" transform="translate(-1.655 -1.655)" fill="#76a713"/>
    </g>
  </g>
  <path id="Path_75076" data-name="Path 75076" d="M21,47h1.632v8.007H21Z" transform="translate(-5.386 -10.17)" fill="#76a713"/>
  <path id="Path_75077" data-name="Path 75077" d="M29,47h1.632v8.007H29Z" transform="translate(-6.857 -10.17)" fill="#76a713"/>
  <path id="Path_75078" data-name="Path 75078" d="M37,47h1.632v8.007H37Z" transform="translate(-8.328 -10.17)" fill="#76a713"/>
  <path id="Path_75079" data-name="Path 75079" d="M45,49h1.632v4.8H45Z" transform="translate(-9.799 -10.569)" fill="#76a713"/>
  <path id="Path_75080" data-name="Path 75080" d="M53,50h1.632v3.2H53Z" transform="translate(-11.27 -10.768)" fill="#76a713"/>
</svg>
