<svg id="services1" xmlns="http://www.w3.org/2000/svg" width="50.6" height="49.641" viewBox="0 0 50.6 49.641">
  <path id="Path_75075" data-name="Path 75075" d="M51.6,28.982a11.058,11.058,0,0,0-4.609-8.9,3.517,3.517,0,0,0-2.053-.662,3.47,3.47,0,0,0-2.417.975c-.118-.1-.226-.2-.348-.3a3.43,3.43,0,0,0-1.555-.625l.36-3.882c.008-.093.012-.187.012-.28a3.132,3.132,0,0,0-3.158-3.1h-.212a3.132,3.132,0,0,0-3.158,3.1c0,.094,0,.187.013.281l.362,3.9a3.529,3.529,0,0,0-1.44.6c-.146.107-.276.231-.416.343-.073-.074-.149-.143-.229-.209a4.6,4.6,0,0,0-.844-3.611,4.7,4.7,0,0,0,.922-2.8,4.862,4.862,0,0,0-5.182-4.8A4.838,4.838,0,0,0,24.4,6a4.869,4.869,0,0,0-4.1-1.792A4.93,4.93,0,0,0,11.448,3.4,4.9,4.9,0,0,0,6.883,7.011a6.44,6.44,0,0,0-4.251,6A6.337,6.337,0,0,0,5.488,18.3a4.717,4.717,0,0,0,1.366,5.6,4.553,4.553,0,0,0-.141,1.116,4.845,4.845,0,0,0,4.309,4.77l1.805,4.96a8.92,8.92,0,0,0-2.319,2.466l-4.276-.932a2.289,2.289,0,0,0-2.785,2.189v.317a2.18,2.18,0,0,0,.107.642H3.448a2.4,2.4,0,1,0,0,4.8h.107a2.18,2.18,0,0,0-.107.642v.317a2.291,2.291,0,0,0,2.783,2.19l4.277-.933a9.009,9.009,0,0,0,7.63,4.189h.192a9.185,9.185,0,0,0,1.365-.1l27.986-4.223A4.538,4.538,0,0,0,51.6,41.833a4.489,4.489,0,0,0-2.647-4.084A10.949,10.949,0,0,0,51.6,30.665ZM41.18,21.367a9.778,9.778,0,0,1,3.89,7.787V32.1a9.737,9.737,0,0,1-1.2,4.682l-6.544-.988a15.676,15.676,0,0,1-.414-3.54V29a15.645,15.645,0,0,1,.207-2.412c.2.017.4.034.609.034,2.327,0,4.081-1.033,4.081-2.4a2.182,2.182,0,0,0-1.456-1.867l.12-1.3a1.727,1.727,0,0,1,.71.311ZM37.619,13.81h.213a1.514,1.514,0,0,1,1.526,1.5,1.256,1.256,0,0,1-.007.136l-.741,8,.623.2c.715.224.94.52.94.583,0,.2-.868.8-2.448.8s-2.448-.6-2.448-.8c0-.063.225-.359.94-.584l.623-.2-.741-8c0-.046-.006-.091-.006-.136a1.514,1.514,0,0,1,1.526-1.5Zm-2.636,7.272.118,1.269a2.182,2.182,0,0,0-1.456,1.867c0,.882.734,1.62,1.874,2.036A17.315,17.315,0,0,0,35.277,29V32.25a17.271,17.271,0,0,0,.317,3.279L30.783,34.8a9.472,9.472,0,0,1-.4-2.708V29.153a9.693,9.693,0,0,1,3.991-7.782A1.84,1.84,0,0,1,34.983,21.083ZM26.163,34.1a9.157,9.157,0,0,1-.68-3.44V28.981a9.464,9.464,0,0,1,3.946-7.617,1.863,1.863,0,0,1,1.084-.347,1.821,1.821,0,0,1,1.279.52,11.225,11.225,0,0,0-3.044,7.617V32.1a11.011,11.011,0,0,0,.282,2.443Zm.077-24.056.149.824.832-.182a3.309,3.309,0,0,1,.711-.082,3.237,3.237,0,0,1,3.264,3.2,3.152,3.152,0,0,1-.937,2.241l-.561.561.561.561a3.152,3.152,0,0,1,.937,2.241c0,.024,0,.048,0,.073a3.437,3.437,0,0,0-2.732.588,11.214,11.214,0,0,0-3.448,4.067q-.464-1.417-.969-2.709a11.328,11.328,0,0,1,3.584-6.2l-.511-.624-.51-.625a12.692,12.692,0,0,0-3.561,5.048,49.438,49.438,0,0,0-3.4-6.457l-1.374.866a46.849,46.849,0,0,1,2.715,5.011,13.693,13.693,0,0,0-5.374-.637l.162,1.593c1.227-.121,4.7-.062,6.328,1.564.572,1.38,1.136,2.892,1.634,4.512a14.044,14.044,0,0,0-5.595-1.268v1.6c.038,0,3.672.024,5.822,1.7a10.611,10.611,0,0,0-.109,1.46v1.684a10.734,10.734,0,0,0,.485,3.164l-4.641-.7c-.245-.037-.492-.062-.74-.079a3.249,3.249,0,0,1-3.264-3.226,3.152,3.152,0,0,1,.224-1.139l.238-.612-.566-.351a3.147,3.147,0,0,1-.984-4.47l.508-.749-.818-.408a4.775,4.775,0,0,1-2.684-4.281A4.836,4.836,0,0,1,15.159,13.2l.507-.143.076-.512a3.253,3.253,0,0,1,3.213-2.737.658.658,0,0,1,.089.01c.057.008.115.015.173.019l.585.046.23-.53a3.275,3.275,0,0,1,6.208.695ZM12.185,28.222H11.61a3.237,3.237,0,0,1-3.264-3.2,3.139,3.139,0,0,1,.224-1.139l.239-.613-.566-.351a3.147,3.147,0,0,1-.985-4.47l.508-.749-.818-.408A4.775,4.775,0,0,1,4.264,13.01,4.836,4.836,0,0,1,7.813,8.395l.507-.143L8.4,7.741A3.254,3.254,0,0,1,11.61,5a.694.694,0,0,1,.091.01c.055.007.111.014.168.019l.588.048.231-.532a3.275,3.275,0,0,1,6.207.7l.149.824.832-.182A3.047,3.047,0,0,1,21.66,6a4.872,4.872,0,0,0-2.867,2.207,4.9,4.9,0,0,0-4.565,3.606,6.44,6.44,0,0,0-4.251,6A6.337,6.337,0,0,0,12.833,23.1a4.718,4.718,0,0,0,1.366,5.6,4.547,4.547,0,0,0-.141,1.115,4.778,4.778,0,0,0,1.594,3.553,8.994,8.994,0,0,0-1.4.528Zm-7.1,10.567v-.317a.662.662,0,0,1,.8-.627l3.884.847c-.095.242-.18.488-.252.739H5.735A.649.649,0,0,1,5.081,38.789ZM2.632,41.833a.81.81,0,0,1,.816-.8H9.2c-.024.264-.041.53-.041.8s.017.536.042.8H3.448a.81.81,0,0,1-.816-.8Zm3.244,3.988a.669.669,0,0,1-.8-.627v-.317a.649.649,0,0,1,.655-.642H9.509c.073.251.158.5.252.739Zm44.091-3.988a2.934,2.934,0,0,1-2.534,2.9L19.448,48.955a7.5,7.5,0,0,1-1.118.084h-.192a7.207,7.207,0,1,1,0-14.412h.192a7.588,7.588,0,0,1,1.117.083l27.985,4.223A2.936,2.936,0,0,1,49.967,41.833Zm0-11.168a9.387,9.387,0,0,1-2.784,6.612l-1.622-.245A11.3,11.3,0,0,0,46.7,32.094V29.153a11.365,11.365,0,0,0-3-7.649,1.822,1.822,0,0,1,1.238-.488,1.852,1.852,0,0,1,1.084.349,9.46,9.46,0,0,1,3.946,7.617Z" transform="translate(-1 -1)" fill="#76a713"/>
  <path id="Path_75076" data-name="Path 75076" d="M21,47h1.632v8.007H21Z" transform="translate(-4.678 -10.17)" fill="#76a713"/>
  <path id="Path_75077" data-name="Path 75077" d="M29,47h1.632v8.007H29Z" transform="translate(-6.149 -10.17)" fill="#76a713"/>
  <path id="Path_75078" data-name="Path 75078" d="M37,47h1.632v8.007H37Z" transform="translate(-7.62 -10.17)" fill="#76a713"/>
  <path id="Path_75079" data-name="Path 75079" d="M45,49h1.632v4.8H45Z" transform="translate(-9.091 -10.569)" fill="#76a713"/>
  <path id="Path_75080" data-name="Path 75080" d="M53,50h1.632v3.2H53Z" transform="translate(-10.562 -10.768)" fill="#76a713"/>
</svg>
