<svg width="27" height="30" viewBox="0 0 27 30" fill="none" xmlns="http://www.w3.org/2000/svg">
<path fill-rule="evenodd" clip-rule="evenodd" d="M23.9455 15.5637C22.8978 12.1807 22.7446 8.86858 22.4261 5.38999C22.364 4.71064 22.8549 4.11151 23.5218 4.04875C24.1891 3.98596 24.7807 4.48777 24.8432 5.16711C25.1451 8.46565 25.2662 11.6151 26.2607 14.8286C26.4621 15.4786 26.1063 16.1721 25.4672 16.373C24.8287 16.578 24.1464 16.2137 23.9455 15.5637Z" fill="#030403"/>
<path fill-rule="evenodd" clip-rule="evenodd" d="M18.1252 21.6618C12.1516 16.7792 6.40995 10.3754 2.26534 3.80469C1.90386 3.23071 2.06787 2.46705 2.63189 2.10207C3.19586 1.73711 3.94724 1.90364 4.30872 2.47762C8.31648 8.8306 13.8694 15.0241 19.6454 19.7422C20.1676 20.1702 20.2509 20.947 19.8313 21.4757C19.4117 22.0044 18.6474 22.0898 18.1252 21.6618Z" fill="#030403"/>
<path fill-rule="evenodd" clip-rule="evenodd" d="M16.2212 28.4831C11.1128 29.6748 5.69882 28.5354 0.873473 26.7455C0.243785 26.5096 -0.0811614 25.8016 0.14764 25.1656C0.376588 24.5254 1.07381 24.1973 1.70325 24.4291C6.09798 26.061 11.0218 27.1656 15.6745 26.081C16.3272 25.9286 16.9795 26.3442 17.13 27.0056C17.281 27.667 16.8735 28.3307 16.2212 28.4831Z" fill="#030403"/>
</svg>
