<svg width="30" height="32" viewBox="0 0 30 32" fill="none" xmlns="http://www.w3.org/2000/svg">
<path fill-rule="evenodd" clip-rule="evenodd" d="M11.018 26.7278C10.8987 25.1876 10.6397 23.5297 10.0071 22.1305C9.25562 20.4687 7.98019 19.5225 6.58367 18.7365C4.78936 17.7271 2.79654 16.968 1.02514 15.8567C0.367165 15.4447 0.20339 14.959 0.129162 14.7495C-0.0582814 14.22 -0.0231304 13.7475 0.116198 13.3325C0.280363 12.8406 0.640362 12.2022 1.56555 11.9742C1.6979 11.9418 1.89584 11.907 2.15192 11.9178C2.33961 11.926 2.90019 12.0537 3.13974 12.0737C3.73009 12.1213 4.31589 12.1867 4.90331 12.2587C6.85848 12.4981 8.49897 12.7796 10.4597 12.3607C13.1214 11.7924 14.8729 10.9677 15.9367 9.48377C16.9655 8.04887 17.3444 6.09604 17.4941 3.50765C17.4999 3.25899 17.5127 3.01492 17.5336 2.77564C17.6305 1.64306 18.5795 0.79909 19.6702 0.875397C20.7601 0.951501 21.5919 1.92034 21.5433 3.05601C21.533 3.29304 21.5213 3.52619 21.5063 3.75582C21.4413 7.29187 23.2686 11.9158 25.1598 14.8341C25.743 15.7338 27.6092 17.3331 28.7007 18.7381C29.5058 19.7749 29.9458 20.8103 29.9947 21.5904C30.0281 22.1133 29.9001 22.5106 29.7348 22.8222C29.495 23.2749 29.139 23.607 28.658 23.8036C28.395 23.9105 28.0604 23.9844 27.6655 23.9539C27.4754 23.9391 27.0146 23.8149 26.8066 23.7561C26.0608 23.7725 25.3192 23.8402 24.5729 23.8322C22.7924 23.8131 21.5129 24.3925 19.8525 25.0416C18.2987 25.6485 17.211 26.4624 16.1636 27.8081C16.0657 27.9938 15.2752 29.4925 14.9127 29.9985C14.382 30.7374 13.7484 30.9834 13.425 31.0465C12.8763 31.1542 12.4451 31.0608 12.1034 30.9136C11.5992 30.696 11.2147 30.3272 10.9652 29.7934C10.8098 29.4627 10.6947 29.001 10.7265 28.4348C10.7502 27.9972 10.9853 26.884 11.018 26.7278ZM10.7262 16.5615C10.9046 16.5316 11.085 16.4971 11.2681 16.458C15.1665 15.6258 17.6012 14.1585 19.159 11.9844L19.2104 11.9111C19.9529 13.8632 20.8718 15.699 21.8267 17.1725C22.2197 17.7792 23.1263 18.6901 24.0474 19.6578C22.0088 19.7356 20.424 20.3503 18.4389 21.1253C16.9237 21.7179 15.7114 22.4434 14.6177 23.4453C14.3946 22.3691 14.0803 21.3141 13.6444 20.3499C12.9183 18.7445 11.9095 17.5358 10.7262 16.5615Z" fill="#030403"/>
</svg>
