<svg width="48" height="48" viewBox="0 0 48 48" fill="none" xmlns="http://www.w3.org/2000/svg">
<path d="M35.2303 7.96866H12.7676L15.0818 1.16019C15.3175 0.466541 15.9689 0 16.7015 0H31.2963C32.029 0 32.6803 0.466541 32.9161 1.16019L35.2303 7.96866Z" fill="url(#paint0_linear_235_6583)"/>
<path d="M12.7676 7.96862H35.2303L33.3535 2.44702H14.6444L12.7676 7.96862Z" fill="url(#paint1_linear_235_6583)"/>
<path d="M35.2303 40.0313H12.7676L15.0818 46.8398C15.3176 47.5334 15.9689 48 16.7016 48H31.2964C32.0291 48 32.6804 47.5334 32.9162 46.8398L35.2303 40.0313Z" fill="url(#paint2_linear_235_6583)"/>
<path d="M35.2303 40.0313H12.7676L15.0818 46.8398C15.3176 47.5334 15.9689 48 16.7016 48H31.2964C32.0291 48 32.6804 47.5334 32.9162 46.8398L35.2303 40.0313Z" fill="url(#paint3_linear_235_6583)"/>
<path d="M12.7676 40.0313L13.1876 41.2671L19.9205 48H31.2963C32.0289 48 32.6803 47.5334 32.9161 46.8398L35.2303 40.0313H12.7676Z" fill="url(#paint4_linear_235_6583)"/>
<path d="M9.35938 35.5955V12.4047C9.35938 9.07679 12.0572 6.37891 15.3852 6.37891H32.6139C35.9418 6.37891 38.6396 9.07669 38.6396 12.4047V35.5954C38.6396 38.9233 35.9419 41.6212 32.6139 41.6212H15.3852C12.0572 41.6212 9.35938 38.9234 9.35938 35.5955Z" fill="url(#paint5_linear_235_6583)"/>
<path d="M9.35938 25.632V35.5954C9.35938 38.9233 12.0572 41.6212 15.3852 41.6212H32.6139C35.9418 41.6212 38.6396 38.9234 38.6396 35.5954V25.632H9.35938Z" fill="url(#paint6_linear_235_6583)"/>
<path d="M11.3066 34.0529V13.9472C11.3066 11.0619 13.6456 8.72296 16.5308 8.72296H31.4677C34.353 8.72296 36.6919 11.0619 36.6919 13.9472V34.0529C36.6919 36.9382 34.353 39.2771 31.4677 39.2771H16.5308C13.6456 39.2771 11.3066 36.9381 11.3066 34.0529Z" fill="url(#paint7_linear_235_6583)"/>
<path d="M12.2012 33.3441V14.6559C12.2012 11.9741 14.3752 9.80011 17.057 9.80011H30.9407C33.6224 9.80011 35.7965 11.9741 35.7965 14.6559V33.344C35.7965 36.0258 33.6224 38.1998 30.9407 38.1998H17.057C14.3752 38.1999 12.2012 36.0259 12.2012 33.3441Z" fill="url(#paint8_linear_235_6583)"/>
<path d="M12.2012 33.3441V14.6559C12.2012 11.9741 14.3752 9.80011 17.057 9.80011H30.9407C33.6224 9.80011 35.7965 11.9741 35.7965 14.6559V33.344C35.7965 36.0258 33.6224 38.1998 30.9407 38.1998H17.057C14.3752 38.1999 12.2012 36.0259 12.2012 33.3441Z" fill="url(#paint9_linear_235_6583)"/>
<path d="M35.7978 21.373L34.2134 19.7849C31.481 17.0898 27.8622 15.6055 24.0236 15.6055C20.185 15.6055 16.5662 17.0899 13.8338 19.7849C13.2293 20.3812 13.2226 21.3546 13.8188 21.9591L30.0596 38.1999H30.9419C33.6237 38.1999 35.7977 36.0259 35.7977 33.3441V21.373H35.7978Z" fill="url(#paint10_linear_235_6583)"/>
<path d="M35.7974 33.3442V28.3371L30.7247 23.2644C28.9238 21.5025 26.5439 20.5321 24.0232 20.5321C21.5025 20.5321 19.1226 21.5025 17.3216 23.2644C16.7147 23.8582 16.704 24.8317 17.2979 25.4386L30.0698 38.2H30.9417C33.6234 38.2 35.7974 36.0259 35.7974 33.3442Z" fill="url(#paint11_linear_235_6583)"/>
<path d="M35.5736 34.8047L27.3616 26.5927C26.4565 25.7352 25.271 25.2631 24.0233 25.2631C22.7757 25.2631 21.5902 25.7352 20.6851 26.5927C20.0851 27.161 20.0443 28.098 20.5812 28.716L30.0712 38.1999H30.9417C33.1145 38.1999 34.9536 36.7726 35.5736 34.8047Z" fill="url(#paint12_linear_235_6583)"/>
<path d="M32.5871 37.9133L25.0551 30.3813C24.8092 30.0768 24.4333 29.8818 24.0115 29.8818C23.2706 29.8818 22.6699 30.4825 22.6699 31.2234C22.6699 31.6452 22.865 32.0211 23.1694 32.2671L29.1024 38.2001H30.9412C31.519 38.2 32.073 38.0985 32.5871 37.9133Z" fill="url(#paint13_linear_235_6583)"/>
<path d="M23.9997 32.5552C24.7439 32.5552 25.3471 31.952 25.3471 31.2078C25.3471 30.4637 24.7439 29.8604 23.9997 29.8604C23.2556 29.8604 22.6523 30.4637 22.6523 31.2078C22.6523 31.952 23.2556 32.5552 23.9997 32.5552Z" fill="url(#paint14_linear_235_6583)"/>
<path d="M33.1692 22.2988C32.7768 22.2988 32.3843 22.1504 32.0829 21.8531C29.9161 19.7159 27.0464 18.5388 24.0022 18.5388C20.9581 18.5388 18.0883 19.7159 15.9215 21.8531C15.3132 22.4531 14.3337 22.4463 13.7337 21.838C13.1337 21.2298 13.1405 20.2503 13.7488 19.6503C16.4981 16.9384 20.1396 15.4448 24.0021 15.4448C27.8647 15.4448 31.506 16.9384 34.2556 19.6504C34.8639 20.2504 34.8705 21.2299 34.2706 21.8381C33.968 22.145 33.5686 22.2988 33.1692 22.2988Z" fill="url(#paint15_linear_235_6583)"/>
<path d="M18.3411 25.8044C17.9395 25.8044 17.5382 25.649 17.2352 25.3392C16.6376 24.7285 16.6484 23.749 17.2591 23.1515C19.0713 21.3785 21.4661 20.402 24.0025 20.402C26.5389 20.402 28.9338 21.3785 30.7459 23.1515C31.3567 23.749 31.3673 24.7285 30.7699 25.3392C30.1722 25.95 29.1928 25.9606 28.5821 25.3632C27.3515 24.1592 25.7252 23.4961 24.0024 23.4961C22.2798 23.4961 20.6534 24.1592 19.4228 25.3632C19.122 25.6576 18.7314 25.8044 18.3411 25.8044Z" fill="url(#paint16_linear_235_6583)"/>
<path d="M26.2982 29.1708C25.9162 29.1708 25.5336 29.0303 25.2345 28.7469C24.9009 28.4309 24.4636 28.2568 24.0033 28.2568C23.543 28.2568 23.1057 28.4309 22.772 28.7469C22.1517 29.3346 21.1725 29.308 20.585 28.6877C19.9975 28.0675 20.024 27.0883 20.6442 26.5007C21.555 25.6379 22.7479 25.1627 24.0033 25.1627C25.2586 25.1627 26.4516 25.6379 27.3623 26.5007C27.9827 27.0883 28.0091 28.0675 27.4215 28.6877C27.1173 29.0088 26.7081 29.1708 26.2982 29.1708Z" fill="url(#paint17_linear_235_6583)"/>
<defs>
<linearGradient id="paint0_linear_235_6583" x1="20.7948" y1="-0.383341" x2="24.6535" y2="8.9344" gradientUnits="userSpaceOnUse">
<stop stop-color="#9D66D6"/>
<stop offset="1" stop-color="#453D81"/>
</linearGradient>
<linearGradient id="paint1_linear_235_6583" x1="23.9989" y1="3.19996" x2="23.9989" y2="6.02979" gradientUnits="userSpaceOnUse">
<stop stop-color="#453D81" stop-opacity="0"/>
<stop offset="1" stop-color="#453D81"/>
</linearGradient>
<linearGradient id="paint2_linear_235_6583" x1="20.821" y1="39.225" x2="28.8275" y2="47.2317" gradientUnits="userSpaceOnUse">
<stop stop-color="#9D66D6"/>
<stop offset="1" stop-color="#453D81"/>
</linearGradient>
<linearGradient id="paint3_linear_235_6583" x1="23.9989" y1="43.8588" x2="23.9989" y2="47.2615" gradientUnits="userSpaceOnUse">
<stop stop-color="#453D81" stop-opacity="0"/>
<stop offset="1" stop-color="#453D81"/>
</linearGradient>
<linearGradient id="paint4_linear_235_6583" x1="23.9989" y1="48.8941" x2="23.9989" y2="40.6096" gradientUnits="userSpaceOnUse">
<stop stop-color="#453D81" stop-opacity="0"/>
<stop offset="1" stop-color="#453D81"/>
</linearGradient>
<linearGradient id="paint5_linear_235_6583" x1="8.67665" y1="8.67726" x2="38.9485" y2="38.9491" gradientUnits="userSpaceOnUse">
<stop stop-color="#5A5A5A"/>
<stop offset="1" stop-color="#464646"/>
</linearGradient>
<linearGradient id="paint6_linear_235_6583" x1="23.9995" y1="33.2946" x2="23.9995" y2="41.1187" gradientUnits="userSpaceOnUse">
<stop stop-color="#464646" stop-opacity="0"/>
<stop offset="1" stop-color="#202020"/>
</linearGradient>
<linearGradient id="paint7_linear_235_6583" x1="36.1755" y1="36.1762" x2="13.4911" y2="13.4919" gradientUnits="userSpaceOnUse">
<stop stop-color="#5A5A5A"/>
<stop offset="1" stop-color="#464646"/>
</linearGradient>
<linearGradient id="paint8_linear_235_6583" x1="14.7753" y1="14.7765" x2="26.1119" y2="26.1131" gradientUnits="userSpaceOnUse">
<stop stop-color="#5A5A5A"/>
<stop offset="1" stop-color="#464646"/>
</linearGradient>
<linearGradient id="paint9_linear_235_6583" x1="23.9988" y1="8.65884" x2="23.9988" y2="37.6002" gradientUnits="userSpaceOnUse">
<stop stop-color="#464646" stop-opacity="0"/>
<stop offset="1" stop-color="#202020"/>
</linearGradient>
<linearGradient id="paint10_linear_235_6583" x1="24.6755" y1="24.699" x2="24.4872" y2="17.1225" gradientUnits="userSpaceOnUse">
<stop stop-color="#202020" stop-opacity="0"/>
<stop offset="1" stop-color="#202020"/>
</linearGradient>
<linearGradient id="paint11_linear_235_6583" x1="26.309" y1="29.5285" x2="26.4973" y2="23.2226" gradientUnits="userSpaceOnUse">
<stop stop-color="#202020" stop-opacity="0"/>
<stop offset="1" stop-color="#202020"/>
</linearGradient>
<linearGradient id="paint12_linear_235_6583" x1="28.0661" y1="33.6587" x2="27.7367" y2="29.2351" gradientUnits="userSpaceOnUse">
<stop stop-color="#202020" stop-opacity="0"/>
<stop offset="1" stop-color="#202020"/>
</linearGradient>
<linearGradient id="paint13_linear_235_6583" x1="27.5647" y1="34.5908" x2="26.0588" y2="31.4849" gradientUnits="userSpaceOnUse">
<stop stop-color="#202020" stop-opacity="0"/>
<stop offset="1" stop-color="#202020"/>
</linearGradient>
<linearGradient id="paint14_linear_235_6583" x1="23.2551" y1="30.4631" x2="25.1677" y2="32.3758" gradientUnits="userSpaceOnUse">
<stop stop-color="#BCE097"/>
<stop offset="1" stop-color="#7DC03A"/>
</linearGradient>
<linearGradient id="paint15_linear_235_6583" x1="20.7367" y1="16.2396" x2="25.8417" y2="23.2937" gradientUnits="userSpaceOnUse">
<stop stop-color="#F7E07D"/>
<stop offset="1" stop-color="#E69642"/>
</linearGradient>
<linearGradient id="paint16_linear_235_6583" x1="19.0722" y1="17.4445" x2="24.1771" y2="24.4986" gradientUnits="userSpaceOnUse">
<stop stop-color="#DC4955"/>
<stop offset="1" stop-color="#C4237C"/>
</linearGradient>
<linearGradient id="paint17_linear_235_6583" x1="17.4741" y1="18.6016" x2="22.579" y2="25.6557" gradientUnits="userSpaceOnUse">
<stop stop-color="#76CCF8"/>
<stop offset="0.833" stop-color="#518EF8"/>
<stop offset="1" stop-color="#4981F8"/>
</linearGradient>
</defs>
</svg>
