<svg width="48" height="48" viewBox="0 0 48 48" fill="none" xmlns="http://www.w3.org/2000/svg">
<path d="M40.4364 42.5102C38.3601 40.3217 34.6863 38.712 30.232 37.9347C28.3658 37.6091 27.0088 35.9799 27.0088 34.0854V31.5134H21.0074V34.0857C21.0074 35.986 19.6405 37.6098 17.7686 37.9374C13.2867 38.7217 9.59655 40.3493 7.53152 42.5615C6.73349 43.4164 6.77961 44.7565 7.63458 45.5545C8.48945 46.3526 9.82959 46.3064 10.6276 45.4515C12.3949 43.5582 17.2174 41.6479 24.0077 41.6479C30.7984 41.6479 35.6213 43.5582 37.3886 45.4515C37.8056 45.8982 38.3706 46.1242 38.9371 46.1241C39.4652 46.1241 39.9946 45.9278 40.4064 45.531C41.2504 44.7178 41.2431 43.3604 40.4364 42.5102Z" fill="url(#paint0_linear_235_6490)"/>
<path d="M29.8457 37.8462C28.1815 37.3774 27.0087 35.8464 27.0087 34.0855V31.5134H21.0073V34.0858C21.0073 35.8493 19.8297 37.374 18.1641 37.8462H29.8457V37.8462Z" fill="url(#paint1_linear_235_6490)"/>
<path d="M24.0082 39.5298C16.81 39.5298 10.4968 41.5027 7.53215 44.6787C7.41978 44.7991 7.32604 44.9298 7.24707 45.0665C7.34928 45.243 7.47832 45.408 7.63521 45.5545C8.49008 46.3526 9.83022 46.3064 10.6282 45.4514C12.3955 43.5581 17.2181 41.6478 24.0083 41.6478C30.7991 41.6478 35.622 43.5581 37.3892 45.4514C37.8062 45.8982 38.3712 46.1242 38.9377 46.1241C39.4553 46.1241 39.9741 45.9354 40.3822 45.5545C40.5391 45.408 40.6682 45.2431 40.7704 45.0665C40.6914 44.9297 40.5977 44.799 40.4853 44.6787C37.5205 41.5028 31.2069 39.5298 24.0082 39.5298Z" fill="url(#paint2_linear_235_6490)"/>
<path d="M45.8345 34.1168H2.16546C0.969505 34.1168 0 33.1473 0 31.9513V4.47329C0 3.27725 0.969505 2.30774 2.16546 2.30774H45.8344C47.0305 2.30774 48 3.27725 48 4.47329V31.9513C48 33.1473 47.0305 34.1168 45.8345 34.1168Z" fill="url(#paint3_linear_235_6490)"/>
<path d="M1.38477 30.9859V5.43867C1.38477 4.66107 2.01517 4.03076 2.79277 4.03076H45.2078C45.9854 4.03076 46.6158 4.66116 46.6158 5.43876V30.9859C46.6158 31.7635 45.9854 32.3939 45.2078 32.3939H2.79277C2.01517 32.3938 1.38477 31.7635 1.38477 30.9859Z" fill="url(#paint4_linear_235_6490)"/>
<path d="M0 22.3111V31.9513C0 33.1472 0.969505 34.1167 2.16546 34.1167H45.8344C47.0304 34.1167 47.9999 33.1472 47.9999 31.9513V22.3111H0Z" fill="url(#paint5_linear_235_6490)"/>
<path d="M3.01172 29.4607V6.96393C3.01172 6.26003 3.58235 5.68939 4.28626 5.68939H43.7135C44.4174 5.68939 44.9881 6.26003 44.9881 6.96393V29.4607C44.9881 30.1646 44.4174 30.7352 43.7135 30.7352H4.28626C3.58235 30.7352 3.01172 30.1646 3.01172 29.4607Z" fill="url(#paint6_linear_235_6490)"/>
<defs>
<linearGradient id="paint0_linear_235_6490" x1="24.0012" y1="33.5755" x2="24.0012" y2="43.19" gradientUnits="userSpaceOnUse">
<stop stop-color="#5A5A5A"/>
<stop offset="1" stop-color="#444444"/>
</linearGradient>
<linearGradient id="paint1_linear_235_6490" x1="24.0048" y1="37.3442" x2="24.0048" y2="33.956" gradientUnits="userSpaceOnUse">
<stop stop-color="#433F43" stop-opacity="0"/>
<stop offset="1" stop-color="#1A1A1A"/>
</linearGradient>
<linearGradient id="paint2_linear_235_6490" x1="24.0087" y1="45.4069" x2="24.0087" y2="38.9121" gradientUnits="userSpaceOnUse">
<stop stop-color="#433F43" stop-opacity="0"/>
<stop offset="1" stop-color="#1A1A1A"/>
</linearGradient>
<linearGradient id="paint3_linear_235_6490" x1="10.115" y1="4.32732" x2="40.0001" y2="34.2124" gradientUnits="userSpaceOnUse">
<stop stop-color="#5A5A5A"/>
<stop offset="1" stop-color="#444444"/>
</linearGradient>
<linearGradient id="paint4_linear_235_6490" x1="30.3388" y1="34.1679" x2="18.5714" y2="4.54643" gradientUnits="userSpaceOnUse">
<stop stop-color="#5A5A5A"/>
<stop offset="1" stop-color="#444444"/>
</linearGradient>
<linearGradient id="paint5_linear_235_6490" x1="24" y1="24.4435" x2="24" y2="34.7488" gradientUnits="userSpaceOnUse">
<stop stop-color="#433F43" stop-opacity="0"/>
<stop offset="1" stop-color="#1A1A1A"/>
</linearGradient>
<linearGradient id="paint6_linear_235_6490" x1="3" y1="6.00003" x2="45" y2="30" gradientUnits="userSpaceOnUse">
<stop stop-color="#EAF6FF"/>
<stop offset="0.902404" stop-color="#B3DAFE"/>
</linearGradient>
</defs>
</svg>
