<svg width="48" height="48" viewBox="0 0 48 48" fill="none" xmlns="http://www.w3.org/2000/svg">
<g clip-path="url(#clip0_235_6517)">
<path d="M8.36913 19.5158H3.82423C2.65545 19.5158 1.70801 18.5684 1.70801 17.3996C1.70801 16.2308 2.65545 15.2834 3.82423 15.2834H5.47704C7.44448 15.2834 9.03935 16.8783 9.03935 18.8457C9.03926 19.2158 8.73916 19.5158 8.36913 19.5158Z" fill="url(#paint0_linear_235_6517)"/>
<path d="M39.6301 19.5158H44.175C45.3438 19.5158 46.2912 18.5684 46.2912 17.3996C46.2912 16.2308 45.3438 15.2834 44.175 15.2834H42.5223C40.5548 15.2834 38.96 16.8783 38.96 18.8457C38.9601 19.2158 39.2601 19.5158 39.6301 19.5158Z" fill="url(#paint1_linear_235_6517)"/>
<path d="M39.3594 17.2108C39.1056 17.7007 38.96 18.2558 38.96 18.8455C38.96 19.2157 39.2601 19.5157 39.6301 19.5157H41.6644L39.3594 17.2108Z" fill="url(#paint2_linear_235_6517)"/>
<path d="M33.7973 4.91943H14.2031C12.3094 4.91943 10.6703 6.46622 10.2623 8.63868L8.29688 19.0998H39.7035L37.7382 8.63878C37.3301 6.4664 35.6909 4.91943 33.7973 4.91943Z" fill="url(#paint3_linear_235_6517)"/>
<path d="M9.6709 18.8726H38.3278L37.1125 12.4032H10.8864L9.6709 18.8726Z" fill="url(#paint4_linear_235_6517)"/>
<path d="M32.8313 7.60034H15.1673C14.003 7.60034 12.9964 8.55425 12.7498 9.89094L10.96 19.5989H37.0384L35.2485 9.89103C35.0022 8.55425 33.9956 7.60034 32.8313 7.60034Z" fill="url(#paint5_linear_235_6517)"/>
<path d="M9.75241 43.0806H3.45476C2.10823 43.0806 1.0166 41.989 1.0166 40.6424V30.9644H12.1906V40.6423C12.1906 41.989 11.099 43.0806 9.75241 43.0806Z" fill="url(#paint6_linear_235_6517)"/>
<path d="M12.1906 40.6424V30.9644H1.0166V32.1837L11.3313 42.4984C11.8564 42.0511 12.1906 41.3863 12.1906 40.6424Z" fill="url(#paint7_linear_235_6517)"/>
<path d="M6.60254 43.0806H9.75132C11.0979 43.0806 12.1895 41.989 12.1895 40.6424V30.9644H6.60254V43.0806Z" fill="url(#paint8_linear_235_6517)"/>
<path d="M44.5473 43.0806H38.2497C36.9031 43.0806 35.8115 41.989 35.8115 40.6424V30.9644H46.9855V40.6423C46.9855 41.989 45.8939 43.0806 44.5473 43.0806Z" fill="url(#paint9_linear_235_6517)"/>
<path d="M41.3965 43.0806H44.5453C45.8918 43.0806 46.9834 41.989 46.9834 40.6424V30.9644H41.3965V43.0806Z" fill="url(#paint10_linear_235_6517)"/>
<path d="M46.9855 40.6424V30.9644H35.8115V35.724L35.9534 36.0763L42.9576 43.0806H44.5473C45.8939 43.0806 46.9855 41.989 46.9855 40.6424Z" fill="url(#paint11_linear_235_6517)"/>
<path d="M3.08939 24.145H12.3099V32.1834H1.0416C0.426136 32.1834 -0.0551766 31.6525 0.00510466 31.0399L0.447511 26.5397C0.581011 25.1809 1.72382 24.145 3.08939 24.145Z" fill="url(#paint12_linear_235_6517)"/>
<path d="M12.3102 30.7537L7.59486 26.0381C7.42508 25.8188 7.16005 25.677 6.86117 25.677H2.99248C2.47995 25.677 2.06445 26.0925 2.06445 26.605V27.8554C2.06445 28.1541 2.2062 28.4192 2.42548 28.589L6.01986 32.1833H12.3102V30.7537Z" fill="url(#paint13_linear_235_6517)"/>
<path d="M6.86108 28.7836H2.99248C2.47995 28.7836 2.06445 28.3681 2.06445 27.8556V26.6052C2.06445 26.0927 2.47995 25.6772 2.99248 25.6772H6.86108C7.37361 25.6772 7.78911 26.0927 7.78911 26.6052V27.8556C7.78921 28.368 7.37361 28.7836 6.86108 28.7836Z" fill="url(#paint14_linear_235_6517)"/>
<path d="M44.9109 24.145H35.6904V32.1834H46.9588C47.5742 32.1834 48.0555 31.6525 47.9953 31.0399L47.5529 26.5397C47.4193 25.1809 46.2765 24.145 44.9109 24.145Z" fill="url(#paint15_linear_235_6517)"/>
<path d="M35.6904 32.1833H46.9588C47.1601 32.1833 47.3466 32.1258 47.505 32.0278L39.6222 24.145H35.6905V32.1833H35.6904Z" fill="url(#paint16_linear_235_6517)"/>
<path d="M45.0085 25.6771H41.1399C40.6274 25.6771 40.2119 26.0926 40.2119 26.6051V27.8554C40.2119 28.1541 40.3537 28.4193 40.5729 28.589L44.1673 32.1834H46.9592C47.5746 32.1834 48.0559 31.6525 47.9956 31.0399L47.696 27.9919L45.7422 26.0382C45.5723 25.8188 45.3073 25.6771 45.0085 25.6771Z" fill="url(#paint17_linear_235_6517)"/>
<path d="M41.1399 28.7836H45.0085C45.5211 28.7836 45.9366 28.3681 45.9366 27.8556V26.6052C45.9366 26.0927 45.5211 25.6772 45.0085 25.6772H41.1399C40.6274 25.6772 40.2119 26.0927 40.2119 26.6052V27.8556C40.2119 28.368 40.6274 28.7836 41.1399 28.7836Z" fill="url(#paint18_linear_235_6517)"/>
<path d="M41.1547 25.6771H41.1399C40.6274 25.6771 40.2119 26.0926 40.2119 26.6051V27.8554C40.2119 28.368 40.6274 28.7835 41.1399 28.7835H44.9949C45.2003 28.7835 45.3031 28.5352 45.1579 28.3901L42.5123 25.7446C42.4691 25.7013 42.4105 25.6771 42.3494 25.6771H41.1547Z" fill="url(#paint19_linear_235_6517)"/>
<path d="M42.1205 27.074L40.1568 32.1837H7.84542L5.88173 27.074C3.99126 22.1521 7.62445 16.8641 12.8965 16.8641H35.1058C40.3778 16.8641 44.011 22.152 42.1205 27.074Z" fill="url(#paint20_linear_235_6517)"/>
<path d="M10.9614 28.5345C13.8384 28.5345 16.1708 26.2022 16.1708 23.3251C16.1708 20.4481 13.8384 18.1157 10.9614 18.1157C8.08428 18.1157 5.75195 20.4481 5.75195 23.3251C5.75195 26.2022 8.08428 28.5345 10.9614 28.5345Z" fill="url(#paint21_radial_235_6517)"/>
<path d="M10.9615 26.5573C12.7465 26.5573 14.1936 25.1102 14.1936 23.3252C14.1936 21.5402 12.7465 20.0932 10.9615 20.0932C9.17652 20.0932 7.72949 21.5402 7.72949 23.3252C7.72949 25.1102 9.17652 26.5573 10.9615 26.5573Z" fill="url(#paint22_radial_235_6517)"/>
<path d="M10.9602 25.6106C12.2225 25.6106 13.2457 24.5874 13.2457 23.3252C13.2457 22.063 12.2225 21.0397 10.9602 21.0397C9.69803 21.0397 8.6748 22.063 8.6748 23.3252C8.6748 24.5874 9.69803 25.6106 10.9602 25.6106Z" fill="url(#paint23_radial_235_6517)"/>
<path d="M37.0395 28.5346C39.9166 28.5346 42.2489 26.2023 42.2489 23.3252C42.2489 20.4481 39.9166 18.1158 37.0395 18.1158C34.1624 18.1158 31.8301 20.4481 31.8301 23.3252C31.8301 26.2023 34.1624 28.5346 37.0395 28.5346Z" fill="url(#paint24_radial_235_6517)"/>
<path d="M37.0396 26.5573C38.8247 26.5573 40.2717 25.1102 40.2717 23.3252C40.2717 21.5402 38.8247 20.0932 37.0396 20.0932C35.2546 20.0932 33.8076 21.5402 33.8076 23.3252C33.8076 25.1102 35.2546 26.5573 37.0396 26.5573Z" fill="url(#paint25_radial_235_6517)"/>
<path d="M37.0393 25.6106C38.3016 25.6106 39.3248 24.5874 39.3248 23.3252C39.3248 22.063 38.3016 21.0397 37.0393 21.0397C35.7771 21.0397 34.7539 22.063 34.7539 23.3252C34.7539 24.5874 35.7771 25.6106 37.0393 25.6106Z" fill="url(#paint26_radial_235_6517)"/>
<path d="M28.4463 26.1263V20.4153C28.4463 20.1773 28.6392 19.9844 28.8773 19.9844H30.063C30.301 19.9844 30.494 20.1773 30.494 20.4153V26.1263C30.494 26.3643 30.301 26.5573 30.063 26.5573H28.8773C28.6392 26.5574 28.4463 26.3644 28.4463 26.1263Z" fill="url(#paint27_linear_235_6517)"/>
<path d="M24.7998 26.1263V20.4153C24.7998 20.1773 24.9927 19.9844 25.2308 19.9844H26.4165C26.6546 19.9844 26.8475 20.1773 26.8475 20.4153V26.1263C26.8475 26.3643 26.6546 26.5573 26.4165 26.5573H25.2308C24.9927 26.5574 24.7998 26.3644 24.7998 26.1263Z" fill="url(#paint28_linear_235_6517)"/>
<path d="M21.1533 26.1263V20.4153C21.1533 20.1773 21.3463 19.9844 21.5843 19.9844H22.77C23.0081 19.9844 23.201 20.1773 23.201 20.4153V26.1263C23.201 26.3643 23.0081 26.5573 22.77 26.5573H21.5843C21.3463 26.5574 21.1533 26.3644 21.1533 26.1263Z" fill="url(#paint29_linear_235_6517)"/>
<path d="M17.5059 26.1263V20.4153C17.5059 20.1773 17.6988 19.9844 17.9368 19.9844H19.1226C19.3606 19.9844 19.5535 20.1773 19.5535 20.4153V26.1263C19.5535 26.3643 19.3606 26.5573 19.1226 26.5573H17.9368C17.6988 26.5574 17.5059 26.3644 17.5059 26.1263Z" fill="url(#paint30_linear_235_6517)"/>
<path d="M43.5656 36.0763H4.43468C3.10024 36.0763 2.01855 34.9946 2.01855 33.6602V32.9146C2.01855 31.5802 3.10024 30.4985 4.43468 30.4985H43.5656C44.9 30.4985 45.9817 31.5802 45.9817 32.9146V33.6602C45.9817 34.9946 44.8999 36.0763 43.5656 36.0763Z" fill="url(#paint31_linear_235_6517)"/>
<path d="M32.1928 30.4986H16.874V33.2173C16.874 33.687 17.0876 34.1066 17.4228 34.3846L19.1145 36.0763H37.7704L32.1928 30.4986Z" fill="url(#paint32_linear_235_6517)"/>
<path d="M29.6103 34.7336H18.3901C17.5528 34.7336 16.874 34.0548 16.874 33.2175V30.0507C16.874 29.2133 17.5528 28.5345 18.3901 28.5345H29.6102C30.4476 28.5345 31.1264 29.2133 31.1264 30.0507V33.2175C31.1265 34.0547 30.4476 34.7336 29.6103 34.7336Z" fill="url(#paint33_linear_235_6517)"/>
</g>
<defs>
<linearGradient id="paint0_linear_235_6517" x1="5.37353" y1="15.8888" x2="5.37353" y2="19.3654" gradientUnits="userSpaceOnUse">
<stop stop-color="#FF4C4A"/>
<stop offset="1" stop-color="#FF001C"/>
</linearGradient>
<linearGradient id="paint1_linear_235_6517" x1="42.6248" y1="15.8888" x2="42.6248" y2="19.3654" gradientUnits="userSpaceOnUse">
<stop stop-color="#FF4C4A"/>
<stop offset="1" stop-color="#FF001C"/>
</linearGradient>
<linearGradient id="paint2_linear_235_6517" x1="41.4536" y1="20.4628" x2="39.2749" y2="18.2831" gradientUnits="userSpaceOnUse">
<stop stop-color="#7A7879" stop-opacity="0"/>
<stop offset="1" stop-color="#313838"/>
</linearGradient>
<linearGradient id="paint3_linear_235_6517" x1="22.2943" y1="12.3117" x2="33.7152" y2="15.7883" gradientUnits="userSpaceOnUse">
<stop stop-color="#FF4C4A"/>
<stop offset="1" stop-color="#FF001C"/>
</linearGradient>
<linearGradient id="paint4_linear_235_6517" x1="23.9989" y1="13.8746" x2="23.9989" y2="17.4124" gradientUnits="userSpaceOnUse">
<stop stop-color="#D53932" stop-opacity="0"/>
<stop offset="1" stop-color="#7E1416"/>
</linearGradient>
<linearGradient id="paint5_linear_235_6517" x1="23.9987" y1="2.83492" x2="23.9987" y2="17.0332" gradientUnits="userSpaceOnUse">
<stop stop-color="#456A97"/>
<stop offset="1" stop-color="#1A338C"/>
</linearGradient>
<linearGradient id="paint6_linear_235_6517" x1="6.60347" y1="32.5199" x2="6.60347" y2="44.8688" gradientUnits="userSpaceOnUse">
<stop stop-color="#456A97"/>
<stop offset="1" stop-color="#1A338C"/>
</linearGradient>
<linearGradient id="paint7_linear_235_6517" x1="6.60347" y1="44.227" x2="6.60347" y2="27.0904" gradientUnits="userSpaceOnUse">
<stop stop-color="#456A97" stop-opacity="0"/>
<stop offset="1" stop-color="#1A338C"/>
</linearGradient>
<linearGradient id="paint8_linear_235_6517" x1="12.8357" y1="43.3222" x2="3.47808" y2="26.1856" gradientUnits="userSpaceOnUse">
<stop stop-color="#456A97" stop-opacity="0"/>
<stop offset="1" stop-color="#1A338C"/>
</linearGradient>
<linearGradient id="paint9_linear_235_6517" x1="41.3976" y1="32.5199" x2="41.3976" y2="44.8688" gradientUnits="userSpaceOnUse">
<stop stop-color="#456A97"/>
<stop offset="1" stop-color="#1A338C"/>
</linearGradient>
<linearGradient id="paint10_linear_235_6517" x1="47.6287" y1="43.3223" x2="38.2717" y2="26.1857" gradientUnits="userSpaceOnUse">
<stop stop-color="#456A97" stop-opacity="0"/>
<stop offset="1" stop-color="#1A338C"/>
</linearGradient>
<linearGradient id="paint11_linear_235_6517" x1="45.3912" y1="45.6406" x2="39.4675" y2="27.4019" gradientUnits="userSpaceOnUse">
<stop stop-color="#456A97" stop-opacity="0"/>
<stop offset="1" stop-color="#1A338C"/>
</linearGradient>
<linearGradient id="paint12_linear_235_6517" x1="6.1548" y1="26.0203" x2="6.1548" y2="35.8996" gradientUnits="userSpaceOnUse">
<stop stop-color="#FF4C4A"/>
<stop offset="1" stop-color="#FF001C"/>
</linearGradient>
<linearGradient id="paint13_linear_235_6517" x1="9.8862" y1="32.1895" x2="1.89108" y2="24.1954" gradientUnits="userSpaceOnUse">
<stop stop-color="#D53932" stop-opacity="0"/>
<stop offset="1" stop-color="#7E1416"/>
</linearGradient>
<linearGradient id="paint14_linear_235_6517" x1="4.92667" y1="26.1661" x2="4.92667" y2="29.0508" gradientUnits="userSpaceOnUse">
<stop stop-color="#B3E800"/>
<stop offset="1" stop-color="#98BC00"/>
</linearGradient>
<linearGradient id="paint15_linear_235_6517" x1="41.8445" y1="26.0203" x2="41.8445" y2="35.8996" gradientUnits="userSpaceOnUse">
<stop stop-color="#FF4C4A"/>
<stop offset="1" stop-color="#FF001C"/>
</linearGradient>
<linearGradient id="paint16_linear_235_6517" x1="41.528" y1="32.0371" x2="33.4246" y2="23.9337" gradientUnits="userSpaceOnUse">
<stop stop-color="#6F2E27" stop-opacity="0"/>
<stop offset="1" stop-color="#3F2925"/>
</linearGradient>
<linearGradient id="paint17_linear_235_6517" x1="47.7881" y1="31.9455" x2="40.6504" y2="24.8078" gradientUnits="userSpaceOnUse">
<stop stop-color="#D53932" stop-opacity="0"/>
<stop offset="1" stop-color="#7E1416"/>
</linearGradient>
<linearGradient id="paint18_linear_235_6517" x1="43.0734" y1="26.1661" x2="43.0734" y2="29.0508" gradientUnits="userSpaceOnUse">
<stop stop-color="#B3E800"/>
<stop offset="1" stop-color="#98BC00"/>
</linearGradient>
<linearGradient id="paint19_linear_235_6517" x1="43.728" y1="29.3594" x2="37.0166" y2="22.648" gradientUnits="userSpaceOnUse">
<stop stop-color="#98BC00" stop-opacity="0"/>
<stop offset="1" stop-color="#5E6D03"/>
</linearGradient>
<linearGradient id="paint20_linear_235_6517" x1="24.0006" y1="18.1315" x2="24.0006" y2="31.8121" gradientUnits="userSpaceOnUse">
<stop stop-color="#FF4C4A"/>
<stop offset="1" stop-color="#FF001C"/>
</linearGradient>
<radialGradient id="paint21_radial_235_6517" cx="0" cy="0" r="1" gradientUnits="userSpaceOnUse" gradientTransform="translate(10.9724 23.3257) scale(4.91848)">
<stop stop-color="white"/>
<stop offset="1" stop-color="white" stop-opacity="0"/>
</radialGradient>
<radialGradient id="paint22_radial_235_6517" cx="0" cy="0" r="1" gradientUnits="userSpaceOnUse" gradientTransform="translate(10.15 21.9461) scale(5.22153)">
<stop stop-color="#FFF2E8"/>
<stop offset="0.459" stop-color="#FEF0E6"/>
<stop offset="0.625" stop-color="#FCEBDF"/>
<stop offset="0.743" stop-color="#F7E1D4"/>
<stop offset="0.838" stop-color="#F1D3C3"/>
<stop offset="0.919" stop-color="#E9C1AD"/>
<stop offset="0.99" stop-color="#DFAC92"/>
<stop offset="1" stop-color="#DDA88E"/>
</radialGradient>
<radialGradient id="paint23_radial_235_6517" cx="0" cy="0" r="1" gradientUnits="userSpaceOnUse" gradientTransform="translate(10.3859 22.3497) scale(3.69215)">
<stop stop-color="#FFF2E8"/>
<stop offset="0.459" stop-color="#FEF0E6"/>
<stop offset="0.625" stop-color="#FCEBDF"/>
<stop offset="0.743" stop-color="#F7E1D4"/>
<stop offset="0.838" stop-color="#F1D3C3"/>
<stop offset="0.919" stop-color="#E9C1AD"/>
<stop offset="0.99" stop-color="#DFAC92"/>
<stop offset="1" stop-color="#DDA88E"/>
</radialGradient>
<radialGradient id="paint24_radial_235_6517" cx="0" cy="0" r="1" gradientUnits="userSpaceOnUse" gradientTransform="translate(37.051 23.3257) scale(4.91848)">
<stop stop-color="white"/>
<stop offset="1" stop-color="white" stop-opacity="0"/>
</radialGradient>
<radialGradient id="paint25_radial_235_6517" cx="0" cy="0" r="1" gradientUnits="userSpaceOnUse" gradientTransform="translate(36.2276 21.9461) scale(5.22154)">
<stop stop-color="#FFF2E8"/>
<stop offset="0.459" stop-color="#FEF0E6"/>
<stop offset="0.625" stop-color="#FCEBDF"/>
<stop offset="0.743" stop-color="#F7E1D4"/>
<stop offset="0.838" stop-color="#F1D3C3"/>
<stop offset="0.919" stop-color="#E9C1AD"/>
<stop offset="0.99" stop-color="#DFAC92"/>
<stop offset="1" stop-color="#DDA88E"/>
</radialGradient>
<radialGradient id="paint26_radial_235_6517" cx="0" cy="0" r="1" gradientUnits="userSpaceOnUse" gradientTransform="translate(36.4645 22.3497) scale(3.69215)">
<stop stop-color="#FFF2E8"/>
<stop offset="0.459" stop-color="#FEF0E6"/>
<stop offset="0.625" stop-color="#FCEBDF"/>
<stop offset="0.743" stop-color="#F7E1D4"/>
<stop offset="0.838" stop-color="#F1D3C3"/>
<stop offset="0.919" stop-color="#E9C1AD"/>
<stop offset="0.99" stop-color="#DFAC92"/>
<stop offset="1" stop-color="#DDA88E"/>
</radialGradient>
<linearGradient id="paint27_linear_235_6517" x1="29.4696" y1="22.3084" x2="29.4696" y2="24.6359" gradientUnits="userSpaceOnUse">
<stop stop-color="#B3E800"/>
<stop offset="1" stop-color="#98BC00"/>
</linearGradient>
<linearGradient id="paint28_linear_235_6517" x1="25.8231" y1="22.3084" x2="25.8231" y2="24.6359" gradientUnits="userSpaceOnUse">
<stop stop-color="#B3E800"/>
<stop offset="1" stop-color="#98BC00"/>
</linearGradient>
<linearGradient id="paint29_linear_235_6517" x1="22.1767" y1="22.3084" x2="22.1767" y2="24.6359" gradientUnits="userSpaceOnUse">
<stop stop-color="#B3E800"/>
<stop offset="1" stop-color="#98BC00"/>
</linearGradient>
<linearGradient id="paint30_linear_235_6517" x1="18.5293" y1="22.3084" x2="18.5293" y2="24.6359" gradientUnits="userSpaceOnUse">
<stop stop-color="#B3E800"/>
<stop offset="1" stop-color="#98BC00"/>
</linearGradient>
<linearGradient id="paint31_linear_235_6517" x1="23.9996" y1="31.2145" x2="23.9996" y2="36.9" gradientUnits="userSpaceOnUse">
<stop stop-color="#E7F1FD"/>
<stop offset="1" stop-color="#B2C7D8"/>
</linearGradient>
<linearGradient id="paint32_linear_235_6517" x1="32.5068" y1="40.1461" x2="22.0835" y2="29.7228" gradientUnits="userSpaceOnUse">
<stop stop-color="#B2C7D8" stop-opacity="0"/>
<stop offset="1" stop-color="#879FAF"/>
</linearGradient>
<linearGradient id="paint33_linear_235_6517" x1="23.9997" y1="29.5035" x2="23.9997" y2="35.2804" gradientUnits="userSpaceOnUse">
<stop stop-color="#FFF2E8"/>
<stop offset="1" stop-color="#E7D2B9"/>
</linearGradient>
<clipPath id="clip0_235_6517">
<rect width="48" height="48" fill="white"/>
</clipPath>
</defs>
</svg>
