<svg width="48" height="48" viewBox="0 0 48 48" fill="none" xmlns="http://www.w3.org/2000/svg">
<g clip-path="url(#clip0_235_6633)">
<path d="M4.2102 6.81407C3.75888 5.88116 4.14916 4.75907 5.08207 4.30785C5.38657 4.16057 5.71085 4.10441 6.02576 4.12598C6.32276 3.4657 6.84419 2.90207 7.54685 2.56213C9.13516 1.79366 11.0457 2.45835 11.8142 4.04666C11.9999 4.43057 12.1012 4.83332 12.1266 5.2341C12.8356 5.21048 13.5257 5.59673 13.8545 6.27632C14.2995 7.19591 13.9147 8.30198 12.995 8.74691C12.1599 9.15098 11.1725 8.86907 10.6648 8.12535C10.5581 8.19379 10.4467 8.25716 10.3297 8.31388C9.07403 8.92138 7.61744 8.63254 6.68247 7.70029C5.75651 8.12629 4.65616 7.73563 4.2102 6.81407Z" fill="url(#paint0_linear_235_6633)"/>
<path d="M4.68241 3.3973C5.54848 3.3973 6.25057 2.69521 6.25057 1.82914C6.25057 0.963074 5.54848 0.260986 4.68241 0.260986C3.81635 0.260986 3.11426 0.963074 3.11426 1.82914C3.11426 2.69521 3.81635 3.3973 4.68241 3.3973Z" fill="url(#paint1_linear_235_6633)"/>
<path d="M13.9993 16.0437H10.2171C9.68192 16.0437 9.24805 15.6098 9.24805 15.0746V9.04185C9.24805 8.50663 9.68192 8.07275 10.2171 8.07275H13.9993C14.5345 8.07275 14.9684 8.50663 14.9684 9.04185V15.0746C14.9685 15.6098 14.5346 16.0437 13.9993 16.0437Z" fill="url(#paint2_linear_235_6633)"/>
<path d="M12.8 33.2449H1.50586V47.739H12.8V33.2449Z" fill="url(#paint3_linear_235_6633)"/>
<path d="M13.2709 36.3505H1.53157C1.05054 36.3505 0.706191 35.886 0.845785 35.4256L2.01072 31.5884C2.10241 31.2863 2.38085 31.08 2.6965 31.08H13.271V36.3505H13.2709Z" fill="url(#paint4_linear_235_6633)"/>
<path d="M46.4944 33.2449H35.2002V47.739H46.4944V33.2449Z" fill="url(#paint5_linear_235_6633)"/>
<path d="M46.4943 43.9415L38.906 36.3532H35.2002V47.7387H46.4943V43.9415Z" fill="url(#paint6_linear_235_6633)"/>
<path d="M34.7285 36.3505H46.4679C46.9489 36.3505 47.2932 35.886 47.1536 35.4256L45.9887 31.5884C45.897 31.2863 45.6186 31.08 45.3029 31.08H34.7285V36.3505Z" fill="url(#paint7_linear_235_6633)"/>
<path d="M38.912 17.7508V47.7385H9.0918V17.7508L24 3.13434L38.912 17.7508Z" fill="url(#paint8_linear_235_6633)"/>
<path d="M9.0918 17.7508V19.4689L37.3614 47.7385H38.912V17.7508L24 3.13434L9.0918 17.7508Z" fill="url(#paint9_linear_235_6633)"/>
<path d="M38.912 26.8137V47.7387H29.4974L9.0918 27.333V26.8137H38.912Z" fill="url(#paint10_linear_235_6633)"/>
<path d="M34.3041 47.7387H19.72L11.703 39.7218C11.3501 39.4929 11.1152 39.0959 11.1152 38.6455V32.1932C11.1152 31.4863 11.6908 30.9108 12.3976 30.9108H17.0494C17.5008 30.9108 17.8979 31.1457 18.1267 31.4986L18.0918 31.5262L34.3041 47.7387Z" fill="url(#paint11_linear_235_6633)"/>
<path d="M17.0497 39.1762H12.3983C12.1049 39.1762 11.8672 38.9384 11.8672 38.6451V32.1937C11.8672 31.9003 12.105 31.6626 12.3983 31.6626H17.0497C17.343 31.6626 17.5808 31.9004 17.5808 32.1937V38.6451C17.5809 38.9384 17.343 39.1762 17.0497 39.1762Z" fill="#503837"/>
<path d="M17.0495 39.928H12.3981C11.6908 39.928 11.1152 39.3525 11.1152 38.6451V32.1937C11.1152 31.4864 11.6908 30.9108 12.3981 30.9108H17.0495C17.7569 30.9108 18.3324 31.4864 18.3324 32.1937V38.6451C18.3325 39.3525 17.757 39.928 17.0495 39.928ZM12.6189 38.4243H16.8288V32.4143H12.6189V38.4243Z" fill="white"/>
<path d="M38.9131 33.5721V47.7387H38.4555L30.4385 39.7218C30.0845 39.4929 29.8496 39.0959 29.8496 38.6455V32.1932C29.8496 31.4863 30.4251 30.9108 31.133 30.9108H35.7838C36.2352 30.9108 36.6322 31.1457 36.8611 31.4986L36.8795 31.513L36.8672 31.5264L38.9131 33.5721Z" fill="url(#paint12_linear_235_6633)"/>
<path d="M35.7841 39.1762H31.1327C30.8393 39.1762 30.6016 38.9384 30.6016 38.6451V32.1937C30.6016 31.9003 30.8393 31.6626 31.1327 31.6626H35.7841C36.0774 31.6626 36.3152 31.9004 36.3152 32.1937V38.6451C36.3152 38.9384 36.0774 39.1762 35.7841 39.1762Z" fill="#503837"/>
<path d="M35.7839 39.928H31.1325C30.4251 39.928 29.8496 39.3525 29.8496 38.6451V32.1937C29.8496 31.4864 30.4251 30.9108 31.1325 30.9108H35.7839C36.4912 30.9108 37.0668 31.4864 37.0668 32.1937V38.6451C37.0668 39.3525 36.4912 39.928 35.7839 39.928ZM31.3531 38.4243H35.563V32.4143H31.3531V38.4243Z" fill="white"/>
<path d="M20.8945 47.7384V31.4475C20.8945 30.729 21.477 30.1465 22.1956 30.1465H25.8083C26.5269 30.1465 27.1094 30.729 27.1094 31.4475V47.7384H20.8945Z" fill="#816965"/>
<path d="M27.8788 47.7384H26.3398V31.8912C26.3398 31.3549 25.901 30.9161 25.3647 30.9161H22.639C22.1005 30.9161 21.6639 31.3526 21.6639 31.8912V47.7384H20.125V30.8734C20.125 30.047 20.7949 29.3771 21.6213 29.3771H26.3823C27.2088 29.3771 27.8787 30.047 27.8787 30.8734V47.7384H27.8788Z" fill="#503837"/>
<path d="M22.8999 36.9629C23.2874 36.9629 23.6015 36.6488 23.6015 36.2613C23.6015 35.8738 23.2874 35.5597 22.8999 35.5597C22.5124 35.5597 22.1982 35.8738 22.1982 36.2613C22.1982 36.6488 22.5124 36.9629 22.8999 36.9629Z" fill="white"/>
<path d="M38.913 43.6326H9.09082V47.7381H38.913V43.6326Z" fill="#654E48"/>
<path d="M8.76431 46.134C8.76431 46.7007 8.65716 47.2413 8.46141 47.7383H0.302906C0.107156 47.2413 0 46.7007 0 46.134C0 45.5823 0.101719 45.0549 0.288 44.569C0.917906 42.921 2.51353 41.7519 4.38225 41.7519C6.25097 41.7519 7.8465 42.921 8.4765 44.569C8.66269 45.055 8.76431 45.5824 8.76431 46.134Z" fill="url(#paint13_linear_235_6633)"/>
<path d="M11.5901 46.5747C11.5901 46.9857 11.5124 47.3778 11.3704 47.7384H5.45208C5.31014 47.3779 5.23242 46.9857 5.23242 46.5747C5.23242 46.1745 5.3062 45.7919 5.44139 45.4394C5.89833 44.2439 7.05576 43.3958 8.41139 43.3958C9.76701 43.3958 10.9244 44.2439 11.3814 45.4394C11.5163 45.7918 11.5901 46.1745 11.5901 46.5747Z" fill="url(#paint14_linear_235_6633)"/>
<path d="M48.0007 45.8683C48.0007 46.5288 47.8757 47.1591 47.6476 47.7384H38.1372C37.9092 47.1592 37.7842 46.5288 37.7842 45.8683C37.7842 45.2252 37.9028 44.6105 38.1199 44.0439C38.8542 42.1229 40.7141 40.7601 42.8924 40.7601C45.0707 40.7601 46.9306 42.1229 47.665 44.0439C47.8821 44.6105 48.0007 45.2252 48.0007 45.8683Z" fill="url(#paint15_linear_235_6633)"/>
<path d="M38.9113 22.0407V37.9343L19.7292 18.7513C19.3527 18.5245 19.0996 18.1131 19.0996 17.6426V14.0388C19.0996 11.3376 21.2982 9.14001 23.9994 9.14001C25.462 9.14001 26.7768 9.78567 27.6756 10.8049L38.9113 22.0407Z" fill="url(#paint16_linear_235_6633)"/>
<path d="M36.7268 20.4943H11.6601C11.0624 20.4943 10.5762 20.9806 10.5762 21.5783V26.3907H11.3291V21.5783C11.3291 21.3957 11.4776 21.2472 11.6601 21.2472H13.1595V26.3906H13.9125V21.2472H16.1492V26.3906H16.9021V21.2472H19.1389V26.3906H19.8918V21.2472H22.1286V26.3906H22.8815V21.2472H25.1184V26.3906H25.8713V21.2472H28.1081V26.3906H28.861V21.2472H31.0978V26.3906H31.8507V21.2472H34.0874V26.3906H34.8404V21.2472H36.7264C36.9089 21.2472 37.0574 21.3957 37.0574 21.5783V26.3907H37.8104V21.5783C37.8107 20.9806 37.3244 20.4943 36.7268 20.4943Z" fill="#654E48"/>
<path d="M39.5298 25.6096V28.0236C39.5298 28.3824 39.239 28.6732 38.8802 28.6732H9.11932C8.76054 28.6732 8.46973 28.3824 8.46973 28.0236V25.6096C8.46973 25.2508 8.76054 24.96 9.11932 24.96H38.8802C39.239 24.96 39.5298 25.2508 39.5298 25.6096Z" fill="url(#paint17_linear_235_6633)"/>
<path d="M44.2507 20.3652L24.9959 1.10405C24.4471 0.555241 23.5572 0.555241 23.0084 1.10405L3.74879 20.3636C3.38973 20.7227 3.38973 21.3047 3.74879 21.6638L4.56957 22.4846C4.92863 22.8437 5.51073 22.8437 5.86979 22.4846L23.7404 4.61396C23.8849 4.46949 24.1192 4.46949 24.2636 4.61396L42.1296 22.4861C42.4887 22.8452 43.0707 22.8452 43.4298 22.4861L44.2506 21.6653C44.6097 21.3063 44.6097 20.7242 44.2507 20.3652Z" fill="url(#paint18_linear_235_6633)"/>
<path d="M24.9957 1.10401C24.7213 0.8296 24.3617 0.692444 24.002 0.692444V4.50572C24.0966 4.50572 24.1913 4.54191 24.2636 4.6141L42.1295 22.4862C42.4885 22.8453 43.0706 22.8453 43.4297 22.4862L44.2505 21.6654C44.6095 21.3064 44.6095 20.7243 44.2505 20.3652L24.9957 1.10401Z" fill="url(#paint19_linear_235_6633)"/>
<path d="M27.6023 18.1565H20.3962C20.1121 18.1565 19.8818 17.9262 19.8818 17.6421V14.039C19.8818 11.7649 21.7253 9.92145 23.9994 9.92145C26.2735 9.92145 28.117 11.7649 28.117 14.039V17.6421C28.1168 17.9262 27.8864 18.1565 27.6023 18.1565Z" fill="#654E48"/>
<path d="M23.9999 9.13971C21.2984 9.13971 19.1006 11.3376 19.1006 14.039V17.642C19.1006 18.3568 19.682 18.9383 20.3969 18.9383H27.603C28.3178 18.9383 28.8992 18.3568 28.8992 17.642V14.039C28.8991 11.3375 26.7015 9.13971 23.9999 9.13971ZM27.3086 13.6221H24.7817V10.7967C26.1132 11.1179 27.1353 12.2396 27.3086 13.6221ZM23.218 10.7967V13.6221H20.6911C20.8644 12.2396 21.8865 11.1179 23.218 10.7967ZM20.6641 15.1857H23.218V17.3748H20.6641V15.1857ZM24.7817 17.3748V15.1857H27.3356V17.3748H24.7817Z" fill="white"/>
</g>
<defs>
<linearGradient id="paint0_linear_235_6633" x1="2.39677" y1="3.27289" x2="20.8633" y2="9.6974" gradientUnits="userSpaceOnUse">
<stop stop-color="#E2EDF2"/>
<stop offset="1" stop-color="#9FC7E2"/>
</linearGradient>
<linearGradient id="paint1_linear_235_6633" x1="4.17373" y1="1.65316" x2="6.89273" y2="2.5994" gradientUnits="userSpaceOnUse">
<stop stop-color="#E2EDF2"/>
<stop offset="1" stop-color="#9FC7E2"/>
</linearGradient>
<linearGradient id="paint2_linear_235_6633" x1="10.5759" y1="10.5276" x2="12.4732" y2="12.424" gradientUnits="userSpaceOnUse">
<stop stop-color="#816965"/>
<stop offset="1" stop-color="#654E48"/>
</linearGradient>
<linearGradient id="paint3_linear_235_6633" x1="7.15274" y1="35.0814" x2="7.15274" y2="47.9527" gradientUnits="userSpaceOnUse">
<stop stop-color="#FFE7A5"/>
<stop offset="0.966" stop-color="#FFBF5C"/>
</linearGradient>
<linearGradient id="paint4_linear_235_6633" x1="7.04254" y1="31.7478" x2="7.04254" y2="36.4291" gradientUnits="userSpaceOnUse">
<stop stop-color="#FF5D00"/>
<stop offset="1" stop-color="#D54003"/>
</linearGradient>
<linearGradient id="paint5_linear_235_6633" x1="40.8463" y1="35.0814" x2="40.8463" y2="47.9527" gradientUnits="userSpaceOnUse">
<stop stop-color="#FFE7A5"/>
<stop offset="0.966" stop-color="#FFBF5C"/>
</linearGradient>
<linearGradient id="paint6_linear_235_6633" x1="40.5828" y1="45.1923" x2="28.8757" y2="34.7595" gradientUnits="userSpaceOnUse">
<stop stop-color="#FF5D00" stop-opacity="0"/>
<stop offset="1" stop-color="#D54003"/>
</linearGradient>
<linearGradient id="paint7_linear_235_6633" x1="40.9559" y1="31.7478" x2="40.9559" y2="36.4291" gradientUnits="userSpaceOnUse">
<stop stop-color="#FF5D00"/>
<stop offset="1" stop-color="#D54003"/>
</linearGradient>
<linearGradient id="paint8_linear_235_6633" x1="24.0014" y1="25.7461" x2="24.0014" y2="57.321" gradientUnits="userSpaceOnUse">
<stop stop-color="#FFE7A5"/>
<stop offset="0.966" stop-color="#FFBF5C"/>
<stop offset="1" stop-color="#DB9E36"/>
</linearGradient>
<linearGradient id="paint9_linear_235_6633" x1="20.7787" y1="15.3878" x2="12.1465" y2="6.75555" gradientUnits="userSpaceOnUse">
<stop stop-color="#FF5D00" stop-opacity="0"/>
<stop offset="1" stop-color="#D54003"/>
</linearGradient>
<linearGradient id="paint10_linear_235_6633" x1="25.1239" y1="34.0414" x2="21.7461" y2="13.0753" gradientUnits="userSpaceOnUse">
<stop stop-color="#FF5D00" stop-opacity="0"/>
<stop offset="1" stop-color="#D54003"/>
</linearGradient>
<linearGradient id="paint11_linear_235_6633" x1="20.533" y1="41.229" x2="7.08013" y2="27.7761" gradientUnits="userSpaceOnUse">
<stop stop-color="#FF5D00" stop-opacity="0"/>
<stop offset="1" stop-color="#D54003"/>
</linearGradient>
<linearGradient id="paint12_linear_235_6633" x1="37.0574" y1="39.019" x2="28.4439" y2="30.4055" gradientUnits="userSpaceOnUse">
<stop stop-color="#FF5D00" stop-opacity="0"/>
<stop offset="1" stop-color="#D54003"/>
</linearGradient>
<linearGradient id="paint13_linear_235_6633" x1="1.9108" y1="43.406" x2="7.31831" y2="48.813" gradientUnits="userSpaceOnUse">
<stop stop-color="#9EB644"/>
<stop offset="1" stop-color="#738611"/>
</linearGradient>
<linearGradient id="paint14_linear_235_6633" x1="6.6183" y1="44.5954" x2="10.541" y2="48.5181" gradientUnits="userSpaceOnUse">
<stop stop-color="#9EB644"/>
<stop offset="1" stop-color="#738611"/>
</linearGradient>
<linearGradient id="paint15_linear_235_6633" x1="40.011" y1="42.688" x2="46.3139" y2="48.9918" gradientUnits="userSpaceOnUse">
<stop stop-color="#9EB644"/>
<stop offset="1" stop-color="#738611"/>
</linearGradient>
<linearGradient id="paint16_linear_235_6633" x1="30.8504" y1="21.9477" x2="17.0596" y2="8.15693" gradientUnits="userSpaceOnUse">
<stop stop-color="#FF5D00" stop-opacity="0"/>
<stop offset="1" stop-color="#D54003"/>
</linearGradient>
<linearGradient id="paint17_linear_235_6633" x1="23.9993" y1="25.3556" x2="23.9993" y2="30.2816" gradientUnits="userSpaceOnUse">
<stop stop-color="#FF5D00"/>
<stop offset="1" stop-color="#D54003"/>
</linearGradient>
<linearGradient id="paint18_linear_235_6633" x1="23.9992" y1="13.721" x2="23.9992" y2="30.4444" gradientUnits="userSpaceOnUse">
<stop stop-color="#FF5D00"/>
<stop offset="1" stop-color="#D54003"/>
</linearGradient>
<linearGradient id="paint19_linear_235_6633" x1="38.3828" y1="16.6902" x2="28.2748" y2="6.58233" gradientUnits="userSpaceOnUse">
<stop stop-color="#FF5D00" stop-opacity="0"/>
<stop offset="1" stop-color="#D54003"/>
</linearGradient>
<clipPath id="clip0_235_6633">
<rect width="48" height="48" fill="white"/>
</clipPath>
</defs>
</svg>
