<svg width="48" height="48" viewBox="0 0 48 48" fill="none" xmlns="http://www.w3.org/2000/svg">
<g clip-path="url(#clip0_235_6702)">
<path d="M10.8945 34.7862C10.8945 32.8953 11.0269 31.0249 11.2851 29.185C11.36 28.651 11.9269 28.3365 12.4213 28.5516C12.5212 28.595 12.6212 28.638 12.7217 28.6804C13.8982 29.1781 15.0918 29.6189 16.3002 30.0029C16.6969 30.1289 16.9327 30.5326 16.8535 30.9411C16.5617 32.447 16.4121 33.9919 16.4121 35.5598C16.4121 39.7263 17.4673 43.7301 19.449 47.2683C19.5685 47.4818 19.7797 47.6303 20.0211 47.6706C20.0358 47.673 20.0504 47.6754 20.065 47.6778C20.7383 47.7887 21.242 47.0648 20.9081 46.4698C19.0958 43.2405 18.061 39.5189 18.061 35.5599C18.061 34.1794 18.1876 32.8281 18.4284 31.5163C18.5134 31.0541 18.9639 30.7551 19.4217 30.8617C22.4884 31.5757 25.6383 31.9356 28.8431 31.9356C34.4339 31.9356 39.8578 30.8404 44.9645 28.6805C45.7818 28.3349 46.5843 27.9629 47.3731 27.5676C47.6202 27.4438 47.7877 27.2026 47.821 26.9281C47.9 26.2788 47.2241 25.8071 46.6395 26.1004C41.1834 28.8373 35.1252 30.2867 28.8431 30.2867C25.7929 30.2867 22.7954 29.9447 19.8937 29.2804C19.4163 29.1711 19.1429 28.6685 19.3042 28.206C22.3527 19.4737 30.6706 13.1915 40.4293 13.1915C41.9902 13.1915 43.5138 13.3534 44.9851 13.6595C45.2924 13.7235 45.5388 13.4007 45.3964 13.121C45.2495 12.8324 45.0969 12.547 44.9386 12.2652C44.8186 12.0515 44.6067 11.9031 44.3649 11.8634C43.0762 11.6518 41.7613 11.5428 40.4294 11.5428C34.0142 11.5428 27.9829 14.0409 23.4468 18.5772C20.7906 21.2334 18.8339 24.4023 17.6676 27.8606C17.5237 28.2873 17.0676 28.5242 16.6388 28.3866C15.1847 27.9198 13.7603 27.3695 12.3718 26.7373C12.0149 26.5748 11.8231 26.1834 11.9109 25.8013C13.5634 18.6115 17.1969 12.0117 22.5422 6.66637C24.694 4.51463 27.0498 2.6416 29.5648 1.06182C29.7678 0.934228 29.7058 0.623634 29.4693 0.583322L28.0544 0.34201C27.8492 0.307041 27.638 0.351479 27.4657 0.468197C25.293 1.93941 23.2575 3.61913 21.3761 5.5005C17.5728 9.30383 14.5866 13.7329 12.5006 18.6649C11.6744 20.6183 11.0046 22.6183 10.4917 24.6562C10.3602 25.1789 9.7636 25.4344 9.29447 25.169C8.63307 24.7947 7.98151 24.4008 7.34082 23.9876C7.04926 23.7995 6.90385 23.4511 6.98195 23.1131C7.3907 21.3452 7.60163 19.5184 7.60163 17.6591C7.60163 14.6772 7.06126 11.7785 6.02786 9.07405C5.90645 8.75634 5.48073 8.69887 5.2758 8.97027L4.83705 9.55096C4.67158 9.76996 4.62414 10.0572 4.71452 10.3164C5.51645 12.6173 5.95286 15.0881 5.95286 17.659C5.95286 18.9124 5.84889 20.1421 5.64948 21.3398C5.54795 21.9497 4.83245 22.2323 4.34589 21.8507C3.52511 21.2068 2.21065 20.0123 1.38359 19.2475C1.04534 18.9348 0.493244 19.1158 0.408963 19.5686C0.379432 19.7278 0.3514 19.8873 0.324775 20.0476C0.279963 20.3189 0.369775 20.5962 0.570587 20.7841C1.80415 21.938 3.09864 23.0104 4.45061 23.9979C4.7403 24.2095 4.85767 24.5865 4.74077 24.9255C3.96724 27.1713 2.84496 29.2559 1.43984 31.1157C1.2753 31.3334 1.23462 31.62 1.32405 31.878C1.4208 32.157 1.52243 32.4336 1.62912 32.7078C1.72615 32.9572 2.05765 33.0094 2.22677 32.8019C3.84527 30.8168 5.1212 28.6109 6.02233 26.2571C6.20654 25.776 6.77992 25.5819 7.21913 25.8511C7.92854 26.286 8.65135 26.6997 9.38729 27.0915C9.69507 27.2554 9.86344 27.5994 9.80625 27.9433C9.43332 30.1888 9.24525 32.4732 9.24525 34.7863C9.24525 37.6796 9.53897 40.528 10.1214 43.3109C10.1644 43.5161 10.2847 43.6979 10.4576 43.8163C10.7438 44.0123 11.0346 44.2021 11.3295 44.3858C11.6427 44.5808 12.0334 44.298 11.9492 43.9388C11.254 40.9736 10.8945 37.9077 10.8945 34.7862Z" fill="url(#paint0_linear_235_6702)"/>
<path d="M12.1709 26.646C13.6998 27.3524 15.2727 27.9593 16.8816 28.4642C17.1756 28.5565 17.4897 28.3973 17.585 28.1042C18.7405 24.5511 20.7265 21.2955 23.4448 18.5771C27.9811 14.0408 34.0123 11.5427 40.4275 11.5427C41.5902 11.5427 42.7401 11.6258 43.8708 11.7877C44.2187 11.8375 44.4625 11.4531 44.2741 11.1565C41.1015 6.15797 36.132 2.41239 30.2736 0.829422C30.1242 0.789016 29.964 0.812735 29.8323 0.89411C27.2161 2.50848 24.7688 4.43795 22.5403 6.66638C17.1417 12.0651 13.4891 18.7434 11.8602 26.0166C11.8028 26.2727 11.9326 26.5358 12.1709 26.646Z" fill="url(#paint1_radial_235_6702)"/>
<path d="M19.2067 28.49C19.1019 28.804 19.2915 29.139 19.6136 29.2152C22.6022 29.9222 25.6942 30.2866 28.8425 30.2866C35.2421 30.2866 41.4092 28.7824 46.9443 25.9454C47.5834 25.6179 47.9899 24.9666 47.9978 24.2485C47.9988 24.1658 47.9992 24.0829 47.9992 24C47.9992 20.5051 47.2508 17.1856 45.9077 14.1907C45.8037 13.9589 45.5932 13.7934 45.3453 13.7376C43.7628 13.3809 42.1178 13.1915 40.429 13.1915C30.5647 13.1916 22.1725 19.6104 19.2067 28.49Z" fill="url(#paint2_radial_235_6702)"/>
<path d="M9.59387 25.3363C9.91825 25.5161 10.3247 25.3388 10.4123 24.9784C10.9347 22.8289 11.6312 20.7211 12.501 18.6648C14.587 13.7328 17.5731 9.30376 21.3765 5.50033C23.1461 3.7308 25.0519 2.13977 27.0801 0.732683C27.3095 0.573496 27.2225 0.21359 26.9454 0.179653C25.9801 0.0614344 24.9973 0.00012207 24 0.00012207C16.8242 0.00012207 10.3848 3.15021 5.98684 8.14201C5.84669 8.3011 5.81228 8.5262 5.89103 8.72298C7.01378 11.5268 7.60197 14.5476 7.60197 17.6588C7.60197 19.5763 7.37772 21.4591 6.94347 23.2782C6.88825 23.5098 6.9804 23.7526 7.17981 23.8826C7.96853 24.397 8.77375 24.8815 9.59387 25.3363Z" fill="url(#paint3_radial_235_6702)"/>
<path d="M23.9992 48C35.7279 48 45.4898 39.5862 47.5826 28.4655C47.6677 28.014 47.202 27.6552 46.7882 27.8548C46.1882 28.1441 45.5803 28.4197 44.9639 28.6804C39.8574 30.8403 34.4333 31.9354 28.8425 31.9354C25.5466 31.9354 22.3088 31.5547 19.1598 30.7999C18.8508 30.7258 18.5422 30.9266 18.4809 31.2384C18.2058 32.6371 18.0605 34.0818 18.0605 35.5599C18.0605 39.6306 19.1546 43.4502 21.0627 46.7417C21.4909 47.4805 22.2667 47.9519 23.1201 47.9837C23.4118 47.9944 23.7048 48 23.9992 48Z" fill="url(#paint4_radial_235_6702)"/>
<path d="M0.664085 20.8716C0.491116 20.7107 0.208742 20.8154 0.179867 21.0497C0.0609921 22.0165 -0.000976562 23.001 -0.000976562 24C-0.000976562 26.3729 0.344679 28.6647 0.98649 30.8295C1.06458 31.0929 1.41221 31.1543 1.57561 30.9334C2.9543 29.0697 4.05136 26.9856 4.80183 24.744C4.88058 24.5087 4.79901 24.2507 4.59811 24.1053C3.22683 23.1131 1.91433 22.0342 0.664085 20.8716Z" fill="url(#paint5_radial_235_6702)"/>
<path d="M16.4103 35.5598C16.4103 33.9131 16.5753 32.2918 16.8968 30.7145C16.9543 30.4325 16.7853 30.1554 16.5105 30.0696C15.2295 29.67 13.9651 29.2071 12.7198 28.6803L12.1124 28.4232C11.7705 28.2786 11.3843 28.4959 11.3296 28.8631C11.0408 30.8067 10.8926 32.7849 10.8926 34.7861C10.8926 38.1614 11.313 41.4717 12.1239 44.6594C12.1621 44.8095 12.2607 44.9379 12.396 45.0129C14.3757 46.1083 16.5263 46.932 18.798 47.4339C19.1262 47.5064 19.3857 47.1629 19.2273 46.8665C17.3877 43.4283 16.4103 39.5694 16.4103 35.5598Z" fill="url(#paint6_radial_235_6702)"/>
<path d="M9.24513 34.7862C9.24513 32.4123 9.44322 30.0687 9.83584 27.7666C9.87691 27.526 9.75916 27.2877 9.54325 27.1739C8.66032 26.7088 7.79622 26.2122 6.95144 25.6855C6.6491 25.497 6.25245 25.6374 6.12935 25.9716C5.28832 28.2559 4.09676 30.4049 2.58345 32.3533C2.13392 32.932 2.03492 33.7134 2.35208 34.374C4.01276 37.833 6.47791 40.8323 9.50528 43.1296C9.74331 43.3103 10.0774 43.1044 10.0198 42.8112C9.50481 40.1872 9.24513 37.5064 9.24513 34.7862Z" fill="url(#paint7_radial_235_6702)"/>
<path d="M5.9542 17.6589C5.9542 15.1454 5.5372 12.7277 4.7691 10.4708C4.68914 10.2357 4.37404 10.1896 4.23192 10.3934C2.73464 12.5393 1.49386 15.2792 0.762706 17.9515C0.661362 18.3219 0.77705 18.7175 1.06064 18.9765C1.88264 19.7273 3.62695 21.3006 4.68314 22.1113C5.01642 22.3672 5.49913 22.1763 5.5761 21.7633C5.82426 20.4324 5.9542 19.0606 5.9542 17.6589Z" fill="url(#paint8_radial_235_6702)"/>
</g>
<defs>
<linearGradient id="paint0_linear_235_6702" x1="0.31353" y1="24.0103" x2="47.8263" y2="24.0103" gradientUnits="userSpaceOnUse">
<stop stop-color="#654E48"/>
<stop offset="0.445" stop-color="#5F4843"/>
<stop offset="1" stop-color="#503837"/>
</linearGradient>
<radialGradient id="paint1_radial_235_6702" cx="0" cy="0" r="1" gradientUnits="userSpaceOnUse" gradientTransform="translate(10.5926 11.3815) scale(36.4575)">
<stop stop-color="#FF931E"/>
<stop offset="0.325" stop-color="#FF901C"/>
<stop offset="0.567" stop-color="#FF8717"/>
<stop offset="0.781" stop-color="#FF770E"/>
<stop offset="0.978" stop-color="#FF6002"/>
<stop offset="1" stop-color="#FF5D00"/>
</radialGradient>
<radialGradient id="paint2_radial_235_6702" cx="0" cy="0" r="1" gradientUnits="userSpaceOnUse" gradientTransform="translate(10.5938 11.3816) scale(36.4575)">
<stop stop-color="#FF931E"/>
<stop offset="0.325" stop-color="#FF901C"/>
<stop offset="0.567" stop-color="#FF8717"/>
<stop offset="0.781" stop-color="#FF770E"/>
<stop offset="0.978" stop-color="#FF6002"/>
<stop offset="1" stop-color="#FF5D00"/>
</radialGradient>
<radialGradient id="paint3_radial_235_6702" cx="0" cy="0" r="1" gradientUnits="userSpaceOnUse" gradientTransform="translate(10.5947 11.3815) scale(36.4575)">
<stop stop-color="#FF931E"/>
<stop offset="0.325" stop-color="#FF901C"/>
<stop offset="0.567" stop-color="#FF8717"/>
<stop offset="0.781" stop-color="#FF770E"/>
<stop offset="0.978" stop-color="#FF6002"/>
<stop offset="1" stop-color="#FF5D00"/>
</radialGradient>
<radialGradient id="paint4_radial_235_6702" cx="0" cy="0" r="1" gradientUnits="userSpaceOnUse" gradientTransform="translate(10.5939 11.3816) scale(36.4575)">
<stop stop-color="#FF931E"/>
<stop offset="0.325" stop-color="#FF901C"/>
<stop offset="0.567" stop-color="#FF8717"/>
<stop offset="0.781" stop-color="#FF770E"/>
<stop offset="0.978" stop-color="#FF6002"/>
<stop offset="1" stop-color="#FF5D00"/>
</radialGradient>
<radialGradient id="paint5_radial_235_6702" cx="0" cy="0" r="1" gradientUnits="userSpaceOnUse" gradientTransform="translate(10.5936 11.3815) scale(36.4575)">
<stop stop-color="#FF931E"/>
<stop offset="0.325" stop-color="#FF901C"/>
<stop offset="0.567" stop-color="#FF8717"/>
<stop offset="0.781" stop-color="#FF770E"/>
<stop offset="0.978" stop-color="#FF6002"/>
<stop offset="1" stop-color="#FF5D00"/>
</radialGradient>
<radialGradient id="paint6_radial_235_6702" cx="0" cy="0" r="1" gradientUnits="userSpaceOnUse" gradientTransform="translate(10.5925 11.3816) scale(36.4575)">
<stop stop-color="#FF931E"/>
<stop offset="0.325" stop-color="#FF901C"/>
<stop offset="0.567" stop-color="#FF8717"/>
<stop offset="0.781" stop-color="#FF770E"/>
<stop offset="0.978" stop-color="#FF6002"/>
<stop offset="1" stop-color="#FF5D00"/>
</radialGradient>
<radialGradient id="paint7_radial_235_6702" cx="0" cy="0" r="1" gradientUnits="userSpaceOnUse" gradientTransform="translate(10.5939 11.3815) scale(36.4575)">
<stop stop-color="#FF931E"/>
<stop offset="0.325" stop-color="#FF901C"/>
<stop offset="0.567" stop-color="#FF8717"/>
<stop offset="0.781" stop-color="#FF770E"/>
<stop offset="0.978" stop-color="#FF6002"/>
<stop offset="1" stop-color="#FF5D00"/>
</radialGradient>
<radialGradient id="paint8_radial_235_6702" cx="0" cy="0" r="1" gradientUnits="userSpaceOnUse" gradientTransform="translate(10.5957 11.3816) scale(36.4575)">
<stop stop-color="#FF931E"/>
<stop offset="0.325" stop-color="#FF901C"/>
<stop offset="0.567" stop-color="#FF8717"/>
<stop offset="0.781" stop-color="#FF770E"/>
<stop offset="0.978" stop-color="#FF6002"/>
<stop offset="1" stop-color="#FF5D00"/>
</radialGradient>
<clipPath id="clip0_235_6702">
<rect width="48" height="48" fill="white"/>
</clipPath>
</defs>
</svg>
