<svg width="40" height="40" viewBox="0 0 40 40" fill="none" xmlns="http://www.w3.org/2000/svg">
<path d="M37.1912 17.4393C37.0381 13.0762 35.2712 8.99621 32.1687 5.89371C28.9169 2.64121 24.595 0.850586 20 0.850586C10.7194 0.850586 3.13623 8.23746 2.80936 17.4393C1.39311 18.0687 0.401855 19.4862 0.401855 21.1337V25.6725C0.401855 27.9012 2.21498 29.715 4.44436 29.715C5.88686 29.715 7.05998 28.5418 7.05998 27.0993V19.7062C7.05998 18.3518 6.02123 17.2475 4.70061 17.1162C5.18811 9.09934 11.8619 2.72559 20 2.72559C24.095 2.72559 27.9456 4.32184 30.8437 7.21996C33.505 9.88121 35.0625 13.35 35.2969 17.1168C33.9775 17.2493 32.9406 18.3531 32.9406 19.7062V27.0987C32.9406 28.4643 33.9956 29.5756 35.3319 29.6912V31.5593C35.3319 33.6631 33.62 35.3743 31.5162 35.3743H28.6906C28.5519 34.9781 28.3344 34.6118 28.0294 34.3081C27.495 33.7712 26.7825 33.4756 26.0237 33.4756H23.1112C22.6931 33.4756 22.2919 33.5643 21.9244 33.7356C20.9219 34.1962 20.2744 35.2075 20.2744 36.3118C20.2744 37.0706 20.57 37.7831 21.1056 38.3162C21.6412 38.8531 22.3537 39.1487 23.1112 39.1487H26.0237C27.2312 39.1487 28.2956 38.3681 28.6925 37.2493H31.5162C34.6544 37.2493 37.2069 34.6968 37.2069 31.5593V29.3575C38.6144 28.7243 39.5981 27.3118 39.5981 25.6712V21.1325C39.5981 19.4862 38.6069 18.0687 37.1912 17.4393V17.4393ZM5.18436 19.7062V27.0987C5.18436 27.5068 4.85248 27.8393 4.44373 27.8393C3.24873 27.8393 2.27623 26.8668 2.27623 25.6718V21.1331C2.27623 19.9375 3.24873 18.9656 4.44373 18.9656C4.85248 18.9656 5.18436 19.2981 5.18436 19.7062V19.7062ZM26.9644 36.5131C26.8712 36.9543 26.475 37.275 26.0231 37.275H23.1106C22.8544 37.275 22.6137 37.175 22.43 36.9912C22.2487 36.8106 22.1487 36.5693 22.1487 36.3131C22.1487 35.9387 22.3681 35.5968 22.7119 35.4387C22.8344 35.3812 22.9687 35.3518 23.1106 35.3518H26.0231C26.2794 35.3518 26.52 35.4512 26.7031 35.635C26.8844 35.8156 26.9844 36.0568 26.9844 36.3131C26.985 36.3818 26.9775 36.4506 26.9644 36.5131V36.5131ZM37.7231 25.6718C37.7231 26.8668 36.7506 27.8393 35.5556 27.8393C35.1475 27.8393 34.815 27.5075 34.815 27.0987V19.7062C34.815 19.2981 35.1469 18.9656 35.5556 18.9656C36.7506 18.9656 37.7231 19.9381 37.7231 21.1331V25.6718Z" fill="#FF7465"/>
<path d="M26.0708 25.9954C28.2614 25.9954 30.0433 24.2129 30.0433 22.0229V13.9286C30.0433 12.8698 29.6295 11.8723 28.8783 11.1211C28.127 10.3698 27.1302 9.95605 26.0708 9.95605H13.9295C11.7389 9.95605 9.95703 11.7379 9.95703 13.9286V22.0229C9.95703 24.2136 11.7389 25.9954 13.9295 25.9954H14.0039V28.0929C14.0039 28.8929 14.4808 29.6029 15.2183 29.9023C15.4564 29.9979 15.7039 30.0454 15.9489 30.0454C16.4595 30.0454 16.957 29.8429 17.3214 29.4661L20.8108 25.9954H26.0708ZM19.7639 24.3929L15.9877 28.1486C15.9708 28.1661 15.9583 28.1792 15.9227 28.1636C15.8795 28.1461 15.8795 28.1179 15.8795 28.0929V25.0579C15.8795 24.5404 15.4602 24.1204 14.942 24.1204H13.9302C12.7733 24.1204 11.8327 23.1792 11.8327 22.0229V13.9286C11.8327 12.7717 12.7733 11.8311 13.9302 11.8311H26.0714C26.6302 11.8311 27.1558 12.0498 27.5533 12.4467C27.9508 12.8442 28.1689 13.3704 28.1689 13.9286V22.0229C28.1689 23.1798 27.2277 24.1204 26.0714 24.1204H20.4252C20.177 24.1204 19.9395 24.2186 19.7639 24.3929V24.3929Z" fill="#FF7465"/>
<path d="M15.4456 16.7422C14.6831 16.7422 14.0625 17.3634 14.0625 18.1253C14.0625 18.8872 14.6837 19.5084 15.4456 19.5084C16.2087 19.5084 16.83 18.8872 16.83 18.1253C16.83 17.3634 16.2094 16.7422 15.4456 16.7422Z" fill="#FF7465"/>
<path d="M19.9993 16.7422C19.2368 16.7422 18.6162 17.3634 18.6162 18.1253C18.6162 18.8872 19.2375 19.5084 19.9993 19.5084C20.7631 19.5084 21.3837 18.8872 21.3837 18.1253C21.3837 17.3634 20.7631 16.7422 19.9993 16.7422Z" fill="#FF7465"/>
<path d="M24.553 16.7422C23.7905 16.7422 23.1699 17.3634 23.1699 18.1253C23.1699 18.8872 23.7912 19.5084 24.553 19.5084C25.3162 19.5084 25.9374 18.8872 25.9374 18.1253C25.9374 17.3634 25.3162 16.7422 24.553 16.7422Z" fill="#FF7465"/>
</svg>