<svg width="40" height="40" viewBox="0 0 40 40" fill="none" xmlns="http://www.w3.org/2000/svg">
<g clip-path="url(#clip0_204_2526)">
<path d="M19.9998 0C11.2593 0 4.14844 7.11086 4.14844 15.8513C4.14844 20.8102 6.43789 25.2437 10.0146 28.1526L9.17305 29.6991C9.01867 29.9827 9.12352 30.3378 9.40711 30.4921C9.69078 30.6464 10.0457 30.5416 10.2001 30.258L10.9587 28.8638C12.7683 30.1249 14.8516 31.0187 17.1004 31.436L13.1222 38.7548L11.3377 36.142C11.1409 35.8541 10.8154 35.6772 10.467 35.6688L7.30391 35.5923L8.90258 32.6512C9.0568 32.3675 8.9518 32.0125 8.66813 31.8583C8.3843 31.7041 8.02945 31.8091 7.87531 32.0927L6.2118 35.1532C6.02961 35.4884 6.03484 35.8856 6.22586 36.2159C6.4168 36.5461 6.75852 36.7487 7.13977 36.7579L10.3961 36.8366L12.2332 39.5265C12.4377 39.8258 12.7692 40.0001 13.1286 40.0001C13.1473 40.0001 13.1662 39.9995 13.1852 39.9986C13.5661 39.9793 13.9023 39.7677 14.0845 39.4326L18.3336 31.6153C18.8813 31.6728 19.437 31.7027 19.9996 31.7027C20.5595 31.7027 21.1155 31.6731 21.6659 31.6158L25.9147 39.4326C26.0969 39.7677 26.433 39.9793 26.8141 39.9986C26.833 39.9995 26.8518 40.0001 26.8706 40.0001C27.23 40.0001 27.5616 39.8258 27.766 39.5265L29.6032 36.8366L32.8595 36.7579C33.2408 36.7487 33.5824 36.546 33.7734 36.2159C33.9645 35.8857 33.9698 35.4884 33.7876 35.1532L29.987 28.1612C32.1848 26.3795 33.8563 24.063 34.8508 21.4048C34.9639 21.1023 34.8105 20.7655 34.5081 20.6524C34.2057 20.5394 33.8689 20.6927 33.7558 20.9951C32.7187 23.7675 30.8866 26.1392 28.4577 27.8541C25.9749 29.607 23.0502 30.5336 19.9997 30.5336C11.9039 30.5336 5.31758 23.9472 5.31758 15.8514C5.31758 7.75562 11.904 1.16922 19.9998 1.16922C28.0955 1.16922 34.6819 7.75555 34.6819 15.8513C34.6819 16.7268 34.6043 17.6035 34.4514 18.4572C34.3945 18.775 34.606 19.0787 34.9238 19.1357C35.2413 19.1927 35.5455 18.9811 35.6023 18.6633C35.7673 17.7419 35.8511 16.7957 35.8511 15.8513C35.8511 7.11086 28.7402 0 19.9998 0V0ZM29.0424 28.8713L32.6956 35.5921L29.5327 35.6687C29.1841 35.677 28.8586 35.854 28.6619 36.1419L26.8773 38.7546L22.9002 31.4379C25.0983 31.0325 27.1831 30.1651 29.0424 28.8713Z" fill="#FF7465"/>
<path d="M19.9998 3.25293C13.0528 3.25293 7.40088 8.90473 7.40088 15.8518C7.40088 22.7989 13.0528 28.4507 19.9998 28.4507C26.9468 28.4507 32.5986 22.7989 32.5986 15.8518C32.5986 8.90473 26.9468 3.25293 19.9998 3.25293V3.25293ZM19.9998 27.2814C13.6974 27.2814 8.5701 22.1541 8.5701 15.8518C8.5701 9.54941 13.6974 4.42215 19.9998 4.42215C26.302 4.42215 31.4294 9.54941 31.4294 15.8518C31.4294 22.1541 26.302 27.2814 19.9998 27.2814V27.2814Z" fill="#FF7465"/>
<path d="M18.6545 13.8274C18.9774 13.8274 19.2391 13.5657 19.2391 13.2428C19.2391 12.9199 18.9774 12.6582 18.6545 12.6582H16.4562C16.1333 12.6582 15.8716 12.9199 15.8716 13.2428V18.46C15.8716 18.7829 16.1333 19.0446 16.4562 19.0446H18.6545C18.9774 19.0446 19.2391 18.7829 19.2391 18.46C19.2391 18.1371 18.9774 17.8754 18.6545 17.8754H17.0408V16.436H18.4924C18.8153 16.436 19.077 16.1743 19.077 15.8514C19.077 15.5285 18.8153 15.2668 18.4924 15.2668H17.0408V13.8274H18.6545Z" fill="#FF7465"/>
<path d="M13.8927 15.4607C14.0981 15.1687 14.2193 14.8133 14.2193 14.43C14.2193 13.4396 13.4136 12.6338 12.4231 12.6338H10.8937C10.5708 12.6338 10.3091 12.8955 10.3091 13.2184V18.4836C10.3091 18.6391 10.371 18.7881 10.4812 18.8979C10.5908 19.0069 10.7391 19.0682 10.8936 19.0682H10.8962C10.8962 19.0682 12.3025 19.0619 12.6901 19.0619C13.7939 19.0619 14.692 18.1639 14.692 17.0601C14.6921 16.4072 14.3778 15.8264 13.8927 15.4607V15.4607ZM11.4784 13.803H12.4232C12.7689 13.803 13.0502 14.0843 13.0502 14.43C13.0502 14.7757 12.7689 15.0568 12.4232 15.0568C12.3106 15.0568 11.4784 15.0583 11.4784 15.0583V13.803ZM12.6903 17.8928C12.4684 17.8928 11.9137 17.8948 11.4783 17.8966V16.229C11.6049 16.2286 12.6903 16.2275 12.6903 16.2275C13.1494 16.2275 13.5229 16.6011 13.5229 17.0602C13.5229 17.5192 13.1494 17.8928 12.6903 17.8928Z" fill="#FF7465"/>
<path d="M23.3356 15.3439C22.7664 15.1341 22.2405 14.9117 21.9775 14.7977C21.8967 14.7627 21.8346 14.7166 21.798 14.6644C21.717 14.5489 21.6986 14.3934 21.7488 14.2484C21.8118 14.0664 21.9707 13.9287 22.1963 13.8609C22.9777 13.6255 23.6936 14.1937 23.7131 14.2094C23.9601 14.4148 24.3271 14.3822 24.5341 14.1359C24.7418 13.8887 24.71 13.5199 24.4628 13.3122C24.4143 13.2716 23.2599 12.3196 21.8591 12.7413C21.2732 12.9179 20.8304 13.3277 20.644 13.8659C20.4714 14.3644 20.5449 14.9138 20.8408 15.3359C21.0016 15.565 21.234 15.7499 21.513 15.8708C21.787 15.9894 22.3356 16.2214 22.9311 16.441C23.1793 16.5326 23.7481 16.7937 23.6685 17.2398C23.6107 17.5639 23.2237 17.8991 22.6763 17.8991C22.1325 17.8991 21.6086 17.6791 21.2746 17.3107C21.0578 17.0714 20.6881 17.0534 20.4489 17.2701C20.2096 17.4869 20.1914 17.8566 20.4082 18.0959C20.96 18.7048 21.8079 19.0684 22.6763 19.0684C23.7502 19.0684 24.6515 18.3858 24.8195 17.4454C24.9452 16.7403 24.6215 15.8182 23.3356 15.3439V15.3439Z" fill="#FF7465"/>
<path d="M25.6133 13.2184C25.6133 13.5413 25.875 13.803 26.1979 13.803H27.0613V18.4836C27.0613 18.8064 27.323 19.0682 27.6459 19.0682C27.9688 19.0682 28.2305 18.8064 28.2305 18.4836V13.803H29.1056C29.4285 13.803 29.6902 13.5413 29.6902 13.2184C29.6902 12.8955 29.4285 12.6338 29.1056 12.6338H26.1979C25.8749 12.6338 25.6133 12.8955 25.6133 13.2184V13.2184Z" fill="#FF7465"/>
</g>
<defs>
<clipPath id="clip0_204_2526">
<rect width="40" height="40" fill="white"/>
</clipPath>
</defs>
</svg>