<svg width="40" height="40" viewBox="0 0 40 40" fill="none" xmlns="http://www.w3.org/2000/svg">
<g clip-path="url(#clip0_204_2688)">
<path d="M18.4572 27.1297C18.7626 26.8242 18.7626 26.3298 18.4572 26.0243C18.1514 25.7198 17.656 25.7198 17.35 26.0243C17.0448 26.3298 17.0448 26.8242 17.35 27.1297C17.656 27.4342 18.1514 27.4342 18.4572 27.1297Z" fill="#FF7465"/>
<path d="M14.7515 8.59131C14.7515 13.3286 18.6131 17.1829 23.3596 17.1829C28.1061 17.1829 31.9677 13.3286 31.9677 8.59131C31.9677 3.85407 28.1061 0 23.3596 0C18.6131 0 14.7515 3.85407 14.7515 8.59131ZM30.4028 8.59131C30.4028 12.4674 27.2432 15.6207 23.3596 15.6207C19.476 15.6207 16.3164 12.4674 16.3164 8.59131C16.3164 4.71558 19.476 1.5622 23.3596 1.5622C27.2432 1.5622 30.4028 4.71558 30.4028 8.59131Z" fill="#FF7465"/>
<path d="M9.05287 39.7694C9.3562 40.0746 9.85002 40.078 10.1573 39.7758L13.9514 36.0454C14.5959 35.4021 14.7919 34.4496 14.5085 33.6217L15.3246 32.8361C15.764 32.4126 16.3425 32.1791 16.954 32.1791H27.3574C29.203 32.1791 30.9474 31.4717 32.2699 30.1872C32.3243 30.1344 31.8568 30.684 39.3672 21.7253C40.4811 20.41 40.3145 18.4349 38.9954 17.3219C37.6845 16.2193 35.7209 16.3777 34.6039 17.6704L29.9861 22.4074C29.403 21.6911 28.5138 21.2447 27.5531 21.2447H18.8266C17.5849 20.7262 16.2673 20.4637 14.9078 20.4637C11.1395 20.4637 7.84904 22.2008 6.0832 25.4576C5.33926 25.3169 4.55464 25.5415 3.99019 26.1049L0.267399 29.8314C-0.0365394 30.1356 -0.0371509 30.6279 0.266176 30.9331L9.05287 39.7694ZM14.9075 22.0256C16.1061 22.0256 17.265 22.2664 18.3526 22.7412C18.4517 22.7846 18.5584 22.8068 18.6664 22.8068H27.5531C28.4016 22.8068 29.1183 23.4975 29.1183 24.3687C29.1183 25.2302 28.4162 25.9309 27.5531 25.9309H21.1682C20.7361 25.9309 20.3857 26.2807 20.3857 26.7119C20.3857 27.1434 20.7361 27.4928 21.1682 27.4928H27.5531C29.2791 27.4928 30.6833 26.0915 30.6833 24.3687C30.6833 24.2314 30.6735 24.0953 30.6557 23.9604C35.1228 19.3776 35.7527 18.7337 35.7796 18.7016C36.3373 18.0446 37.3274 17.9613 37.986 18.5155C38.6453 19.0718 38.7287 20.0593 38.1695 20.7201L31.1505 29.0947C30.1255 30.0767 28.7798 30.6172 27.3574 30.6172H16.954C15.9346 30.6172 14.9696 31.0063 14.2376 31.7122L13.5725 32.3527L7.44175 26.2343C8.8746 23.5515 11.5633 22.0256 14.9075 22.0256ZM5.09769 27.2087C5.35577 26.9511 5.75205 26.9047 6.06669 27.0988C6.20215 27.1812 5.8132 26.8278 12.8448 33.8359C13.1576 34.1481 13.1407 34.6455 12.849 34.9367L9.61457 38.1169L1.9253 30.3841L5.09769 27.2087Z" fill="#FF7465"/>
<path d="M22.4205 3.90527V4.8205C21.5096 5.14276 20.8552 6.01099 20.8552 7.02936C20.8552 8.32117 21.9083 9.3725 23.2029 9.3725C23.6344 9.3725 23.9854 9.72284 23.9854 10.1534C23.9854 10.584 23.6344 10.9344 23.2029 10.9344C22.8687 10.9344 22.5076 10.7247 22.1868 10.3436C21.9086 10.0134 21.4151 9.97095 21.0842 10.2484C20.7534 10.5261 20.7106 11.0186 20.9888 11.3488C21.4071 11.8453 21.8991 12.1914 22.4205 12.366V13.2775C22.4205 13.7091 22.7709 14.0585 23.2029 14.0585C23.635 14.0585 23.9854 13.7091 23.9854 13.2775V12.3623C24.8963 12.0397 25.5506 11.1715 25.5506 10.1534C25.5506 8.86133 24.4976 7.81031 23.2029 7.81031C22.7715 7.81031 22.4205 7.45996 22.4205 7.02936C22.4205 6.59876 22.7715 6.24811 23.2029 6.24811C23.4803 6.24811 23.7729 6.38941 24.0493 6.65643C24.36 6.95642 24.8553 6.94818 25.1559 6.63843C25.4565 6.32837 25.4482 5.83399 25.1379 5.534C24.7407 5.15039 24.3432 4.93341 23.9854 4.815V3.90527C23.9854 3.47376 23.635 3.12402 23.2029 3.12402C22.7709 3.12402 22.4205 3.47376 22.4205 3.90527Z" fill="#FF7465"/>
</g>
<defs>
<clipPath id="clip0_204_2688">
<rect width="40" height="40" fill="white"/>
</clipPath>
</defs>
</svg>