<svg width="40" height="40" viewBox="0 0 40 40" fill="none" xmlns="http://www.w3.org/2000/svg">
<g clip-path="url(#clip0_204_6013)">
<path d="M8.59326 9.84375C8.16201 9.84375 7.81201 10.1938 7.81201 10.625C7.81201 11.0562 8.16201 11.4062 8.59326 11.4062C9.02451 11.4062 9.37451 11.0562 9.37451 10.625C9.37451 10.1938 9.02451 9.84375 8.59326 9.84375Z" fill="#FF7465"/>
<path d="M36.791 16.5261L35.6606 14.2653C35.2609 13.4659 34.4577 12.9694 33.5643 12.9694H27.0302V7.5009C27.0302 6.20863 25.9788 5.15723 24.6865 5.15723H2.34367C1.05133 5.15723 0 6.20855 0 7.5009V27.8125C0 29.1048 1.05133 30.1562 2.34367 30.1562H4.68734C4.68734 31.3557 5.14086 32.4511 5.88469 33.2811H0.78125C0.349766 33.2811 0 33.6309 0 34.0623C0 34.4937 0.349766 34.8436 0.78125 34.8436H39.2172C39.6487 34.8436 39.9984 34.4937 39.9984 34.0623C39.9984 33.6309 39.6487 33.2811 39.2172 33.2811H37.2386C37.9825 32.4511 38.4359 31.3557 38.4359 30.1562C38.4359 30.1117 38.4338 30.0674 38.4326 30.0229C39.3436 29.7014 39.9984 28.8322 39.9984 27.8125V23.4939C39.9984 22.5823 40.1789 23.4334 36.791 16.5261ZM35.6094 17.6567L37.9531 22.344H30.155V17.6567H35.6094V17.6567ZM1.56242 23.9064H3.12484V25.4689H1.56242V23.9064ZM9.37461 33.2811C7.65156 33.2811 6.24977 31.8792 6.24977 30.1562C6.24977 29.9434 6.27086 29.7339 6.31305 29.5303C6.60687 28.0823 7.89445 27.0313 9.37461 27.0313C10.8548 27.0313 12.1424 28.0822 12.4362 29.5303C12.4364 29.5314 12.4366 29.5325 12.4369 29.5336C12.4784 29.7339 12.4995 29.9434 12.4995 30.1562C12.4995 31.8793 11.0977 33.2811 9.37461 33.2811ZM9.37461 25.4689C7.37297 25.4689 5.60648 26.7511 4.95523 28.5937H2.34367C1.91289 28.5937 1.56242 28.2432 1.56242 27.8125V27.0312H3.90609C4.33758 27.0312 4.68734 26.6814 4.68734 26.25V23.1251C4.68734 22.6937 4.33758 22.3439 3.90609 22.3439H1.56242V7.5009C1.56242 7.07012 1.91289 6.71965 2.34367 6.71965H24.6865C25.1173 6.71965 25.4677 7.07012 25.4677 7.5009C25.4677 8.08207 25.4677 26.7203 25.4677 28.5938H13.7936C13.1412 26.7502 11.3754 25.4689 9.37461 25.4689ZM12.8645 33.2811C13.6084 32.4511 14.0619 31.3557 14.0619 30.1562C14.6617 30.1562 28.8059 30.1562 29.0612 30.1562C29.0612 31.3557 29.5148 32.4511 30.2586 33.2811H12.8645ZM33.7486 33.2811C32.0255 33.2811 30.6237 31.8792 30.6237 30.1562C30.6237 29.9434 30.6448 29.7339 30.687 29.5303C30.9809 28.0823 32.2684 27.0313 33.7486 27.0313C35.2287 27.0313 36.5164 28.0822 36.8102 29.5303C36.8104 29.5314 36.8106 29.5325 36.8109 29.5336C36.8524 29.7339 36.8734 29.9434 36.8734 30.1562C36.8735 31.8793 35.4716 33.2811 33.7486 33.2811ZM38.4359 27.8125C38.4359 28.0724 38.3079 28.3023 38.1122 28.4445C37.4191 26.6813 35.6949 25.4689 33.7486 25.4689C31.7469 25.4689 29.9805 26.7512 29.3292 28.5938H27.0301V14.5318H33.5642C33.862 14.5318 34.1298 14.6975 34.263 14.9639L34.8282 16.0943H29.3738C28.9423 16.0943 28.5926 16.4441 28.5926 16.8755V23.1253C28.5926 23.5567 28.9423 23.9065 29.3738 23.9065H38.4359V27.8125Z" fill="#FF7465"/>
<path d="M21.5616 9.84375H11.7183C11.2868 9.84375 10.937 10.1936 10.937 10.625C10.937 11.0564 11.2868 11.4062 11.7183 11.4062H21.5616C21.9931 11.4062 22.3429 11.0564 22.3429 10.625C22.3429 10.1936 21.993 9.84375 21.5616 9.84375Z" fill="#FF7465"/>
<path d="M21.5618 12.9688H14.8433C14.4118 12.9688 14.062 13.3186 14.062 13.75C14.062 14.1814 14.4118 14.5312 14.8433 14.5312H21.5618C21.9933 14.5312 22.343 14.1814 22.343 13.75C22.343 13.3186 21.9932 12.9688 21.5618 12.9688Z" fill="#FF7465"/>
<path d="M33.7485 28.5938C32.8869 28.5938 32.186 29.2947 32.186 30.1562C32.186 31.0177 32.887 31.7186 33.7485 31.7186C34.61 31.7186 35.3109 31.0177 35.3109 30.1562C35.3109 29.2946 34.61 28.5938 33.7485 28.5938Z" fill="#FF7465"/>
<path d="M9.37443 28.5938C8.51287 28.5938 7.81201 29.2947 7.81201 30.1562C7.81201 31.0177 8.51295 31.7186 9.37443 31.7186C10.236 31.7186 10.9369 31.0177 10.9369 30.1562C10.9369 29.2946 10.236 28.5938 9.37443 28.5938Z" fill="#FF7465"/>
</g>
<defs>
<clipPath id="clip0_204_6013">
<rect width="40" height="40" fill="white"/>
</clipPath>
</defs>
</svg>